<svg width="1908" height="282" viewBox="0 0 1908 282" fill="none" xmlns="http://www.w3.org/2000/svg">
<g style="mix-blend-mode:color-dodge">
<path d="M494.194 437.076L494.433 436.158L680.599 379.624C706.762 371.506 733.397 366.44 759.695 364.58L878.289 357.442C935.372 353.348 993.248 340.934 1049.41 320.738L1451.12 179.4C1499.77 162.215 1543.86 160.052 1586.42 158.212C1613.22 157.573 1640.4 154.899 1667.64 150.221C1727.99 138.261 1918.49 26.9812 1920.64 25.2834L1920.46 25.9718C1918.59 27.0977 1727.62 139.177 1667.01 151.133C1639.76 155.854 1612.58 158.528 1585.78 159.125C1543.17 161.194 1499.21 163.359 1450.75 180.316L1049.73 321.548C993.289 341.801 935.139 354.249 877.788 358.357L759.194 365.494C732.993 367.371 706.464 372.398 680.39 380.427L494.194 437.076Z" fill="url(#paint0_linear_2193_1193)"/>
<g opacity="0.98">
<path d="M496.254 441.379L496.717 440.449L683.553 383.373C709.828 375.803 735.75 370.601 760.86 367.857L774.771 366.839C792.735 365.515 826.122 363.072 827.329 362.851L872.688 359.37C926.83 354.515 983.719 341.556 1041.06 321.012L1147.6 283.507L1159.14 279.427C1288.45 234.109 1304.08 229.139 1306.25 228.696L1448 181.176L1452.56 179.59L1454.85 178.914C1492.51 167.751 1529.43 161.489 1564.26 160.358L1574.06 159.763C1598.65 158.723 1623.91 156.069 1649.67 151.819L1655.39 150.596C1697.11 141.704 1799.86 90.2607 1842.48 68.532L1920.71 27.9186L1920.36 28.6156L1841.23 69.336C1798.97 91.0685 1696.22 142.512 1654.08 151.517L1648.29 152.622C1622.5 156.968 1597.21 159.662 1572.63 160.682L1562.82 161.277C1528.29 162.499 1491.73 168.723 1454.44 179.727L1452.1 180.52L1447.59 181.989L1305.67 229.624C1302.6 230.408 1253.2 247.392 1158.55 280.355L1146.89 284.433L1040.48 321.94C983.087 342.526 926.151 355.486 871.983 360.296L827.351 363.786L774.794 367.774L760.882 368.791C735.64 371.486 709.576 376.647 683.148 384.186L496.254 441.379Z" fill="url(#paint1_linear_2193_1193)"/>
</g>
<g opacity="0.97">
<path d="M496.325 441.533L496.79 440.6L684.181 383.963C710.62 376.391 736.703 371.165 761.985 368.374L775.599 367.347C793.586 365.896 826.585 363.316 828.708 362.986L874.277 359.015C928.766 353.69 985.862 340.481 1043.39 319.89L1150.2 282.214L1159.8 278.915C1282.39 236.599 1305.95 229.11 1309.11 228.675L1449.85 184.089L1454.08 182.727L1456.8 181.935C1494.5 171.103 1531.42 165.012 1566.32 163.869L1569.98 163.908C1596.71 162.491 1624.09 159.492 1651.96 154.93L1657.83 153.703C1694.6 145.768 1778.98 107.15 1844.67 73.6092C1886.72 52.3638 1922.96 35.1606 1923.32 34.9299L1922.91 35.7463C1922.91 35.7463 1886.49 53.0649 1844.38 74.4269C1778.75 107.851 1694.13 146.467 1657.55 154.52L1651.67 155.748C1623.77 160.302 1596.35 163.3 1569.57 164.725L1565.8 164.684C1530.97 165.926 1494.15 172.056 1456.58 182.871L1453.86 183.663L1449.68 184.908L1308.65 229.608C1306.45 229.585 1256.2 246.639 1159.77 279.97L1150.65 283.274L1043.78 320.832C985.968 341.573 928.591 354.823 873.875 360.066L828.794 364.043C826.967 364.023 807.651 365.928 775.441 368.4L761.949 369.429C736.546 372.134 710.315 377.32 683.716 384.896L496.325 441.533Z" fill="url(#paint2_linear_2193_1193)"/>
</g>
<g opacity="0.95">
<path d="M496.372 441.607L496.839 440.67L684.62 384.717C711.198 377.235 737.427 371.988 762.903 369.056L777.25 367.912C795.075 366.451 828.53 363.74 830.045 363.168L875.754 358.82C930.598 352.948 987.875 339.493 1045.57 318.926L1152.81 281.2L1160.03 278.804C1288.33 234.589 1309.54 228.807 1312.11 228.834L1451.79 187.211C1453.09 186.762 1454.39 186.382 1455.68 186.075L1458.53 185.28C1496.09 174.843 1532.87 168.847 1567.78 167.472C1595.92 165.805 1624.73 162.49 1654.03 157.545L1659.93 156.312C1697.35 148.111 1780.75 111.313 1846.33 78.4483C1887.31 58.1582 1924.11 42.0624 1924.47 41.8307L1924.07 42.6505C1924.07 42.6505 1886.96 58.8609 1845.92 79.2681C1780.35 112.133 1696.21 148.923 1658.61 157.24L1652.7 158.473C1623.39 163.353 1594.54 166.667 1566.33 168.399C1531.39 169.677 1494.54 175.634 1456.9 186.087L1454.05 186.882C1452.76 187.169 1451.46 187.55 1450.16 188.018L1310.05 229.755C1307.73 229.73 1279.43 238.381 1158.89 279.616L1151.48 282.128L1044.43 319.738C987.073 340.245 930.117 353.741 875.532 359.76L830.19 364.111C827.818 364.675 802.79 366.767 777.273 368.854L762.384 370.346C736.962 373.12 710.771 378.21 684.211 385.537L496.372 441.607Z" fill="url(#paint3_linear_2193_1193)"/>
</g>
<g opacity="0.94">
<path d="M496.485 441.835L496.953 440.894L685.19 385.502C711.882 378.306 738.217 373.196 763.849 370.237L777.403 369.076C795.435 367.608 829.04 364.645 831.235 363.958L877.27 359.114C932.504 352.709 990.01 339.001 1047.92 318.437L1156.06 279.714L1160.63 278.224C1258.15 245.184 1310.23 228.462 1315.27 228.514L1453.89 189.87C1455.23 189.389 1456.56 189.045 1457.86 188.847L1460.73 188.049C1498.16 178.022 1534.81 172.197 1569.7 170.733L1570.68 170.743C1599.07 168.706 1628.08 165.058 1657.56 159.819L1663.49 158.58C1703.65 149.656 1788.84 112.587 1850.61 82.8429C1876.4 70.3093 1902.37 58.7402 1928.43 48.1807L1928.02 49.004C1928.02 49.004 1890.04 64.2167 1850.33 83.6674C1788.32 113.882 1703.24 150.479 1662.9 159.52L1656.97 160.759C1627.43 165.934 1598.34 169.581 1569.84 171.681L1569.1 171.673C1534.3 173.116 1497.73 178.942 1460.38 188.992L1457.39 189.788C1456.12 190.041 1454.84 190.383 1453.54 190.812L1314.5 229.57C1312.16 229.546 1291.46 234.889 1160.53 279.169L1155.96 280.659L1048.24 318.795C990.23 339.36 932.631 353.104 877.282 359.587L831.674 364.318C828.928 365.117 803.479 367.336 777.537 369.551L764.598 370.717C738.595 373.725 711.868 378.951 684.78 386.325L496.485 441.835Z" fill="url(#paint4_linear_2193_1193)"/>
</g>
<g opacity="0.92">
<path d="M496.557 441.998L497.028 441.052L685.897 386.161C712.945 378.577 739.655 373.157 765.655 369.976L778.726 368.683C796.796 367.084 830.774 363.982 833.099 363.055L879.447 357.821C922.946 354.816 1000.18 334.208 1050.85 316.302L1159.19 278.895C1194.63 267.371 1308.99 228.837 1318.51 228.934L1456.37 193.135L1460.24 192.104C1461.16 191.981 1462.11 191.751 1463.07 191.42C1499.14 182.058 1534.49 176.468 1568.28 174.78L1572.98 174.828C1601.52 172.588 1630.6 168.916 1660.1 163.828L1666.12 162.463C1708.04 153.144 1791.97 118.342 1853.66 88.7811C1879.27 76.6907 1905.1 65.837 1930.97 56.289L1930.61 56.9985C1904.77 66.6824 1878.97 77.5728 1853.37 89.6101C1792.42 118.941 1708.74 153.745 1666.93 162.828L1660.97 164.075C1631.45 169.096 1602.33 172.767 1573.73 175.074L1569.03 175.026C1535.36 176.6 1500.08 182.194 1464.06 191.668L1461.11 192.351L1457.43 193.264L1319.14 229.178C1312.46 229.11 1235.64 253.882 1160.56 279.147L1052.48 317.031C1000.53 335.519 922.982 356.243 879.483 359.248L833.441 364.366C830.374 365.285 803.549 367.746 778.762 370.109L765.75 371.284C739.621 374.242 712.736 379.502 685.485 386.989L496.557 441.998Z" fill="url(#paint5_linear_2193_1193)"/>
</g>
<g opacity="0.9">
<path d="M496.657 442.173L497.129 441.223L686.432 386.889C713.51 379.571 740.247 374.285 766.316 371.095L779.447 369.794C797.659 368.066 831.853 364.827 834.869 363.783L881.418 358.041C921.646 355.22 1002.01 333.939 1053.52 315.712L1161.78 278.236C1163.02 278.248 1308.07 229.321 1320.99 229.451L1457.87 196.678L1461.7 195.761L1464.19 195.786C1498.99 186.883 1533.09 181.532 1565.74 179.851L1574.53 178.984C1603.28 176.397 1632.53 172.466 1662.16 167.206L1668.03 165.952C1712.72 155.655 1798.03 121.411 1855.83 94.2932C1881.63 82.2435 1907.67 71.6874 1933.69 62.7204L1933.28 63.5519C1907.79 72.2475 1882.29 82.489 1857 94.1856C1799.27 121.185 1714.14 155.55 1668.95 165.842L1663.09 167.096C1633.36 172.406 1604.01 176.375 1575.15 178.99L1566.54 179.739C1533.91 181.48 1499.86 186.83 1465.11 195.676L1462.5 195.65L1458.8 196.568L1321.61 229.457L1320.74 229.448C1310.3 229.344 1193.74 267.692 1162.16 278.239L1053.6 316.549C1002.09 334.776 921.546 356.174 881.253 358.875L834.704 364.617C831.191 365.656 804.125 368.37 779.099 370.745L766.027 371.928C740.006 375.092 713.308 380.379 686.267 387.723L496.657 442.173Z" fill="url(#paint6_linear_2193_1193)"/>
</g>
<g opacity="0.89">
<path d="M496.765 442.346L497.121 441.629L687.089 387.67C714.34 380.393 741.255 375.074 767.536 371.773L780.74 370.463C798.929 368.72 832.873 365.332 836.833 363.93L883.693 357.788C924.521 354.948 1011.86 330.474 1056.65 314.587L1165.54 276.519C1166.79 276.532 1309.78 228.714 1324.64 228.86L1325.64 228.87L1461.55 199.112C1462.83 198.744 1464.1 198.475 1465.34 198.308L1467.84 198.333C1501.28 190.117 1534.07 185.044 1565.6 183.206L1578.75 182.015C1602.23 179.725 1644.23 174.015 1666.97 169.436L1673.05 168.055C1735.55 150.651 1798.61 127.383 1860.98 98.7093C1886.55 87.387 1912.29 77.8348 1937.91 70.1718L1937.49 71.0081C1911.9 78.6292 1886.17 88.1415 1860.63 99.4261C1798.21 127.948 1735.13 151.093 1672.62 168.411L1666.6 169.672C1643.86 174.251 1601.74 179.96 1578.26 182.25L1565.11 183.442C1533.67 185.267 1500.96 190.342 1467.59 198.571L1464.97 198.545C1463.78 198.695 1462.55 198.965 1461.31 199.349L1324.84 229.222L1323.84 229.213C1310.72 229.084 1184.55 270.343 1165.24 276.877L1056.35 314.944C1010.81 330.824 923.969 355.302 883.141 358.143L836.543 364.768C832.084 366.165 799.573 369.447 780.201 371.298L767.746 372.616C741.51 375.903 714.635 381.223 687.423 388.514L496.765 442.346Z" fill="url(#paint7_linear_2193_1193)"/>
</g>
<g opacity="0.87">
<path d="M496.797 442.435L497.153 441.714L687.523 388.312C714.966 381.051 742.078 375.705 768.574 372.33L780.021 371.114C798.535 369.122 833.193 365.598 837.48 364.071L884.786 357.412C922.793 354.765 1011.82 330.054 1057.91 313.372L1167.08 275.227C1168.21 275.238 1308.95 228.351 1326.02 228.516L1327.4 228.53L1462.36 201.731C1463.63 201.393 1464.88 201.163 1466.1 201.044L1468.61 201.068C1500.66 193.329 1532.1 188.498 1562.38 186.656L1579.33 185.011C1602.85 182.585 1646.78 176.135 1667.99 171.757L1673.79 170.486C1736.53 153.655 1799.92 131.044 1862.77 103.078C1888.13 92.2881 1913.63 83.443 1938.89 76.6748L1938.47 77.5151C1913.24 84.223 1887.75 93.0287 1862.41 103.798C1799.8 131.669 1736.65 154.24 1674.12 171.092L1668.44 172.364C1647.17 176.621 1603.18 183.191 1579.54 185.616L1562.58 187.262C1532.39 189.134 1501.06 193.925 1469.13 201.555L1466.19 202.13C1465.02 202.248 1463.8 202.479 1462.57 202.819L1327.56 229.979L1326.31 229.967C1311.75 229.826 1194.04 267.889 1167.88 276.682L1058.88 314.226C1011.97 330.78 923.005 355.611 884.872 358.257L837.817 364.919C833.154 366.442 798.688 370.089 780.232 371.961L768.786 373.177C742.326 376.566 715.258 381.912 687.86 389.16L496.797 442.435Z" fill="url(#paint8_linear_2193_1193)"/>
</g>
<g opacity="0.85">
<path d="M496.65 442.626L497.008 441.901L687.874 389.016C715.466 381.845 742.74 376.468 769.449 372.933L779.884 371.819C797.297 369.923 833.443 366.022 838.811 364.132L886.28 357.064C921.963 354.613 1014.47 328.446 1060.54 312.147L1170.04 273.891C1185.16 268.941 1310.36 228.409 1328.78 228.584L1330.54 228.601L1464.42 204.889L1467.83 204.921C1468.67 205.018 1469.55 205.027 1470.48 204.946C1501.21 197.768 1531.37 193.179 1560.51 191.248L1581.26 189.262C1602.64 187.04 1648.53 179.835 1670.4 175.313L1676.48 174.037C1739.33 157.395 1802.83 135.229 1865.89 107.917C1891.07 97.6143 1916.34 89.4751 1941.24 83.6487L1940.89 84.373C1915.98 90.2181 1890.72 98.3564 1865.54 108.642C1802.77 135.606 1739.6 157.448 1677.11 173.8L1670.97 175.197C1648.96 179.718 1603.19 186.681 1581.7 189.145L1560.95 191.131C1531.85 193.062 1501.73 197.651 1471.04 204.83L1468.27 204.804C1467.26 204.635 1466.15 204.624 1464.99 204.773L1330.67 228.602C1322.87 224.889 1196.15 265.164 1170.86 273.778L1061.26 313.003C1015.25 329.181 922.429 355.467 886.998 357.92L839.151 364.984C833.716 366.752 798.387 370.54 780.098 372.67L769.663 373.784C743.018 377.278 715.806 382.615 688.273 389.747L496.65 442.626Z" fill="url(#paint9_linear_2193_1193)"/>
</g>
<g opacity="0.84">
<path d="M496.737 442.814L497.095 442.085L688.445 389.714C716.24 382.57 743.723 377.159 770.668 373.527L780.395 372.398C797.894 370.488 834.338 366.315 840.299 364.297L888.112 356.693C923.848 354.222 1021.86 325.618 1063.44 311.004L1173.44 272.51C1187.18 267.881 1311.48 228.058 1331.89 228.248C1332.71 228.117 1333.49 228.125 1334.17 228.27L1467.09 207.677C1468.31 207.528 1469.46 207.539 1470.52 207.709L1473.05 207.733C1502.45 201.044 1531.31 196.739 1559.24 194.876L1584.2 192.304C1604.8 190.056 1652.92 182.089 1673.76 177.771L1679.81 176.364C1742.57 160.164 1806 138.858 1869.17 112.752C1894.19 102.981 1919.24 95.5179 1943.79 90.5172L1943.37 91.3671C1918.85 96.2798 1893.82 103.704 1868.81 113.481C1805.85 139.399 1742.65 160.504 1680.13 176.489L1674.09 177.896C1653.11 182.213 1604.3 190.296 1584.34 192.549L1559.44 195C1531.53 196.912 1502.72 201.216 1473.37 207.858C1472.45 207.935 1471.56 207.926 1470.71 207.833C1469.55 207.908 1468.35 208.101 1467.12 208.409L1333.75 229.12L1331.6 229.099C1312.71 228.923 1194.49 266.242 1173.72 273.245L1063.84 311.739C1022.33 326.477 924.19 355.079 888.455 357.551L840.701 365.033C820.385 368.707 800.327 371.452 780.611 373.254L770.884 374.383C744.033 378.018 716.658 383.389 688.974 390.451L496.737 442.814Z" fill="url(#paint10_linear_2193_1193)"/>
</g>
<g opacity="0.82">
<path d="M496.832 442.999L497.191 442.266L689.622 390.422C717.565 383.342 745.209 377.898 772.354 374.129L780.733 373.224C801.035 371.205 821.669 368.242 842.554 364.345L890.644 356.322C924.454 353.933 1025.11 324.31 1066.24 309.844L1176.67 271.232C1197.21 264.306 1313.07 227.952 1334.6 228.15C1335.65 228.006 1336.64 228.015 1337.53 228.177L1469.34 210.739C1470.56 210.589 1471.72 210.6 1472.78 210.77L1475.45 210.795C1503.57 204.762 1531.16 200.91 1557.89 199.284C1567.35 198.266 1577.13 197.374 1586.78 196.236C1606.83 193.967 1657.36 184.616 1676.8 180.991L1682.75 179.574C1745.5 163.671 1808.92 142.939 1872.18 117.643C1897.1 108.261 1921.98 101.359 1946.24 97.0992L1945.82 97.9541C1921.69 101.988 1896.91 108.686 1872.06 117.887C1808.99 142.849 1745.79 163.214 1683.29 178.72L1677.41 180.016C1657.54 184.25 1607 193.109 1587.2 195.381C1577.55 196.52 1567.77 197.411 1558.37 198.307C1531.62 200.006 1504.03 203.858 1475.93 209.818C1475 209.895 1474.1 209.887 1473.26 209.793C1472.21 209.677 1471.1 209.667 1469.94 209.763L1337.82 227.321C1327.47 222.319 1199.33 262.853 1177.71 269.892L1067.41 308.505C1026.15 323.216 925.375 352.838 890.927 355.22L842.195 365.078C821.247 369.048 800.566 372.012 780.247 373.956L771.935 374.984C744.909 378.667 717.367 384.072 689.518 391.157L496.832 442.999Z" fill="url(#paint11_linear_2193_1193)"/>
</g>
<g opacity="0.81">
<path d="M496.968 443.242L497.327 442.504L690.475 391.118C718.596 383.997 746.414 378.55 773.72 374.817L780.993 373.894C801.778 371.744 822.907 368.593 844.29 364.456L892.626 355.872C925.414 353.572 1032.66 321.303 1069.36 308.044L1180.04 269.259C1200.24 262.399 1313.85 227.1 1337.56 227.312C1338.83 227.162 1340.04 227.172 1341.15 227.345L1471.96 213.818C1473.19 213.678 1474.35 213.688 1475.43 213.849C1476.2 214.004 1477.07 214.012 1477.99 213.872C1504.84 208.052 1531.24 204.156 1556.91 202.227C1567.63 201.088 1578.68 200.075 1589.78 198.692C1608.35 196.512 1661.14 186.979 1680.34 182.704L1686.44 181.276C1748.95 166.043 1812.13 146.402 1875.31 122.563C1900.39 113.869 1925.31 107.862 1949.4 104.698L1948.98 105.559C1925.25 108.517 1900.66 114.364 1875.9 122.939C1812.67 146.831 1749.45 166.473 1686.91 181.651C1685.11 181.635 1682.78 182.726 1680.68 183.078C1661.53 187.23 1608.62 197.008 1590.06 199.189L1557.24 202.6C1531.62 204.518 1505.26 208.414 1478.45 214.247L1475.76 214.222C1474.73 214.054 1473.61 214.044 1472.43 214.193L1341.19 228.58C1330.83 223.422 1209.91 260.262 1180.83 270.008L1069.27 309.031C1032.81 322.046 925.251 354.435 892.403 356.858L843.931 365.194C822.494 369.369 801.32 372.519 780.505 374.631L773.233 375.554C746.012 379.503 718.335 385.032 690.38 392.105L496.968 443.242Z" fill="url(#paint12_linear_2193_1193)"/>
</g>
<g opacity="0.79">
<path d="M497.332 443.432L497.692 442.689L691.523 391.915C719.798 384.858 747.784 379.372 775.301 375.491L779.553 375.528C801.409 372.981 823.641 369.273 846.134 364.424L894.627 355.399C925.72 353.185 1035.92 319.335 1071.81 307.215L1182.92 268.274C1202.77 261.484 1313.98 227.145 1339.75 227.372C1341.37 227.13 1342.89 227.143 1344.26 227.411L1474.34 216.119C1475.63 215.912 1476.86 215.923 1477.95 216.151L1480.52 216.174C1505.96 210.955 1530.99 207.433 1555.37 205.639C1567.43 204.502 1579.76 203.367 1592.13 201.859C1610.47 199.533 1665.73 188.827 1683.24 185.001L1688.35 183.803L1689.25 183.811C1751.84 168.872 1815.05 149.974 1878.37 127.275C1903.4 119.148 1928.16 113.883 1951.93 111.631L1951.57 112.374C1928.26 114.645 1904.01 119.786 1879.47 127.658C1816.11 150.36 1752.86 169.258 1690.23 184.192L1689.33 184.184L1684.22 185.383C1666.71 189.208 1611.26 200.037 1592.99 202.239C1580.61 203.747 1568.23 205.006 1556.16 206.144C1531.8 207.899 1506.8 211.379 1481.37 216.554L1478.67 216.53C1477.63 216.371 1476.5 216.361 1475.32 216.501L1344.98 227.791C1343.68 227.552 1342.25 227.539 1340.73 227.753C1316.64 227.542 1210.56 259.563 1184.22 268.534L1071.97 308.211C1035.7 320.328 925.686 354.055 894.534 356.393L846.23 365.295C823.712 369.891 801.472 373.349 779.622 375.653L775.07 376.235C747.575 380.19 719.637 385.676 691.421 392.66L497.332 443.432Z" fill="url(#paint13_linear_2193_1193)"/>
</g>
<g opacity="0.77">
<path d="M497.462 443.696L497.821 442.947L692.226 392.514C720.882 385.498 749.259 379.969 777.199 375.959L779.013 375.975C801.49 373.659 824.483 369.796 847.795 364.416L896.582 354.941C924.869 352.93 1037.52 318.577 1074.7 305.369L1186.26 266.248C1213.04 257.084 1315.92 226.28 1342.48 226.508C1344.36 226.284 1346.15 226.299 1347.79 226.553L1476.97 219.272C1478.2 219.13 1479.38 219.14 1480.46 219.302L1483.06 219.324C1507.26 214.576 1531.07 211.349 1554.31 209.666C1567.92 208.405 1581.54 207.145 1595.39 205.385C1612.6 203.153 1670.11 191.498 1687 187.76L1692.71 186.431C1717.78 180.009 1747.67 170.872 1779.36 161.249C1815.27 150.41 1852.59 139.083 1881.98 132.071C1907.8 118.39 1953.47 118.657 1955.02 118.67L1954.66 119.419C1953.63 119.41 1907.76 119.016 1882.06 132.698C1852.73 139.585 1815.55 150.914 1779.44 161.876C1747.76 171.499 1718.39 180.64 1692.8 187.059L1686.89 188.511C1670.2 192.125 1612.56 203.779 1595.35 206.011C1581.5 207.77 1567.88 209.031 1554.21 210.417C1531.07 212.07 1507.37 215.257 1483.27 219.952L1480.42 219.928C1479.42 219.767 1478.33 219.757 1477.19 219.9L1347.91 227.932C1346.31 227.679 1344.56 227.664 1342.73 227.888C1316.82 227.665 1212.78 258.71 1186.77 267.63L1075.34 306.752C1042 318.991 927.249 354.203 896.959 356.322L847.435 365.165C823.842 370.487 800.586 374.265 777.867 376.466L776.053 376.45C748.361 380.488 720.244 386.019 691.857 393.011L497.462 443.696Z" fill="url(#paint14_linear_2193_1193)"/>
</g>
<g opacity="0.76">
<path d="M497.323 443.943L497.683 443.189L692.783 393.245C721.454 386.293 749.866 380.721 777.884 376.555C801.409 373.914 825.377 369.903 849.639 364.546L898.758 354.491C926.603 352.581 1045.81 315.368 1077.43 303.904L1189.39 264.612C1218.02 254.762 1335.76 219.807 1351.22 226.874L1479.36 221.645C1480.66 221.454 1481.89 221.464 1483 221.676L1485.61 221.698C1508.48 217.343 1531 214.372 1553 212.805C1567.52 211.414 1582.43 210.026 1597.65 208.01C1612.86 205.994 1674.17 193.14 1689.65 189.739L1694.73 188.394L1695.78 188.403C1717.99 182.662 1743.53 175.183 1770.6 167.213C1811.23 154.942 1853.17 142.682 1885.25 136.267C1909.48 123.858 1957.43 125.018 1957.76 125.147L1957.4 125.901C1957.4 125.901 1908.85 124.357 1884.75 136.767C1852.49 143.559 1810.29 155.817 1770.1 167.713C1743.03 175.683 1717.49 183.162 1694.62 188.898L1693.58 188.889L1688.5 190.234C1673.01 193.635 1612.94 206.373 1596.37 208.504C1579.79 210.634 1566.24 211.908 1551.72 213.299C1529.7 214.928 1507.18 217.898 1484.32 222.192L1481.59 222.169C1480.53 222.017 1479.4 222.008 1478.2 222.14L1349.91 226.863C1348.27 226.172 1346.34 225.856 1344.21 225.932C1317.39 225.706 1220.9 253.651 1189.06 264.483L1077.17 303.902C1045.61 315.24 925.842 353.079 898.237 354.487L849.248 364.543C824.942 369.898 800.932 373.909 777.363 376.551C749.471 380.728 721.19 386.301 692.653 393.244L497.323 443.943Z" fill="url(#paint15_linear_2193_1193)"/>
</g>
<g opacity="0.74">
<path d="M497.718 444.196L498.077 443.436L693.41 394.197C722.272 387.209 750.898 381.504 779.171 377.106C802.615 374.387 826.479 370.338 850.623 364.982L899.895 354.455C925.992 352.636 1048.04 314.107 1079.42 302.798L1191.54 263.298C1223.06 252.244 1317.09 225.433 1346.16 225.672C1348.72 225.625 1351.08 225.988 1353.14 226.746L1480.24 225.375C1481.55 225.182 1482.79 225.192 1483.9 225.405L1486.39 225.426C1508.49 221.317 1530.26 218.439 1551.59 216.809C1567.23 215.413 1583.59 213.895 1600.18 211.616C1616.76 209.337 1689.61 193.157 1692.66 192.546L1697.9 191.191L1698.68 191.198C1717.57 186.268 1738.39 180.338 1760.23 174.162C1803.19 161.168 1845.95 150.189 1888.29 141.276C1911.69 128.757 1958.25 132.317 1960.6 132.336L1960.25 133.096C1960.25 133.096 1911.48 129.772 1888.65 141.914C1846.32 150.78 1803.59 161.718 1760.65 174.674C1738.61 180.975 1717.87 187.033 1699.04 191.836L1698.25 191.83L1692.88 193.184C1690.13 193.161 1617.38 209.978 1600.4 212.253C1583.42 214.529 1567.45 216.05 1551.81 217.447C1531 218.941 1509.74 221.653 1488.17 225.568L1485.28 225.544C1484.3 225.339 1483.19 225.33 1482.01 225.517L1354.79 226.887C1352.82 226.055 1350.49 225.689 1347.93 225.814C1319.13 225.577 1225.94 252.267 1194.2 262.684L1081.94 302.183C1050.25 313.617 928.506 351.766 902.229 353.966L853.088 364.494C828.945 369.847 805.081 373.896 781.636 376.618C753.508 380.878 725.006 386.499 696.257 393.457L497.718 444.196Z" fill="url(#paint16_linear_2193_1193)"/>
</g>
<g opacity="0.73">
<path d="M497.487 444.265L497.845 443.5L693.768 394.521C707.699 390.153 768.97 378.871 779.624 377.549C803.288 374.647 827.4 370.265 851.788 364.434L901.364 353.314C925.806 351.591 1053.4 310.637 1081.47 300.623L1193.94 260.956C1225.44 250.074 1317.1 223.55 1347.75 223.796C1350.76 223.694 1353.5 224.151 1355.83 225.141L1481.82 227.05C1482.97 226.945 1484.07 226.954 1485.11 227.077C1485.97 227.285 1486.95 227.292 1488 227.1C1520.6 225.133 1553.86 221.427 1587.61 215.998L1600.35 214.181C1613.61 212.368 1668.12 200.007 1688.35 195.434L1692.97 194.32L1697.91 193.08L1699.09 193.089C1714.1 189.242 1729.28 185.013 1744.53 180.656C1792.72 166.354 1840.62 154.683 1887.92 145.716C1909.73 134.117 1957.1 138.977 1959.67 139.126L1959.31 139.891C1959.31 139.891 1909.64 134.884 1888.15 146.358C1841.16 155.549 1793.6 167.437 1745.77 181.946C1729.42 186.422 1714.04 190.777 1700.33 194.379L1699.15 194.369L1694.21 195.61L1689.66 196.597C1669.1 201.295 1614.46 213.654 1601.59 215.471L1588.85 217.288C1555.1 222.717 1521.84 226.423 1489.25 228.39C1488.11 228.584 1487.04 228.576 1486.09 228.365C1485.14 228.244 1484.12 228.236 1483.06 228.34L1356.74 226.3C1354.38 225.42 1351.67 225.009 1348.73 225.084C1318.21 224.838 1227.12 250.727 1195.67 261.482L1083.14 301.277C1055.47 311.293 927.217 352.242 902.907 353.967L853.522 364.96C828.317 371.23 803.398 375.906 778.967 378.951C768.121 380.4 707.221 391.173 693.111 395.923L497.487 444.265Z" fill="url(#paint17_linear_2193_1193)"/>
</g>
<g opacity="0.71">
<path d="M497.921 444.585L498.278 443.813L694.867 395.234C707.611 390.942 770.061 379.676 780.786 378.597C804.631 375.626 828.956 371.024 853.558 364.829L903.426 353.207C926.091 351.576 1056.54 309.325 1084.14 299.337L1197.11 259.275C1236.17 245.759 1341.32 217.132 1358.86 225.407L1483.99 230.777C1485.16 230.629 1486.27 230.638 1487.3 230.803C1488.21 230.928 1489.19 230.936 1490.21 230.826C1523.65 229.316 1557.95 225.57 1592.87 219.617L1602.78 218.274C1613.94 216.552 1661.67 205.818 1684.79 200.057L1696.23 197.434L1700.73 196.306L1702.19 196.318L1729.52 188.911C1784.23 172.729 1838.52 160.196 1891.89 151.431C1912.3 140.611 1960.37 146.929 1963.16 147.209L1962.8 147.982C1962.8 147.982 1912.74 141.39 1892.06 152.207C1838.68 161.028 1784.39 173.559 1729.69 189.687L1702.3 197.223L1700.85 197.211L1696.15 198.466L1684.84 201.09C1661.77 206.464 1613.86 217.585 1602.76 219.178L1592.79 220.649C1557.82 226.637 1523.49 230.34 1490.05 231.729C1490.05 231.729 1488.6 231.718 1486.88 231.704C1485.92 231.583 1484.9 231.575 1483.84 231.68L1358.45 226.308C1341.23 217.906 1236.34 246.536 1196.69 260.176L1083.91 300.11C1056.45 310.1 925.542 352.476 902.876 354.107L853.14 365.73C828.549 371.871 804.228 376.473 780.368 379.498C768.876 381.088 706.439 392.612 693.946 396.647L497.921 444.585Z" fill="url(#paint18_linear_2193_1193)"/>
</g>
<g opacity="0.69">
<path d="M498.006 444.764L498.362 443.987L695.179 395.958C706.602 392.275 771.884 380.164 782.103 378.812C806.125 375.657 830.615 370.846 855.365 364.422L905.549 351.804C926.116 350.272 1060.61 306.446 1086.73 296.895L1199.84 256.675C1239.66 242.808 1342.62 215.123 1361.43 224.109L1485.27 233.12C1486.5 232.945 1487.67 232.954 1488.73 233.147C1489.57 233.317 1490.52 233.324 1491.52 233.168L1493.91 233.187C1527.04 232.058 1561.17 228.407 1595.97 222.268L1604.27 221.031C1614.02 219.546 1656.83 209.342 1682.46 203.168L1697.47 199.512L1702.18 198.248L1703.64 198.259L1707.31 197.247C1768.29 180.552 1844.71 159.295 1893.49 155.248C1912.4 145.121 1962.09 153.044 1964.17 153.45L1963.81 154.227C1963.81 154.227 1912.18 145.9 1893.72 155.9C1844.76 160.335 1768.91 180.947 1707.67 197.9L1704.01 198.912L1702.55 198.901L1697.83 200.165L1682.83 203.821C1657.2 209.995 1614.38 220.198 1604.5 221.683L1596.2 222.919C1561.33 229.153 1527.13 232.848 1493.95 233.967L1491.96 233.952C1490.83 234.104 1489.75 234.096 1488.77 233.927C1487.8 233.821 1486.77 233.813 1485.71 233.904L1361.41 225.019C1358.24 223.714 1354.54 223.112 1350.49 223.245C1317.42 222.991 1233.46 245.881 1200.22 257.588L1087.17 297.678C1060.08 307.612 926.762 351.187 905.664 352.715L855.612 365.334C830.845 371.86 806.345 376.672 782.351 379.724C772.132 381.076 706.923 393.318 695.501 397.001L498.006 444.764Z" fill="url(#paint19_linear_2193_1193)"/>
</g>
<g opacity="0.68">
<path d="M498.19 445.127L498.545 444.342L695.935 396.734C706.75 393.272 774.38 380.654 783.387 379.408C807.591 376.147 832.28 371.109 857.218 364.343L907.485 351.595C927.295 350.168 1068.19 303.32 1089.43 295.474L1202.79 254.982C1242.11 241.234 1344.49 214.045 1364.34 223.773L1487.35 236.239C1488.53 236.09 1489.65 236.099 1490.69 236.264L1493.63 236.286L1500.57 236.338C1532.65 235.175 1565.7 231.471 1599.4 225.265L1606.28 224.266C1614.81 222.886 1656.15 212.696 1681.24 206.716L1700.99 201.876L1706.05 200.471L1707.62 201.138C1774.58 182.61 1849.6 162.829 1897.67 160.563C1915.35 151.115 1965.52 161.069 1967.92 161.087C1967.92 161.087 1915.16 151.245 1898.2 160.567C1850.09 163.226 1775.24 182.615 1708.23 201.274L1707.16 201.266L1701.97 202.671L1682.35 207.511C1656.09 214.008 1616.27 223.816 1607.4 225.062L1600.45 226.191C1566.77 232.353 1533.74 236.013 1501.68 237.134L1494.87 237.083C1493.74 237.231 1492.66 237.223 1491.67 237.059C1490.72 236.897 1489.68 236.889 1488.6 237.036L1364 224.821C1360.34 223.376 1356.12 222.679 1351.53 222.759C1316.94 222.501 1236.69 244.343 1202.45 256.029L1089.09 296.521C1067.98 304.368 926.762 351.345 906.951 352.772L856.818 365.521C831.862 372.404 807.161 377.444 782.988 380.587C774.114 381.833 706.158 394.58 695.61 398.044L498.19 445.127Z" fill="url(#paint20_linear_2193_1193)"/>
</g>
<g opacity="0.66">
<path d="M498.011 445.302L498.365 444.511L696.104 397.444C705.835 394.343 776.402 380.979 784.653 379.982C808.994 376.636 833.831 371.423 858.905 364.398L909.062 351.546C926.742 350.221 1071.06 301.971 1091.44 294.321L1205.05 253.645C1248.95 238.236 1345.78 213.697 1366.43 223.761L1488.25 239.851C1489.45 239.659 1490.59 239.667 1491.61 239.876C1492.52 240.029 1493.51 240.037 1494.56 239.897C1498.18 239.924 1501.67 239.949 1505.42 239.977C1536.77 238.8 1569.07 235.101 1602 228.918L1607.64 228.034C1615.21 226.767 1654.48 216.876 1680.62 210.193L1702.14 204.799L1706.43 203.64L1708.6 202.995C1796.96 178.13 1859.21 165.63 1898.63 164.728C1914.59 156.121 1966.14 167.204 1968.31 167.749C1968.31 167.749 1914.59 156.121 1899.09 164.6C1859.73 165.37 1797.62 177.87 1709.06 202.867L1707.32 202.854L1703.03 204.012L1679.67 212.301C1653.73 218.853 1614.26 228.875 1606.76 230.01L1601.05 231.026C1568.1 237.18 1535.77 240.835 1504.4 241.952C1500.78 241.926 1497.16 241.899 1493.67 241.874C1493.67 241.874 1492.2 241.863 1490.32 241.849C1489.37 241.763 1488.39 241.755 1487.37 241.828L1365.28 225.735C1344.36 215.669 1247.8 240.211 1203.9 255.62L1090.31 294.445C1069.99 301.963 925.417 350.476 907.871 351.801L857.714 364.653C832.63 371.749 807.785 376.963 783.462 380.237C775.882 381.24 705.449 394.604 695.525 397.836L498.011 445.302Z" fill="url(#paint21_linear_2193_1193)"/>
</g>
<g opacity="0.65">
<path d="M498.382 445.488L498.735 444.69L696.792 398.088C705.571 395.35 777.205 381.59 785.684 380.45C810.177 377.07 835.205 371.624 860.454 364.178L911.068 350.268C926.284 349.176 1073.01 299.142 1093.41 291.819L1207.32 250.887C1251.88 235.067 1346.2 211.866 1368.57 222.427L1489.52 242.091C1490.7 241.937 1491.84 241.945 1492.89 242.115L1495.71 242.135C1530.22 243.225 1566.7 239.763 1604.21 231.838L1608.74 231.07C1615.27 230.049 1654.15 220.057 1678.84 213.431L1703.6 206.939L1708.1 205.638L1709.72 205.649C1767.97 189.126 1847.31 169.553 1898.11 169.914L1899.86 169.927C1914.24 162.161 1966.85 174.937 1969.04 175.486C1969.04 175.486 1914.41 161.762 1900.26 169.93L1898.78 169.919C1848.25 169.56 1768.65 189.131 1710.66 205.656L1709.04 205.644L1704.41 206.945L1679.65 213.437C1652.9 220.448 1616.08 230.055 1609.55 231.076L1605.02 231.844C1572.7 238.065 1540.99 241.766 1510.24 242.905C1505.26 242.87 1500.68 242.837 1496.77 242.81L1493.8 242.789L1490.84 242.767L1369.76 223.103C1364.7 221.069 1358.85 220.124 1352.48 220.312C1316.36 220.056 1245.1 238.486 1208.24 251.56L1093.11 292.484C1072.86 300.075 926.125 349.842 910.177 351.062L859.991 364.308C834.743 371.746 809.716 377.193 785.221 380.58C777.146 381.723 705.706 395.351 696.329 398.218L498.382 445.488Z" fill="url(#paint22_linear_2193_1193)"/>
</g>
<g opacity="0.63">
<path d="M498.477 445.676L697.499 398.989C705.436 396.351 780.291 381.925 786.793 381.028C811.173 377.357 836.055 371.58 861.114 363.77L912.003 349.178C926.068 348.064 1078.49 295.804 1095.31 289.592L1208.86 248.642C1261.43 229.888 1348.52 210.43 1371.01 221.491L1490.91 244.938L1494.3 244.961L1497.28 244.982C1524.54 248.805 1564.6 241.947 1607.07 234.836L1610.48 234.186C1616.17 233.283 1652.77 223.439 1679.54 216.22L1705.71 209.13C1707.24 208.814 1708.8 208.375 1710.35 207.816L1711.84 207.827C1757.24 194.947 1838.64 174.507 1892.8 174.882L1902.01 174.945C1914.93 168.034 1968.43 182.405 1970.77 182.96C1970.77 182.96 1914.79 168.033 1902.47 174.814L1893.27 174.75C1839.11 174.376 1757.33 195.351 1712.29 208.368L1710.8 208.358L1706.02 209.671L1680.04 216.627C1653.27 223.847 1616.48 233.824 1610.79 234.727L1607.67 234.706C1565.2 241.817 1525 248.674 1497.74 244.85L1494.63 244.829L1491.94 244.137L1371.76 220.688C1349.35 209.763 1262.59 229.088 1210.57 247.846L1095.58 290.537C1079.24 296.886 926.491 349.278 912.078 350.256L861.382 364.714C835.969 372.549 810.754 378.236 786.095 381.696C779.864 382.595 705.144 397.023 696.859 399.523L498.477 445.676Z" fill="url(#paint23_linear_2193_1193)"/>
</g>
<g opacity="0.61">
<path d="M498.506 445.957L697.472 400.251C704.308 397.986 780.302 382.997 787.102 382.091C811.612 378.504 836.667 372.614 861.885 364.511L912.848 349.354C925.77 348.489 1083.46 293.396 1096.62 288.454L1211.54 246.262C1262.15 228.112 1349.02 208.437 1373.88 220.161L1492.6 248.152L1495.87 248.174L1498.86 248.194C1525.46 252.996 1566.14 245.927 1609.23 238.331L1611.95 238.349C1616.84 237.431 1652.95 227.34 1679.27 220.039C1693.66 216.057 1704.98 212.87 1707.53 212.343L1711.72 211.148L1713.63 211.161C1793.88 187.499 1863.21 176.272 1904.23 180.219C1907.24 179.039 1910.23 178.543 1912.89 178.781C1933.84 180.994 1953.79 185.04 1972.52 190.875C1953.49 185.432 1933.3 181.749 1912.16 179.864C1909.65 179.545 1906.77 180.048 1903.9 181.304C1898.73 181.27 1893.29 181.233 1887.57 181.195C1831.7 183.348 1772.91 194.008 1713.34 212.79L1711.43 212.777L1707.18 214.108C1704.87 214.093 1693.31 217.822 1678.92 221.804C1652.6 229.105 1616.9 239.198 1611.66 239.979L1608.94 239.961C1565.85 247.557 1525.17 254.625 1498.44 249.823C1498.44 249.823 1497.21 249.815 1495.46 249.123L1492.33 249.102L1373.34 221.109C1348.73 209.115 1262.13 228.791 1212.09 247.218L1097.87 288.734C1084.7 293.676 926.684 348.903 913.898 349.769L863.072 364.927C837.815 372.95 812.723 378.838 788.152 382.506C781.76 383.415 705.222 398.4 698.58 400.531L498.506 445.957Z" fill="url(#paint24_linear_2193_1193)"/>
</g>
<g opacity="0.6">
<path d="M498.757 446.225L698.171 400.948C704.424 398.79 783.747 383.232 788.136 382.574C812.786 378.808 837.968 372.664 863.28 364.241L914.444 348.499C924.905 347.743 1084 291.76 1098.52 286.221L1213.08 244.238C1264.67 225.201 1349.34 206.38 1375.42 219.328L1493.79 250.466L1496.72 251.31L1499.38 252.152C1525.51 257.818 1566.74 250.393 1610.33 242.571L1612.51 242.585C1616.69 241.788 1652.5 231.579 1678.69 224.056L1708.43 215.593L1712.78 214.385L1714.55 214.397C1771.6 196.257 1827.91 186.142 1881.35 184.433C1889.51 184.429 1897.44 184.94 1905.11 185.962C1907.25 185.177 1909.36 184.86 1911.25 185.04C1909.46 184.933 1907.5 185.249 1905.52 185.965C1864.41 180.063 1794.93 190.464 1715.43 214.265L1713.52 214.253L1709.25 215.599L1679.57 223.924C1653.38 231.447 1617.23 241.791 1613.25 242.452L1611.07 242.438C1566.66 250.255 1526.25 257.685 1499.91 251.88L1497.11 251.037L1494.31 250.195L1375.19 219.877C1348.91 207.064 1264.38 225.886 1214.11 244.382L1099.62 286.228C1086.22 291.362 926.74 347.617 915.343 348.642L864.316 364.385C838.958 372.794 813.732 378.937 789.035 382.717C784.647 383.376 705.323 398.934 699.128 400.954L498.757 446.225Z" fill="url(#paint25_linear_2193_1193)"/>
</g>
<g opacity="0.58">
<path d="M498.812 446.364L698.411 401.705C703.075 400.074 784.048 383.85 788.528 383.326C813.247 379.337 838.469 372.96 863.791 364.298L915.285 347.886C924.346 347.252 1089.81 288.123 1099.44 284.449L1214 242.29C1271.64 221.351 1349.93 206.632 1376.11 219.391L1493.26 254.454L1496.29 255.442L1499.23 255.322C1524.92 261.989 1566.5 254.231 1610.52 246.21L1612.44 246.223C1615.59 246.243 1651.75 234.99 1678.05 227.272L1709.25 218.34L1713.66 216.984L1715.44 216.996C1794.08 193.147 1865.12 183.64 1906.11 190.543C1907.45 190.263 1908.72 190.271 1909.81 190.567C1932.05 194.1 1953.2 199.51 1973.07 206.745C1952.63 199.696 1912.42 187.263 1906.05 190.681C1865.54 182.951 1794.31 192.595 1715.87 216.307L1714.22 216.296L1709.67 217.651C1707.89 217.639 1695.15 221.847 1678.53 226.445C1650.76 234.707 1615.89 244.861 1612.92 245.396L1611 245.383C1566.37 253.538 1525.26 261.162 1499.38 254.631L1496.62 255.305L1493.33 255.284L1376.6 219.532C1350.61 206.637 1272.46 221.356 1214.96 242.296L1100.4 284.455C1090.44 288.266 924.952 347.118 915.467 348.44L864.305 364.717C838.928 373.487 813.648 379.866 788.904 383.743C784.23 384.405 703.257 400.629 698.788 402.122L498.812 446.364Z" fill="url(#paint26_linear_2193_1193)"/>
</g>
<g opacity="0.56">
<path d="M498.917 446.553L699.122 402.207C702.855 400.835 785.657 384.202 789.462 383.668C814.275 379.585 839.6 372.963 864.987 363.921L916.48 346.952C923.359 346.995 1090.41 286.266 1101 282.288L1215.58 239.916C1273.37 218.664 1349.75 204.918 1377.58 218.479L1493.66 257.692C1494.72 257.883 1495.7 258.217 1496.57 258.687L1499.39 259.541C1523.94 266.946 1566.65 258.986 1611.03 250.618L1612.55 250.627C1615.02 250.643 1650.98 239.294 1676.92 231.508L1708.47 221.805C1709.82 221.543 1711.2 221.13 1712.56 220.575L1714.91 219.893C1793.71 195.843 1864.55 187.222 1905.31 196.82C1906.15 196.642 1906.95 196.647 1907.65 196.835C1930.46 201.197 1952.27 207.25 1972.92 214.953C1952.67 206.848 1931.17 200.469 1908.59 195.865C1908.01 195.656 1907.29 195.651 1906.53 195.852C1865.97 186.116 1794.69 195.152 1716.47 218.787L1713.92 219.608L1709.84 220.837L1678.34 230.401C1650.79 238.735 1616.47 249.118 1613.77 249.659L1612.26 249.649C1567.46 258.015 1525.72 265.981 1500.39 258.432C1499.33 258.241 1498.36 257.907 1497.49 257.437L1494.73 256.444L1378.24 218.902C1350.77 204.785 1274.3 219.088 1216.7 240.202L1101.99 282.573C1091.48 286.691 925.18 346.588 917.41 347.376L866.054 364.346C840.634 373.345 815.282 379.919 790.449 383.953C786.312 384.624 703.648 401.259 700.109 402.492L498.917 446.553Z" fill="url(#paint27_linear_2193_1193)"/>
</g>
<g opacity="0.55">
<path d="M499.031 446.775L699.496 402.672C703.042 401.427 790.088 383.941 790.088 383.941C814.99 379.75 840.399 372.917 865.835 363.57L917.39 345.867C922.776 345.9 1100.5 280.546 1102.16 279.852L1216.91 237.198C1248.07 225.711 1279.19 217.763 1309.48 213.552C1334.87 208.832 1358.65 210.138 1378.69 217.352L1493.91 260.281C1494.98 260.473 1495.96 260.81 1496.83 261.284L1499.55 262.427C1523.84 270.879 1566.67 262.835 1611.63 253.96L1612.87 253.968C1614.67 253.979 1648.82 243.067 1676.07 234.506L1709.8 224.296L1713.95 222.913L1716.31 222.224C1795.35 197.792 1865.96 190.199 1906.68 201.848L1907.92 201.856C1930.64 207.577 1952.44 214.76 1973.2 223.367L1972.91 224.069C1952.38 215.184 1930.66 207.904 1907.89 202.278L1906.92 202.272C1893.2 198.516 1878.32 196.677 1862.61 196.794C1815.95 197.66 1766.65 206.35 1716.75 222.508L1714.53 223.198L1709.46 225.138L1676.14 235.351C1648.89 243.912 1614.85 254.543 1612.89 254.953L1611.65 254.946C1566.66 263.539 1524.14 271.866 1499.35 263.27L1496.43 262.267L1493.71 261.124L1378.35 218.194C1358.42 211.047 1334.78 209.742 1309.55 214.397C1279.27 218.597 1248.15 226.545 1216.99 238.043L1102.93 280.701C1101.27 281.395 924.376 346.051 917.961 346.856L866.601 364.419C841.114 373.831 815.651 380.666 790.716 384.789C790.716 384.789 703.118 402.272 700.124 403.521L499.031 446.775Z" fill="url(#paint28_linear_2193_1193)"/>
</g>
<g opacity="0.53">
<path d="M499.157 447.023L699.44 403.964C701.856 403.125 790.241 385.154 790.991 385.016C815.992 380.775 841.52 373.666 867.016 363.843L918.711 345.512C922.316 345.534 1101.92 278.739 1103.59 278.037L1219.18 234.052C1285.84 209.124 1352.48 201.551 1381.11 215.662L1495.04 264.133L1498.01 265.431L1500.67 266.443C1524.71 275.974 1567.92 266.84 1613.07 258.429L1613.9 258.434C1615.15 258.441 1648.82 247.402 1675.86 238.742C1694.77 232.737 1709.76 227.846 1710.64 227.709L1714.95 226.312L1716.89 226.324C1795.53 201.325 1866.77 194.775 1907.39 208.814C1914.46 208.856 1966.9 230.646 1973.11 233.244C1949.23 223.287 1913.21 208.848 1907.67 208.815C1867.22 194.351 1795.95 201.327 1717.44 226.327L1715.5 226.315L1711.06 227.712L1676.42 238.745C1647.91 247.966 1615.62 258.302 1614.26 258.578L1613.43 258.574C1568.14 267.695 1525.02 276.26 1500.69 266.727L1497.81 265.572L1495.04 264.133L1380.58 216.654C1352.2 202.261 1285.86 210.12 1219.06 235.047L1104.84 278.045C1103.45 278.036 925.646 344.842 919.626 345.66L868.126 363.849C842.629 373.672 817.102 380.782 792.1 385.023C788.772 385.003 702.16 403.411 701.243 403.975L499.157 447.023Z" fill="url(#paint29_linear_2193_1193)"/>
</g>
<g opacity="0.52">
<path d="M499.241 447.185L699.489 405.294C700.602 405.301 790.49 386.305 791.38 386.167C816.404 381.884 841.962 374.558 867.436 364.365L919.29 345.294C921.933 345.31 1102.63 277.193 1104.3 276.485L1218.62 233.238C1250.15 221.224 1281.67 213.333 1312.18 209.816C1337.39 206.189 1360.83 208.489 1380.55 216.523L1494.03 268.114L1496.87 269.421L1499.43 270.727C1523.26 281.195 1566.4 272.405 1612.12 263.055L1675.97 242.188L1709.64 231.19L1713.62 229.922L1716.04 229.075C1795.62 203.563 1866.33 198.088 1906.74 214.391C1910.91 214.415 1953.6 233.457 1972.34 241.6C1954.91 234.038 1909.8 214.408 1906.87 214.392C1866.7 198.234 1795.56 203.706 1716.73 229.079L1714.31 229.926L1710.2 231.193L1676.52 242.191L1612.68 263.058C1567.24 272.409 1523.4 281.196 1499.71 270.729L1497 269.422L1494.16 268.114L1381.33 215.954C1361.76 207.918 1338.44 205.618 1313.37 209.249C1283.11 212.887 1251.88 220.777 1220.65 232.676L1106.33 275.923C1104.93 275.915 926.131 343.468 921.181 344.731L869.466 363.803C843.943 373.979 818.342 381.304 793.271 385.604L701.38 404.731L499.241 447.185Z" fill="url(#paint30_linear_2193_1193)"/>
</g>
<g opacity="0.5">
<path d="M499.359 447.421L792.685 385.714C817.908 380.426 843.442 372.868 868.942 363.143L1220.52 230.596C1287.69 205.081 1349.77 199.21 1382.33 215.45L1499.9 273.973C1523.47 285.533 1565.36 282.731 1613.15 266.654L1709.54 233.782C1792.09 205.316 1865.54 200.811 1906.46 220.425L1972.94 249.296L1907.6 219.998C1866.6 200.962 1793.02 206.189 1711.1 233.357L1614.71 266.229C1566.59 282.448 1523.64 285.1 1501.04 273.545L1383.47 215.022C1351.14 198.929 1289.53 204.657 1222.28 230.027L869.001 363.722C843.453 373.426 817.875 380.983 792.605 386.292L499.359 447.421Z" fill="url(#paint31_linear_2193_1193)"/>
</g>
<path d="M494.402 437.398L684.393 373.862L924.315 275.055C981.26 250.987 1041.44 238.015 1099.82 237.225L1102.93 237.265L1202.79 239.627C1304.01 241.472 1407.31 234.248 1511.08 218.066C1570.07 208.88 1629.07 196 1687.58 179.533C1708.95 173.485 1730.74 166.845 1752.18 159.962C1816.83 138.901 1880.47 113.789 1942.5 84.8567C1880.48 113.836 1816.85 138.949 1752.18 159.962C1730.71 166.964 1708.92 173.604 1687.58 179.533C1628.94 196.12 1569.8 209.001 1510.68 218.061C1412.42 233.627 1314.55 241.236 1218.41 240.782L1202.55 240.578L1102.72 238.098L1099.61 238.058C1041.25 238.853 981.1 251.868 924.211 276.008L684.439 374.221L494.402 437.398Z" fill="url(#paint32_linear_2193_1193)"/>
<path d="M494.437 437.461L555.66 416.097C556.986 415.156 682.073 373.299 683.114 372.953L707.087 363.203C733.307 352.644 753.496 344.402 754.944 344.062L922.261 277.244C951.608 265.806 981.578 256.493 1011.81 249.418C1043.03 241.74 1074.48 237.435 1105.36 236.61L1107.26 236.634L1210.76 235.806C1215.65 235.869 1221.36 235.942 1226.92 236.014L1236.57 236.137L1244.85 236.244L1249.34 236.301L1277.96 235.711L1289.64 235.86L1300.51 236L1327.86 235.632C1366.13 235.165 1409.86 234.649 1447.72 230.944L1454.96 230.318C1464.47 229.363 1474.21 228.53 1484.22 227.221C1498.28 225.486 1512.46 223.273 1526.67 220.941C1583.91 211.932 1641.14 199.298 1697.89 183.148C1717.52 177.653 1738.5 171.696 1760.44 164.075C1822.93 143.018 1884.39 118.108 1944.27 89.5671C1884.27 117.885 1822.7 142.514 1760.11 163.233C1738.29 170.376 1717.35 176.693 1697.55 182.306C1640.81 198.442 1583.57 211.076 1526.34 220.099C1512.12 222.431 1497.94 224.644 1483.88 226.379C1473.88 227.687 1464.13 228.52 1454.63 229.476L1447.52 230.103C1409.26 233.803 1365.79 234.323 1327.52 234.79L1300.18 235.157L1289.18 235.016L1277.49 234.866L1249 235.459L1244.38 235.4L1236.1 235.293L1226.45 235.17L1211.79 234.981L1210.29 234.962L1106.83 235.671L1104.92 235.646C1074.13 236.845 1042.84 241.473 1011.81 249.418C981.838 256.611 952.136 265.965 923.046 277.374L754.884 344.3C754.069 344.29 726.901 355.914 707.269 363.565L683.16 373.313C682.209 373.3 557.635 415.284 555.706 416.456L494.437 437.461Z" fill="url(#paint33_linear_2193_1193)"/>
<path d="M494.466 437.527L554.517 415.825C557.641 413.702 680.2 372.492 681.243 372.145C682.286 371.798 692.892 367.608 705.478 362.602C731.284 352.238 751.046 344.2 752.74 343.981L919.035 279.659C949.557 268.369 980.553 258.847 1011.79 251.166C1044.24 242.93 1076.96 237.863 1109.26 236.069L1110.48 236.085L1217.59 232.165C1221.95 232.22 1227.4 232.29 1232.92 231.519L1243.85 230.938L1252.16 231.044L1257.06 231.107C1267.27 231.237 1277.32 230.404 1286.66 230.163L1309.95 230.46C1324.25 230.642 1340.99 230.856 1358.69 231.082C1392.48 232.604 1426.73 232.4 1461.29 230.469L1470.9 229.75C1479.93 229.145 1489.26 228.423 1498.85 227.223C1512.94 225.481 1528 223.15 1542.61 220.453C1597.94 211.509 1653.25 199.163 1708.09 183.515C1726.01 178.457 1746.88 171.995 1768.58 164.943C1828.85 144.968 1888.16 121.345 1946.02 94.2754C1887.87 121.382 1828.24 144.963 1767.66 164.811C1745.96 171.863 1725.09 178.325 1707.16 183.383C1652.32 199.015 1597.02 211.36 1541.68 220.321C1527.35 223.021 1512.29 225.352 1497.9 227.211C1488.34 228.291 1479.01 229.013 1469.98 229.618L1461.29 230.469C1427.55 232.172 1394.11 232.227 1361.13 230.632C1343.43 230.406 1326.83 229.594 1312.38 230.01L1288.55 229.706L1258.95 230.65L1254.05 230.587L1245.74 230.481L1234.94 231.065C1229.5 230.995 1223.84 231.764 1219.48 231.708L1112.34 235.748L1111.12 235.732C1078.86 237.538 1046.19 242.605 1013.78 250.831C982.59 258.493 951.637 268.017 921.167 279.326L754.872 343.648C753.782 343.634 727.04 354.466 707.61 362.269C694.556 367.509 684.252 371.583 683.375 371.812C682.498 372.041 651.186 382.575 619.814 393.349C580.871 406.549 557.947 414.667 556.649 415.492L494.466 437.527Z" fill="url(#paint34_linear_2193_1193)"/>
<path d="M494.505 437.595L554.8 415.328C559.201 412.49 673.233 373.42 680.897 371.226C681.989 371.24 692.238 366.908 704.078 362.235C724.563 354.174 749.679 344.002 752.196 343.792L918.179 281.867C949.823 270.664 981.849 261.004 1014.09 252.937C1047.63 243.809 1081.54 237.927 1115.11 235.408L1115.92 235.418L1227.24 228.27C1232.52 228.102 1237.84 227.646 1243.19 226.905L1254.51 225.963L1262.98 226.071L1268.16 226.136C1279.29 225.434 1289.27 224.957 1298.75 224.836C1303.93 224.902 1308.85 224.965 1313.63 225.025L1322.77 225.141C1338.33 225.339 1358.21 226.918 1379.31 228.512C1410.41 231.543 1442.14 232.711 1474.29 232.009L1484.66 232.141C1493.69 231.653 1502.81 231.286 1512.56 230.083C1527.54 228.223 1542.66 225.762 1557.8 222.699C1611.18 213.847 1664.52 201.749 1717.4 186.498C1737.7 180.847 1760.46 173.539 1775.8 168.548C1834.24 148.815 1891.73 125.561 1947.79 98.9816C1891.62 125.147 1834.06 147.957 1775.59 167.219C1760.65 172.215 1737.48 179.518 1717.18 185.169C1664.31 200.456 1610.97 212.555 1557.58 221.37C1543.13 224.442 1527.15 227.013 1512.34 228.754C1502.6 229.957 1493.3 230.442 1484.45 230.812C1480.9 230.767 1477.49 230.723 1473.89 231.401C1441.76 232.051 1410.04 230.843 1378.94 227.784C1357.98 226.191 1338.62 224.74 1322.54 224.415L1314.21 224.309C1309.44 224.249 1304.39 224.185 1299.34 224.12C1289.92 224.001 1279.88 224.718 1268.75 225.42L1263.57 225.355L1255.06 225.97C1251.92 225.93 1248.1 225.882 1243.6 226.91C1238.23 227.492 1232.89 227.827 1227.6 227.913L1116.26 235.181L1115.3 235.169C1082 237.751 1048.37 243.636 1015.1 252.709C982.867 260.796 950.842 270.456 919.194 281.639L753.211 343.564C751.437 343.542 724.67 354.296 705.093 362.006C692.814 366.795 683.094 370.651 681.913 370.997C674.687 373.076 560.05 412.38 555.982 414.981L494.505 437.595Z" fill="url(#paint35_linear_2193_1193)"/>
<path d="M494.568 437.755L553.567 415.022C559.671 410.863 672.248 372.347 678.881 370.495L701.911 361.709C722.132 353.735 747.452 344.009 750.005 343.678L915.631 284.29C947.56 273.923 981.387 263.095 1014.73 254.802C1036.82 249.272 1095.19 234.639 1119.27 234.943L1121.05 234.966L1184.8 229.115L1235.34 224.549C1240.83 224.32 1246.37 223.784 1251.93 222.943C1256.45 223 1260.85 221.846 1263.75 221.761L1272.34 220.901L1277.95 220.972C1288.99 220.144 1299.57 219.551 1309.62 219.436C1315.09 219.505 1320.43 219.572 1325.49 219.636L1334.38 219.749C1349.98 219.946 1371.9 222.885 1395.25 225.601C1421.94 229.243 1449.11 231.646 1476.65 232.801L1487.18 232.934L1498.13 233.072C1507.35 232.938 1516.65 232.368 1526 231.367L1531.34 231.434C1545.04 230.241 1558.86 227.778 1572.54 224.088C1624.08 215.264 1675.55 203.459 1726.6 188.759C1741.39 184.467 1760.25 178.655 1782.82 171.194C1839.45 151.989 1895.17 129.392 1949.51 103.59C1895.27 128.734 1839.75 150.763 1783.37 169.507C1760.83 176.847 1741.8 182.778 1727.05 186.949C1675.96 201.719 1624.43 213.524 1572.85 222.277C1559.22 226.024 1545.44 228.489 1531.78 229.624L1526.13 230.279C1516.78 231.299 1507.48 231.828 1498.29 231.864L1487.34 231.726C1484.06 231.684 1480.5 231.639 1476.81 231.593C1449.27 230.438 1422.1 228.035 1395.41 224.392C1372.06 221.677 1350.05 219.1 1334.51 218.661L1325.62 218.549C1320.56 218.485 1315.22 218.418 1309.75 218.348C1299.9 218.224 1289.12 219.056 1278.05 220.005L1272.57 219.936C1269.66 220.308 1266.76 220.554 1263.88 220.674C1261.01 220.637 1256.7 221.43 1252.17 221.978C1246.57 222.787 1240.99 223.282 1235.47 223.461L1121.12 234.12L1119.89 234.104C1095.94 233.802 1037.6 248.314 1015.51 253.844C982.28 262.259 948.346 272.964 916.553 283.334L751.129 343.572C748.666 343.541 722.317 354.1 703.035 361.602C691.036 366.291 681.63 369.924 680.006 370.388C673.372 372.24 560.932 410.758 554.858 414.796L494.568 437.755Z" fill="url(#paint36_linear_2193_1193)"/>
<path d="M494.61 437.825L553.22 414.262C560.61 409.374 667.381 372.323 677.755 369.295C679.538 369.317 689.248 365.065 700.33 360.831C720.366 353.185 745.815 343.664 748.648 343.335L913.961 286.366L930.934 281.112C959.056 272.475 987.922 263.604 1016.4 256.308L1022.55 254.806C1051.06 247.388 1103.91 233.837 1123.94 234.089L1189.8 226.412L1241.91 220.384C1247.69 220.053 1253.52 219.355 1259.34 218.295C1264.05 217.625 1268.62 216.953 1271.42 216.746C1274.33 216.545 1277.26 216.217 1280.19 215.762L1286.13 215.108C1297.14 213.945 1308.1 213.271 1318.96 213.09L1321.56 213.123C1326.36 213.183 1331.03 213.242 1335.28 213.295L1343.92 213.404C1359.28 213.597 1382.86 217.902 1407.89 221.862C1435.97 227.074 1464.8 230.601 1494.18 232.422L1498.98 232.482L1510.09 232.622C1519.75 232.804 1529.55 232.399 1539.42 231.411L1542.3 231.447C1557.34 230.141 1572.5 227.398 1587.51 223.267C1637.17 214.573 1686.75 203.018 1735.91 188.683C1753.07 183.796 1774.95 177.025 1790.14 171.748C1844.82 153.764 1898.67 132.554 1951.27 108.287C1899.04 132.535 1845.55 153.75 1791.24 171.762C1776.25 176.798 1754.26 183.447 1736.98 188.818C1687.81 203.097 1638.23 214.651 1588.57 223.402C1573.53 227.545 1558.32 230.288 1543.23 231.58L1540.49 231.546C1530.57 232.53 1520.73 232.934 1511.02 232.755L1499.91 232.615C1468.78 231.274 1438.31 227.763 1408.79 222.116C1387.88 218.294 1366.53 215.471 1344.82 213.658L1336.04 213.548C1331.52 213.491 1326.85 213.433 1322.33 213.376L1320.13 213.348C1310.12 213.222 1299.02 214.176 1287.47 215.246L1281.37 216.02C1278.62 215.986 1275.53 216.797 1272.59 217.003C1268.59 217.307 1264.55 217.825 1260.52 218.553C1254.7 219.583 1248.88 220.241 1243.11 220.521L1125.12 234.347C1104.81 234.092 1051.96 247.642 1023.75 254.942L1017.58 256.566C989.264 263.742 960.231 272.733 932.246 281.372L915.303 286.505L749.989 343.474C746.972 343.436 720.933 353.678 701.946 360.973C690.393 365.444 681.136 368.973 679.204 369.556C669.134 372.467 562.06 409.635 554.836 414.404L494.61 437.825Z" fill="url(#paint37_linear_2193_1193)"/>
<path d="M494.649 437.896L552.55 414.224C561.791 407.996 666.511 371.612 676.297 368.807C678.537 368.103 687.647 364.68 698.279 360.665C714.291 354.269 730.513 348.527 746.881 343.463L911.852 289.047L948.128 278.278C970.885 271.487 994.388 264.462 1017.49 258.53L1029.59 255.265C1058.06 247.692 1110.87 233.592 1128.74 233.816L1250.4 216.794C1256.38 216.366 1262.4 215.503 1268.41 214.214C1273.46 213.301 1278.2 212.506 1280.87 212.296C1283.55 212.085 1286.96 211.64 1289.97 211.189L1296.12 210.29C1307.41 208.911 1318.65 208.155 1329.77 208.027C1335.71 208.068 1341.56 208.426 1347.3 209.1L1355.83 209.206C1378.37 211.833 1400.48 215.571 1422.06 220.402C1451.28 227.317 1481.61 231.979 1512.73 234.342L1524.01 234.483C1533.93 234.958 1544.05 234.717 1554.25 233.763C1570.78 232.38 1587.45 229.313 1603.92 224.625C1651.64 216.061 1699.26 204.797 1746.47 190.909C1762.95 186.114 1786.16 178.597 1798.61 174.483C1850.99 156.896 1902.59 136.346 1953.03 112.983C1903.13 136.386 1852.02 156.945 1800.12 174.502C1787.67 178.616 1764.57 186.256 1747.98 190.928C1700.76 204.856 1653.13 216.16 1605.4 224.765C1588.95 229.466 1572.28 232.494 1555.76 233.782C1545.51 234.771 1535.34 235.052 1525.35 234.622L1511.6 234.45C1481.11 231.859 1451.35 227.205 1422.58 220.53C1401.01 215.68 1378.9 211.943 1356.35 209.335L1347.82 209.228C1342.8 208.623 1337.68 208.274 1332.49 208.183L1330.43 208.157C1319.31 208.296 1308.07 209.052 1296.78 210.421L1290.63 211.32C1287.74 211.284 1284.62 212.22 1281.53 212.426C1278.45 212.631 1274.11 213.431 1269.06 214.344C1263.06 215.584 1257.05 216.406 1251.09 216.803L1129.24 233.456C1111.51 233.234 1058.72 247.213 1030.23 254.907L1018.16 258.05C995.027 264.104 971.524 271.129 948.767 277.92L912.52 288.567L747.52 343.105C731.177 348.09 714.997 353.833 699.056 360.309C687.981 364.44 679.176 367.745 676.936 368.449C635.282 381.837 594.035 396.955 553.356 413.746L494.649 437.896Z" fill="url(#paint38_linear_2193_1193)"/>
<path d="M494.691 437.975L552.085 413.333C592.465 396.073 633.529 380.715 675.064 367.336C677.585 366.633 686.407 363.313 696.726 359.521C712.735 353.147 728.996 347.581 745.416 342.855L910.104 290.762C926.666 286.313 944.064 281.262 960.882 276.327C977.699 271.391 999.676 264.56 1018.95 259.777L1035.4 255.205C1066.57 245.793 1117.48 231.972 1133.47 232.171L1259.05 211.438C1265.23 210.893 1271.44 209.863 1277.63 208.361C1282.99 207.325 1288.08 206.286 1290.49 206.071C1293.58 205.809 1296.69 205.356 1299.8 204.717L1306.27 203.695C1317.93 202.179 1329.54 201.342 1341.03 201.187L1342.68 201.207C1348.24 201.347 1353.73 201.742 1359.13 202.392L1367.47 203.352C1390.92 206.775 1413.84 211.435 1436.12 217.311C1465.18 225.389 1495.46 231.173 1526.65 234.603L1527.48 234.613L1538.23 234.747C1548.51 235.365 1559 235.208 1569.59 234.279C1586.62 232.84 1603.8 229.598 1620.73 224.625C1638.32 219.944 1659.24 215.182 1681.47 210.191C1707.95 204.151 1735.3 197.999 1757.43 191.659C1772.22 187.678 1791.66 181.06 1806.24 176.22L1807.34 176.233C1857.32 159.412 1906.59 139.849 1954.79 117.679C1906.51 140.007 1857.13 159.653 1807.01 176.474L1806.04 176.462C1791.05 181.298 1771.24 188.279 1757.2 192.024C1734.93 198.361 1707.59 204.514 1681.1 210.554C1658.88 215.545 1637.27 220.298 1620.37 224.988C1603.44 229.975 1586.26 233.217 1569.23 234.642C1558.59 235.571 1548.05 235.727 1537.73 235.108L1526.98 234.974L1526.15 234.964C1494.91 231.536 1464.58 225.752 1435.48 217.67C1413.24 211.968 1390.37 207.472 1366.98 204.204L1358.61 203.365C1353.25 202.613 1347.77 202.177 1342.2 202.059L1340.55 202.038C1329.06 202.199 1317.45 203.037 1305.79 204.546L1299.46 205.57C1296.35 206.209 1293.24 206.662 1290.14 206.924C1287.8 206.895 1282.65 208.179 1277.28 209.214C1271.1 210.705 1264.88 211.734 1258.7 212.291L1133.49 232.661C1117.63 232.464 1066.23 246.646 1035.54 255.207L1018.95 259.777C999.755 264.806 979.944 270.684 960.911 276.205C941.878 281.725 926.804 286.315 910.242 290.764L745.554 342.857C729.133 347.577 712.871 353.143 696.864 359.523C686.21 363.555 677.861 366.636 675.202 367.338C633.788 380.752 592.831 396.069 552.528 413.216L494.691 437.975Z" fill="url(#paint39_linear_2193_1193)"/>
<path d="M494.728 438.057L551.546 412.682C563.271 404.832 657.584 371.064 673.548 366.341C676.518 365.517 684.883 362.422 694.611 358.852C710.8 352.511 727.253 347.044 743.861 342.486L908.202 292.978C928.567 287.818 949.977 281.194 970.598 275.545C986.838 270.825 1003.83 265.869 1020.42 261.4L1039.77 255.857C1071.33 246.776 1123.87 232.296 1138.11 232.471L1210.62 219.099L1267.57 208.732C1274 207.977 1280.45 206.782 1286.86 205.157C1292.41 203.995 1297.68 202.83 1299.95 202.612C1302.22 202.394 1306.29 201.584 1309.48 201.008L1316.13 199.86C1328.14 198.065 1340.1 197.061 1351.92 196.858L1353.58 196.878C1359.43 197.069 1365.18 197.592 1370.8 198.444L1379.14 199.531C1403.09 203.425 1426.46 208.642 1449.12 215.155C1478.25 224.472 1508.77 231.392 1540.34 235.838L1551.81 235.979C1562.33 237.082 1573.16 237.215 1584.15 236.378C1601.68 234.919 1619.36 231.499 1636.76 226.204C1652.91 221.852 1672.88 217.179 1694.16 212.275C1720.15 206.2 1746.86 200.011 1767.84 193.997C1780.03 190.581 1797.84 184.527 1811.33 180.266L1815.72 178.721C1863.45 162.448 1910.48 143.593 1956.5 122.28C1910.36 143.769 1863.2 162.788 1815.33 179.208L1810.97 180.63C1797.72 185.018 1779.63 191.068 1767.42 194.607C1746.6 200.5 1719.98 206.321 1693.76 212.763C1672.63 217.668 1652.49 222.462 1636.37 226.691C1618.92 232.038 1601.17 235.499 1583.58 236.986C1572.61 237.765 1561.78 237.631 1551.25 236.587L1539.78 236.446C1507.97 231.924 1477.18 225.003 1447.73 215.752C1425.05 208.762 1401.59 203.131 1377.49 198.896L1370.09 197.943C1364.54 197.031 1358.82 196.508 1353 196.379L1351.48 196.361C1339.68 196.52 1327.72 197.483 1315.73 199.24L1309.08 200.388C1305.9 201.099 1302.72 201.635 1299.54 201.992C1297.33 201.965 1292 203.375 1286.46 204.537C1280.05 206.222 1273.6 207.418 1267.17 208.112L1138.25 231.858C1124.44 231.688 1071.33 246.776 1039.74 255.98L1020.42 261.4C1003.83 265.869 986.976 270.827 970.598 275.545C949.997 281.686 928.685 287.327 908.34 292.98L743.999 342.488C727.45 347.118 711.049 352.584 694.887 358.856C685.16 362.426 676.656 365.519 673.824 366.345C657.861 371.068 563.715 404.714 551.822 412.685L494.728 438.057Z" fill="url(#paint40_linear_2193_1193)"/>
<path d="M494.767 438.134L550.975 412.137C564.228 403.158 654.248 370.534 672.162 365.318C675.306 364.368 683.352 361.502 692.456 358.278C708.825 351.948 725.472 346.579 742.271 342.21L905.56 294.796C928.966 289.276 953.752 282.044 977.786 275.05C991.974 270.9 1006.61 266.632 1020.76 263.222L1043.27 256.209C1075.46 246.474 1129.46 230.334 1142.34 230.492L1274.96 203.333C1281.54 202.465 1288.13 201.141 1294.66 199.374C1299.14 198.207 1303.64 197.231 1308.14 196.451C1311.38 196.063 1314.63 195.484 1317.86 194.717C1320.08 194.744 1322.42 193.661 1324.73 193.319C1337.1 191.324 1349.45 190.236 1361.63 190.065L1363.01 190.082C1369.16 190.294 1375.19 190.905 1381.06 191.909L1389.41 193C1410.45 197.61 1430.8 203.556 1450.34 210.797C1487.44 223.606 1529.53 236.477 1549.06 236.717L1553.08 236.766C1567.43 239.575 1582.72 240.097 1598.29 238.309C1616.4 236.448 1634.63 232.517 1652.48 226.619C1667.3 222.724 1686.04 218.136 1706.08 213.316C1731.71 207.206 1758.09 200.859 1777.62 195.291C1787.91 192.329 1803.61 187.086 1816.3 182.794L1823.23 180.531C1868.97 165.044 1914.07 147.151 1958.25 126.963C1913.98 147.275 1868.8 165.331 1822.98 181.022L1816.02 183.408C1803.35 187.577 1787.66 192.82 1777.34 195.288C1757.82 200.855 1731.46 207.08 1705.91 213.438C1685.87 218.257 1666.88 222.719 1652.31 226.741C1634.51 232.63 1616.34 236.521 1598.29 238.309C1582.79 240.442 1567.51 240.255 1553.12 237.755C1551.76 237.874 1550.41 237.857 1549.11 237.706C1529.43 237.464 1487.55 223.731 1450.1 211.782C1430.65 204.576 1410.38 198.672 1389.42 194.112L1380.96 192.896C1375.14 191.893 1369.15 191.283 1363.05 191.071L1361.67 191.054C1349.55 191.11 1337.24 192.2 1324.91 194.309L1318.21 195.586C1314.93 196.34 1311.64 196.918 1308.35 197.318C1303.89 198.088 1299.44 199.064 1295.01 200.243C1288.38 202.042 1281.69 203.406 1275.01 204.322L1142.24 231.479C1129.5 231.323 1075.67 247.341 1043.34 257.075L1021.22 263.599C1006.4 267.494 991.491 271.759 978.114 275.424C954.079 282.419 929.293 289.651 905.888 295.17L742.599 342.585C725.842 346.938 709.239 352.308 692.923 358.654C683.819 361.878 675.772 364.745 672.628 365.694C654.714 370.911 564.862 403.413 551.579 412.515L494.767 438.134Z" fill="url(#paint41_linear_2193_1193)"/>
<path d="M494.816 438.222L550.75 410.73C565.674 400.61 652.885 368.66 671.143 363.297C674.571 362.346 682.019 359.706 690.666 356.709C707.072 350.587 723.741 345.44 740.543 341.306L904.239 296.884C930.282 290.995 958.101 282.895 985.027 275.032C997.431 271.459 1010.31 267.645 1022.96 264.2C1027.28 263.011 1036.01 260.263 1047.13 256.8C1080.34 246.531 1135.93 229.336 1147.46 229.477L1283.8 198.869C1290.73 197.861 1297.66 196.326 1304.52 194.281C1310.87 192.745 1316.22 191.321 1318.23 191.097C1321.54 190.683 1324.87 190.017 1328.17 189.109C1330.39 189.136 1332.87 188.049 1335.32 187.706C1348.03 185.459 1360.72 184.242 1373.23 184.073L1374.48 184.088C1380.94 184.262 1387.26 184.962 1393.35 186.18L1401.69 187.398C1422.97 192.786 1443.54 199.463 1463.28 207.387C1501.7 221.631 1546.27 237.564 1564.47 237.786L1567.52 237.824C1581.95 241.028 1597.5 241.639 1613.34 239.623C1631.94 237.88 1650.68 233.932 1669.04 227.891C1682.13 224.327 1699.6 219.948 1718.24 215.335C1743.68 209.067 1769.87 202.56 1788.26 197.199C1797.38 194.58 1811.91 189.668 1823.68 185.219L1831.82 182.588C1875.21 167.743 1918.02 150.732 1960.01 131.651C1917.7 151.005 1874.56 168.261 1830.82 183.321L1822.64 186.076C1810.99 190.029 1796.46 194.941 1787.09 198.053C1768.72 203.29 1742.5 209.921 1717.23 216.067C1698.59 220.68 1680.99 225.058 1668.03 228.623C1649.62 234.641 1630.84 238.587 1612.19 240.354C1596.27 242.305 1580.64 241.694 1566.1 238.551L1563.04 238.514C1544.71 238.29 1500.69 222.364 1461.54 208.234C1441.92 200.2 1421.39 193.521 1400.1 188.248C1397.32 188.214 1394.58 187.436 1391.78 186.905C1385.88 185.819 1379.79 185.163 1373.58 184.946L1372.33 184.931C1359.87 185.101 1347.22 186.318 1334.56 188.566L1327.52 190.094C1324.15 190.797 1320.75 191.625 1317.3 192.079C1313.85 192.533 1309.81 193.725 1303.87 195.266C1297.01 197.246 1290.08 198.78 1283.15 199.854L1146.67 230.46C1135.28 230.321 1079.83 247.517 1046.62 257.786L1022.34 265.061L984.516 276.018C957.589 283.882 929.771 291.982 903.728 297.87L740.397 341.925C723.508 346.039 706.764 351.271 690.322 357.574L670.771 364.285C652.373 369.646 565.47 401.477 550.546 411.596L494.816 438.222Z" fill="url(#paint42_linear_2193_1193)"/>
<path d="M494.848 438.274L550.028 410.654C566.681 399.141 650.066 368.498 669.673 362.255C673.276 361.177 680.26 358.769 688.306 356.001C705.037 349.77 722.06 344.643 739.215 340.666L901.448 298.765C929.934 292.755 960.788 283.782 990.778 274.924L1023.75 265.852C1027.94 264.656 1037.71 261.659 1049.95 257.695C1086.4 245.675 1140.53 228.51 1151.66 228.645L1291.68 194.575C1298.73 193.315 1305.75 191.609 1312.7 189.471C1319.26 187.681 1324.93 186.13 1326.66 185.902C1329.85 185.294 1333.04 184.457 1336.18 183.4L1343.54 181.745C1356.58 179.266 1369.61 177.921 1382.45 177.73C1392.64 177.55 1402.47 178.847 1411.56 181.572C1422.97 181.71 1454.72 194.557 1488.28 207.426C1524.88 222.201 1562.48 237.487 1577.1 237.664L1579.32 237.691C1594.06 241.28 1610.04 242.108 1626.35 240.13C1645.39 238.538 1664.61 234.575 1683.4 228.36C1694.6 225.255 1710.17 221.331 1726.81 217.047C1751.32 210.739 1779.09 203.598 1796.6 198.576C1804.39 196.303 1817.44 191.85 1828.05 188.24L1837.91 184.87C1879.59 170.492 1920.71 154.095 1961.07 135.766C1920.71 154.155 1879.58 170.594 1837.88 184.994L1828.02 188.364C1817.41 191.974 1804.22 196.425 1796.6 198.576C1779.09 203.598 1751.93 210.497 1726.67 217.045L1683.4 228.36C1664.55 234.517 1645.3 238.478 1626.21 240.129C1609.81 242.103 1593.74 241.273 1578.91 237.686L1576.96 237.662C1562.06 237.482 1524.74 222.2 1487.86 207.421C1454.34 193.805 1422.56 181.705 1411.42 181.57L1410.59 181.56C1401.55 178.825 1391.76 177.528 1381.61 177.72C1368.82 177.912 1355.83 179.258 1342.85 181.736L1335.62 183.393C1332.16 184.289 1328.69 184.996 1325.21 185.51C1323.54 185.49 1317.65 187.413 1311.4 189.082C1304.86 191.564 1298.21 193.649 1291.51 195.321L1151.49 229.39C1141.19 229.266 1084.15 247.517 1050.08 258.32C1037.71 262.282 1028.04 265.405 1023.85 266.601L990.459 276.291C960.526 284.901 930.507 293.883 901.824 300.141L739.15 341.538C722.03 345.575 705.045 350.744 688.352 356.998C680.306 359.767 673.182 362.173 669.748 363.128C650.257 368.874 567.209 399.272 550.242 411.529L494.848 438.274Z" fill="url(#paint43_linear_2193_1193)"/>
<path d="M494.909 438.404L549.271 410.36C566.82 398.039 644.98 368.777 668.043 361.661L685.426 356.105C702.493 349.755 719.882 344.639 737.397 340.815L899.063 301.529C931.196 294.637 963.201 286.193 994.921 276.239L1024.89 267.702L1053.05 258.516C1090.28 246.432 1146.83 227.688 1156.05 227.799L1299.69 190.176C1306.94 188.725 1314.15 186.844 1321.29 184.545C1326.22 183.027 1331.19 181.748 1336.18 180.714C1339.68 180.112 1343.19 179.317 1346.66 178.334C1349.17 177.623 1351.69 177.025 1354.22 176.545C1367.63 173.806 1381.07 172.328 1394.29 172.139L1396.24 172.163C1405.99 172.131 1415.36 173.557 1423.96 176.381C1434.29 176.505 1467.24 190.812 1501.96 205.892C1540.14 222.392 1579.17 239.403 1592.16 239.559L1593.83 239.58C1608.73 243.808 1625.17 244.862 1641.97 242.665C1661.64 241.032 1681.48 236.836 1700.84 230.214L1734.28 221.218C1760.66 214.266 1790.66 206.231 1808.07 201.177C1814.81 199.253 1826.99 195.013 1836.87 191.623L1847.34 188.114C1886.64 174.198 1925.42 158.472 1963.5 141.013C1925.44 158.414 1886.71 174.138 1847.48 188.116L1837.01 191.624C1827.13 195.015 1814.95 199.254 1808.2 201.178C1790.8 206.232 1760.83 214.143 1733.58 221.209L1700.14 230.206C1680.8 236.628 1661 240.614 1641.42 242.032C1624.53 244.167 1608.02 243.114 1593 238.943L1591.46 238.925C1577.5 238.757 1539.44 221.757 1501.27 205.257C1466.54 190.177 1433.74 175.872 1424.11 175.756L1423.55 175.75C1414.38 172.805 1404.39 171.371 1394.02 171.51C1380.85 171.725 1367.47 173.16 1354.11 175.792L1346.67 177.707C1343.26 178.544 1339.67 179.503 1336.04 180.086C1331.28 181.109 1326.54 182.391 1321.85 183.926C1314.63 186.259 1307.32 188.14 1299.98 189.553L1156.19 227.174C1147.12 227.064 1088.47 246.41 1053.48 257.895C1039.84 262.368 1029.23 265.874 1025.35 266.955L995.345 275.618C963.552 285.897 931.464 294.715 899.227 302.032L737.56 341.318C720.11 345.151 702.782 350.225 685.758 356.485L668.404 361.916C645.399 368.782 567.46 398.297 549.772 410.617L494.909 438.404Z" fill="url(#paint44_linear_2193_1193)"/>
<path d="M494.963 438.499L548.937 409.294C568.752 395.676 643.602 367.224 666.791 360.322L681.964 355.339C699.474 349.001 717.3 343.946 735.236 340.232L896.456 303.491C930.91 296.644 965.245 287.925 999.253 277.388L1025.58 269.641C1029.06 268.549 1040.73 264.784 1054.92 259.79C1089.75 247.081 1125.05 236.187 1160.61 227.172L1308.11 185.985C1315.62 184.288 1323.08 182.19 1330.46 179.703C1337.53 177.646 1343.56 175.829 1345.43 175.599C1349.01 174.969 1352.58 174.128 1356.11 173.082C1358.68 172.286 1361.27 171.602 1363.88 171.034C1377.66 168.032 1391.49 166.464 1405.08 166.362L1406.76 166.382C1416.91 166.274 1426.63 167.842 1435.45 171.007C1444.68 171.117 1478.82 186.89 1514.85 203.568C1553.79 221.036 1594.37 239.909 1606.83 240.058L1608.22 240.074C1623.39 244.687 1640.22 245.965 1657.46 243.811C1677.53 242.034 1697.75 237.605 1717.44 230.673C1736 225.605 1794.26 209.55 1818.6 202.535C1824.46 200.842 1835.76 196.821 1844.91 193.655L1855.71 190.006C1892.73 176.808 1929.28 161.983 1965.22 145.594L1965.08 146.222C1928.87 162.526 1892.09 177.346 1854.86 190.625L1844.06 194.275C1834.92 197.44 1823.62 201.462 1817.76 203.155C1793.42 210.169 1735.02 226.223 1716.46 231.291C1696.67 238.246 1676.36 242.675 1656.2 244.426C1638.91 246.598 1622.02 245.32 1606.82 240.687L1606.68 240.686C1594.51 240.54 1553.76 221.791 1514.32 203.436C1478.26 186.884 1444.26 171.112 1435.17 171.003C1426.37 167.892 1416.7 166.326 1406.62 166.38L1404.94 166.36C1391.44 166.513 1377.71 168.082 1364.02 171.035C1361.41 171.585 1358.82 172.269 1356.25 173.084C1352.67 174.113 1349.05 174.953 1345.43 175.599C1344.03 175.583 1337.67 177.648 1330.46 179.703C1322.99 182.223 1315.43 184.321 1307.83 185.982L1160.75 227.174C1125.19 236.217 1089.9 247.111 1055.06 259.792C1040.61 264.657 1029.2 268.551 1025.58 269.641L999.533 277.391C965.68 288.124 931.484 297.054 897.152 304.129L735.792 340.868C717.782 344.57 699.876 349.581 682.269 355.846L666.923 361.583C643.734 368.485 569.053 396.813 549.209 410.556L494.963 438.499Z" fill="url(#paint45_linear_2193_1193)"/>
<path d="M495.005 438.586L548.187 408.703C569.517 394.015 638.765 367.108 665.256 359.446L679.192 355.053C697.241 348.641 715.613 343.604 734.082 340.004L894.891 305.7C931.282 298.501 967.531 289.115 1003.37 277.612L1026.77 270.546C1029.95 269.571 1042 265.409 1057.29 260.019C1092.32 246.825 1127.81 235.283 1163.58 225.448L1314.39 180.643C1320.78 179.073 1327.14 177.16 1333.41 174.918C1339.63 172.744 1345.92 170.874 1352.26 169.317C1358.16 167.488 1364.56 165.918 1371.1 164.349C1385.22 161.201 1399.39 159.499 1413.33 159.279L1416.27 159.314C1426.73 159.2 1436.71 160.954 1445.63 164.473C1453.77 164.57 1489.11 181.828 1526.47 200.123C1567.27 219.979 1609.44 240.61 1619.82 240.733L1620.8 240.744C1636.18 245.972 1653.52 247.482 1671.29 245.141C1691.88 243.295 1712.61 238.673 1732.77 231.437C1754.82 225.367 1820.62 206.269 1828.15 204.08C1832.98 202.618 1843.4 198.816 1852.37 195.884L1862.93 192.084C1885.02 184.623 1945.61 160.525 1966.64 150.266L1966.5 150.897C1945.33 161.155 1884.73 185.252 1862.65 192.714L1852.08 196.514C1843.54 199.451 1832.7 203.247 1827.72 204.708C1820.33 206.899 1754.54 225.997 1732.49 232.066C1712.5 239.506 1691.9 244.385 1671.4 246.535C1653.6 248.746 1636.25 247.238 1620.77 242.137L1620.07 242.128C1609.41 242.002 1567.09 221.369 1526.18 201.386C1488.96 183.092 1453.76 165.836 1445.77 165.741C1436.77 162.059 1426.69 160.133 1416.1 160.072L1414.42 160.052C1400.58 160.212 1386.49 161.916 1372.48 165.125C1365.82 166.566 1359.56 168.137 1353.52 169.965C1347.28 171.536 1341.08 173.407 1334.95 175.569C1328.6 177.88 1322.14 179.792 1315.65 181.291L1164.84 226.096C1129.09 236.052 1093.61 247.592 1058.55 260.667C1043.26 266.057 1030.65 270.212 1028.03 271.194L1004.63 278.26C968.747 289.781 932.45 299.167 896.01 306.346L734.108 340.511C715.703 344.123 697.392 349.117 679.387 355.435L665.451 359.828C638.482 367.738 568.979 395.148 548.663 409.088L495.005 438.586Z" fill="url(#paint46_linear_2193_1193)"/>
<path d="M495.046 438.656L547.313 408.593C570.185 392.695 636.397 366.487 663.444 359.04L674.646 355.608C693.545 349.153 712.747 344.098 732.031 340.498L892.233 308.904C930.639 301.719 968.902 291.911 1006.66 279.571C1013.62 277.489 1020.6 275.28 1027.52 273.325L1059.53 261.99C1100.43 247.45 1162.27 225.01 1168.6 225.084L1323.69 175.99C1330.27 174.184 1336.81 172.094 1343.28 169.728C1349.58 167.409 1355.96 165.402 1362.39 163.715C1368.61 161.752 1375.2 160.047 1381.89 158.471C1396.42 154.982 1411.06 153.142 1425.42 153L1426.97 153.019C1437.76 152.902 1448.05 154.801 1457.17 158.593C1464.34 158.678 1500.9 177.439 1539.51 197.752C1581.61 218.869 1624.94 241.402 1634.22 241.511C1649.8 247.15 1667.5 248.891 1685.69 246.572C1706.85 244.542 1728.15 239.685 1748.84 232.166C1759.5 229.237 1785.06 221.518 1807.58 214.781L1837.81 205.717C1841.89 204.492 1851.85 200.918 1859.99 197.958L1870.4 194.262C1889.63 187.741 1950.04 163.502 1967.75 154.927L1967.61 155.562C1949.9 164.137 1889.77 188.379 1870.12 194.895L1859.7 198.591C1851.71 201.553 1841.6 205.125 1837.52 206.35L1807.29 215.415C1784.78 222.151 1759.22 229.87 1748.55 232.8C1727.83 240.433 1706.47 245.294 1685.26 247.203C1666.97 249.582 1649.16 247.839 1633.52 242.139C1624.23 242.03 1580.59 219.621 1538.36 197.865C1512.62 182.836 1485.29 169.75 1456.58 158.714C1447.51 155.013 1437.32 153.161 1426.63 153.269L1425.08 153.251C1410.74 153.346 1396.11 155.143 1381.58 158.595C1374.89 160.171 1368.41 162.004 1362.19 163.968C1355.81 165.695 1349.48 167.702 1343.22 169.982C1336.67 172.393 1330.04 174.483 1323.35 176.24L1168.91 224.96C1162.86 224.889 1098.51 247.809 1059.98 261.868C1042.95 268.032 1030.7 272.344 1027.97 273.203L1007.11 279.45C969.302 291.847 930.98 301.697 892.514 308.907L732.426 339.993C713.193 343.652 694.043 348.707 675.181 355.105L663.979 358.537C636.762 366.746 570.719 392.829 548.13 408.093L495.046 438.656Z" fill="url(#paint47_linear_2193_1193)"/>
<path d="M495.069 438.7L546.601 408.131C583.046 386.967 621.78 369.987 661.651 357.697L669.053 355.493C689.113 348.792 709.48 343.582 729.918 339.922L890.26 310.762C930.408 303.581 970.421 293.409 1009.85 280.358L1028.31 274.722C1030.73 273.987 1043.68 269.05 1061.53 262.389C1103.58 247.105 1166.96 224.056 1172.5 223.867L1330.02 172.66C1331.01 172.672 1341.42 168.977 1349.98 166.024C1356.44 163.587 1362.99 161.455 1369.59 159.638C1376.17 157.417 1382.81 155.498 1389.49 153.891C1404.4 150.2 1419.44 148.279 1434.19 148.183L1435.45 148.197C1446.58 148.025 1457.15 150.062 1466.41 154.161C1495.8 166.189 1523.86 180.123 1550.41 195.869C1591.82 218.115 1638.48 243.351 1646.21 243.442C1661.89 249.658 1680.01 251.629 1698.65 249.149C1720.25 247.058 1741.97 241.899 1762.98 233.873C1771.08 231.678 1793.17 224.94 1811.55 219.048C1826.66 214.518 1839.75 210.219 1846.08 208.384C1849.4 207.406 1858.61 204.078 1866.12 201.367L1876.39 197.671C1892.72 192.137 1952.5 168.155 1967.31 160.567L1967.17 161.202C1952.45 168.409 1892.55 192.262 1876.25 198.305L1865.84 202C1858.46 204.713 1849.09 208.165 1845.77 209.144C1839.44 210.978 1825.82 215.144 1811.24 219.808C1792.3 225.693 1770.86 232.057 1762.81 234.635C1741.65 242.478 1719.83 247.503 1698.15 249.525C1679.38 251.936 1661.14 249.966 1645.28 243.813C1637.55 243.722 1592.63 219.525 1549.09 196.108C1522.74 180.597 1495.06 166.674 1466.21 154.413C1456.96 150.387 1446.46 148.354 1435.4 148.451L1434.13 148.436C1419.75 148.62 1405.09 150.544 1390.56 154.158C1383.94 155.744 1377.35 157.62 1370.83 159.78C1369.84 159.768 1360.05 163.216 1351.33 166.294C1339.73 170.229 1332.55 172.69 1331.23 172.929L1171.94 225.133C1167.02 225.075 1100.59 249.742 1061.13 263.529C1043.34 269.937 1030.45 274.62 1027.92 275.863L1009.71 280.993C970.27 294.064 930.249 304.278 890.09 311.524L730.565 340.185C710.185 343.798 689.874 348.967 669.868 355.63L662.607 357.835C622.793 370.077 584.114 387.016 547.726 408.145L495.069 438.7Z" fill="url(#paint48_linear_2193_1193)"/>
<path d="M495.012 438.592L545.939 407.509C581.827 386.103 620.212 369.08 659.792 357.019L660.915 357.032C683.153 349.565 705.745 343.809 728.41 339.834L886.782 314.078C928.809 306.935 970.719 296.399 1011.96 282.607L1027.98 277.727L1062.56 265.462C1116.9 245.446 1170 225.922 1174.86 225.6L1336.28 170.73C1337.13 170.74 1347.86 166.811 1356.58 163.746C1369.28 159.206 1375.55 156.999 1376.7 156.886C1398.21 149.528 1420.34 145.496 1442.02 144.985L1443.42 145.002C1454.78 144.889 1465.54 147.052 1474.92 151.332C1479.98 151.391 1518.27 173.138 1559.04 195.8C1589.61 214.273 1621.61 231.068 1654.92 246.112C1670.75 252.7 1689.2 254.892 1708.23 252.447C1730.28 250.397 1752.47 245.18 1773.93 237.001C1780.08 235.3 1798.6 229.308 1816.37 223.562C1831.51 218.798 1845.37 214.146 1850.63 212.687L1868.7 206.184L1878.65 202.626C1891.75 198.218 1950.99 174.585 1962.83 168.895L1962.69 169.527C1950.85 175.217 1891.47 198.849 1878.51 203.258L1868.53 206.942C1861.19 209.517 1853.18 212.591 1850.34 213.318C1845.06 214.903 1831.09 219.427 1816.19 224.32C1798.29 230.065 1779.65 236.562 1773.61 237.758C1752.1 245.879 1729.87 251.094 1707.78 253.202C1688.58 255.731 1669.97 253.49 1654.07 246.736C1647.76 246.661 1601.67 220.767 1557.04 195.903C1518.04 174.149 1477.81 151.619 1473.32 151.566C1464.04 147.287 1453.37 145.125 1442.1 145.24L1440.7 145.223C1425.9 145.369 1410.82 147.366 1395.87 151.156C1389.15 152.851 1382.21 154.924 1375.66 157.127C1374.68 157.116 1364.59 160.672 1355.71 163.862C1342.83 168.526 1336.42 170.731 1335.24 170.971L1173.68 225.839C1169.89 225.794 1102.28 250.343 1061.66 265.705L1027.08 277.97L1011.06 282.85C969.776 296.663 927.817 307.199 885.742 314.32L728.239 340.592C705.991 344.309 683.795 349.773 661.926 356.917L660.663 356.902C621.185 368.923 582.902 385.905 547.119 407.27L495.012 438.592Z" fill="url(#paint49_linear_2193_1193)"/>
<path d="M494.982 438.535L545.132 407.075C580.465 385.456 618.497 368.395 657.778 356.544C679.994 349.321 702.572 344.008 725.16 340.687L882.318 317.947C925.955 310.958 969.505 300.143 1012.29 285.671L1026.35 281.295C1027.75 281.312 1042.89 275.308 1062.09 268.09C1119.95 246.566 1172.28 227.122 1176.17 226.664L1340.8 168.675C1341.64 168.685 1352.26 164.646 1361.6 161.224C1374.63 156.457 1380.89 154.259 1381.93 154.019C1388.76 151.618 1395.66 149.51 1402.61 147.703C1417.97 143.595 1433.51 141.441 1448.73 141.311L1449.99 141.326C1461.63 141.124 1472.62 143.419 1482.04 148.018C1485.96 148.064 1516.79 166.227 1566.93 195.221C1610.36 220.98 1659.69 249.207 1664.17 249.261C1680.17 256.459 1699.15 258.88 1718.77 256.221C1741.24 254.182 1763.88 248.819 1785.73 240.359C1790.22 239.15 1807.26 233.421 1823.76 228.191C1840.26 222.96 1851.91 218.682 1855.98 217.468L1872.21 211.603L1881.86 208.058C1891.43 204.891 1950.42 181.487 1959.13 177.174L1958.96 177.929C1950.14 182.115 1891.15 205.518 1881.69 208.813L1872.6 211.734L1856.23 217.597C1852.16 218.811 1838.47 223.444 1824.01 228.32C1809.56 233.196 1790.39 239.657 1785.98 240.488C1764.03 248.951 1741.29 254.353 1718.71 256.473C1699.11 259.011 1680.16 256.55 1664.14 249.386C1659.66 249.333 1622.43 227.813 1566.48 195.342C1526.54 172.149 1485.34 148.309 1481.98 148.269C1472.68 143.635 1461.77 141.338 1450.21 141.581L1448.95 141.566C1433.82 141.76 1418.38 143.914 1403.11 147.961C1396.21 149.747 1389.35 151.857 1382.57 154.279C1382.57 154.279 1371.57 158.187 1362.39 161.485C1348.91 166.373 1342.62 168.696 1341.45 168.935L1176.26 226.917C1173.31 226.882 1103.92 252.812 1062.31 268.345L1026.72 281.552L1012.52 285.926C969.68 300.399 926.084 311.213 882.401 318.201L724.959 341.568C702.463 344.916 679.981 350.23 657.858 357.428C618.687 369.267 580.762 386.284 545.52 407.836L494.982 438.535Z" fill="url(#paint50_linear_2193_1193)"/>
<path d="M494.942 438.46L544.321 406.612C579.05 384.693 616.755 367.577 655.772 356.019C677.82 349.064 700.211 344.064 722.572 341.102L878.841 321.221C923.763 314.294 968.619 303.196 1012.63 288.12L1024.99 284.371L1061.38 270.599C1120.49 248.297 1173.76 228.189 1177.56 227.48L1345.77 166.627C1345.77 166.627 1357.52 162.493 1367.19 158.837C1382.53 153.111 1386.82 151.528 1387.71 151.287C1394.58 148.855 1401.7 146.551 1408.87 144.625C1424.45 140.407 1440.23 138.18 1455.68 138.019L1456.8 138.032C1468.79 137.789 1480.08 140.215 1489.66 145.089C1492.99 145.884 1524.43 164.617 1575.21 195.023C1619.66 221.834 1670.19 252.111 1673.13 252.146C1688.94 259.573 1707.83 262.248 1727.44 259.838C1750.41 257.651 1773.53 252.105 1795.85 243.431C1798.81 242.712 1814.71 236.993 1830.19 231.269C1845.66 225.545 1857.21 221.66 1860.63 220.82L1875.91 215.345L1884.49 212.179C1890.57 210.114 1949.14 187.052 1955.29 184.108L1955.12 184.86C1949.14 187.681 1890.26 210.865 1884.17 212.93L1875.73 216.098L1860.45 221.573C1857.6 222.419 1845.18 227.048 1830.01 232.021C1814.85 236.995 1798.59 243.087 1795.53 244.182C1773.19 252.93 1750 258.479 1726.99 260.587C1707.55 262.625 1688.93 259.649 1673.44 252.024C1669.24 251.974 1631.64 228.892 1574.4 194.888C1534.21 170.895 1492.29 145.247 1489.77 145.216C1480.29 140.359 1469.08 137.934 1457.19 138.163L1456.07 138.149C1440.69 138.09 1424.95 140.15 1409.38 144.254C1402.36 146.095 1395.4 148.278 1388.53 150.794L1368.31 158.222C1352.92 164.198 1347.62 165.895 1346.59 166.134L1178.38 226.987C1175.86 226.957 1104.84 254.145 1062.48 270.109L1025.94 283.879L1013.59 287.629C969.291 302.746 924.152 313.841 878.956 320.719L722.654 341.355C700.34 344.435 678.011 349.432 655.994 356.273C616.912 367.798 579.127 384.868 544.292 406.738L494.942 438.46Z" fill="url(#paint51_linear_2193_1193)"/>
<path d="M495.714 438.419L544.317 406.203C598.207 371.526 659.376 349.106 720.921 341.475L875.945 324.562C922.572 317.817 969.181 306.491 1014.87 290.805L1025.72 287.43L1062.09 273.596C1137.79 244.586 1177.69 229.416 1180.99 228.455L1352.03 164.161L1373.34 156.154C1390.84 149.479 1394.03 148.391 1394.78 148.15C1401.86 145.451 1409.03 143.112 1416.27 141.147C1432.16 136.596 1448.3 134.253 1464.05 134.211L1465.17 134.224C1477.43 133.967 1488.93 136.566 1498.54 141.762C1501.48 142.924 1527.83 159.016 1584.3 194.25C1629.42 222.337 1680.7 254.003 1682.25 254.522C1698.62 262.528 1718.52 265.222 1739.09 262.218C1762.42 260.028 1785.92 254.384 1808.58 245.527L1839.18 234.252C1852.47 229.404 1865.04 224.673 1866.52 224.315L1879.71 219.341C1883.88 217.639 1887.24 216.427 1887.69 216.307C1891.63 214.978 1949.29 192.01 1951.89 191.04L1951.71 191.789C1948.27 193.375 1890.12 216.086 1887.37 217.055L1879.4 220.089L1866.21 225.063C1864.95 225.048 1850.98 230.388 1839 235.001L1808.41 246.276C1785.74 255.163 1762.24 260.848 1738.89 263.092C1718.42 265.723 1698.72 262.819 1682.47 254.775C1679.25 253.61 1652.68 237.265 1583.55 194.492C1542.32 168.956 1499.51 142.4 1497.78 142.003C1488.26 136.916 1476.9 134.364 1464.8 134.595L1463.68 134.582C1448.01 134.748 1431.98 137.089 1416.19 141.522C1408.95 143.487 1401.77 145.826 1394.69 148.524L1373.39 156.531L1351.92 164.66L1180.37 228.698C1178.56 228.676 1105.37 257.09 1061.75 273.842L1025.25 287.675L1014.53 291.051C968.755 306.778 922.048 318.103 875.329 324.805L720.276 341.843C698.165 344.429 675.981 349.073 654.105 355.694C615.556 367.057 578.385 384.218 544.428 406.329L495.714 438.419Z" fill="url(#paint52_linear_2193_1193)"/>
<path d="M509.997 441.015L510.172 440.269L557.999 407.689C610.956 372.577 671.884 350.384 732.889 343.988L885.984 329.886C937.234 324.624 988.768 312.022 1038.5 292.59L1414.19 147.55C1421.42 144.766 1428.75 142.316 1436.14 140.212C1452.34 135.568 1468.8 133.116 1484.89 132.949L1485.73 132.959C1498.32 132.699 1510.12 135.423 1519.9 140.852L1706.04 259.415C1722.16 267.879 1742.03 271.003 1762.73 268.329C1786.5 266.045 1810.43 260.221 1833.49 251.11L1961.52 200.928L1961.34 201.674L1833.79 251.613C1810.64 260.781 1786.6 266.646 1762.72 268.952C1741.77 271.668 1721.67 268.497 1705.36 259.905L1519.22 141.343C1509.62 135.96 1498 133.278 1485.58 133.58L1484.75 133.57C1468.74 133.75 1452.38 136.203 1436.28 140.837C1428.94 142.898 1421.67 145.307 1414.49 148.052L1038.8 293.093C988.984 312.582 937.347 325.184 886.007 330.385L731.989 344.849C671.175 351.235 610.443 373.389 557.686 408.433L509.997 441.015Z" fill="url(#paint53_linear_2193_1193)"/>
</g>
<defs>
<linearGradient id="paint0_linear_2193_1193" x1="1904.2" y1="89.6112" x2="667.97" y2="-231.476" gradientUnits="userSpaceOnUse">
<stop offset="0.01" stop-color="#054A6B"/>
<stop offset="1" stop-color="#00111C"/>
</linearGradient>
<linearGradient id="paint1_linear_2193_1193" x1="1891.09" y1="88.6339" x2="914.17" y2="-397.76" gradientUnits="userSpaceOnUse">
<stop offset="0.01" stop-color="#054F6F"/>
<stop offset="1" stop-color="#00131E"/>
</linearGradient>
<linearGradient id="paint2_linear_2193_1193" x1="1895.75" y1="91.262" x2="914.441" y2="-397.57" gradientUnits="userSpaceOnUse">
<stop offset="0.01" stop-color="#055473"/>
<stop offset="1" stop-color="#001420"/>
</linearGradient>
<linearGradient id="paint3_linear_2193_1193" x1="1900.16" y1="93.8369" x2="914.426" y2="-397.264" gradientUnits="userSpaceOnUse">
<stop offset="0.01" stop-color="#055977"/>
<stop offset="1" stop-color="#001621"/>
</linearGradient>
<linearGradient id="paint4_linear_2193_1193" x1="1904.73" y1="96.5156" x2="914.308" y2="-396.789" gradientUnits="userSpaceOnUse">
<stop offset="0.01" stop-color="#045E7B"/>
<stop offset="1" stop-color="#001723"/>
</linearGradient>
<linearGradient id="paint5_linear_2193_1193" x1="1910.53" y1="98.8572" x2="914.19" y2="-396.967" gradientUnits="userSpaceOnUse">
<stop offset="0.01" stop-color="#04637F"/>
<stop offset="1" stop-color="#001925"/>
</linearGradient>
<linearGradient id="paint6_linear_2193_1193" x1="1914.89" y1="101.56" x2="913.5" y2="-396.19" gradientUnits="userSpaceOnUse">
<stop offset="0.01" stop-color="#046883"/>
<stop offset="1" stop-color="#001A27"/>
</linearGradient>
<linearGradient id="paint7_linear_2193_1193" x1="1920.58" y1="103.847" x2="912.792" y2="-396.07" gradientUnits="userSpaceOnUse">
<stop offset="0.01" stop-color="#046D87"/>
<stop offset="1" stop-color="#001C29"/>
</linearGradient>
<linearGradient id="paint8_linear_2193_1193" x1="1924.52" y1="106.473" x2="911.446" y2="-394.993" gradientUnits="userSpaceOnUse">
<stop offset="0.01" stop-color="#04738C"/>
<stop offset="1" stop-color="#001D2A"/>
</linearGradient>
<linearGradient id="paint9_linear_2193_1193" x1="1929.16" y1="108.906" x2="909.766" y2="-394.189" gradientUnits="userSpaceOnUse">
<stop offset="0.01" stop-color="#047890"/>
<stop offset="1" stop-color="#001F2C"/>
</linearGradient>
<linearGradient id="paint10_linear_2193_1193" x1="1933.95" y1="111.307" x2="907.989" y2="-393.218" gradientUnits="userSpaceOnUse">
<stop offset="0.01" stop-color="#037D94"/>
<stop offset="1" stop-color="#00202E"/>
</linearGradient>
<linearGradient id="paint11_linear_2193_1193" x1="1939.92" y1="110.804" x2="907.316" y2="-394.904" gradientUnits="userSpaceOnUse">
<stop offset="0.01" stop-color="#038298"/>
<stop offset="1" stop-color="#002230"/>
</linearGradient>
<linearGradient id="paint12_linear_2193_1193" x1="1947.72" y1="108.412" x2="906.966" y2="-398.415" gradientUnits="userSpaceOnUse">
<stop offset="0.01" stop-color="#03879C"/>
<stop offset="1" stop-color="#002332"/>
</linearGradient>
<linearGradient id="paint13_linear_2193_1193" x1="1954.29" y1="107.572" x2="905.743" y2="-399.999" gradientUnits="userSpaceOnUse">
<stop offset="0.01" stop-color="#038CA0"/>
<stop offset="1" stop-color="#002533"/>
</linearGradient>
<linearGradient id="paint14_linear_2193_1193" x1="1960.38" y1="107.251" x2="903.45" y2="-400.739" gradientUnits="userSpaceOnUse">
<stop offset="0.01" stop-color="#0391A4"/>
<stop offset="1" stop-color="#002635"/>
</linearGradient>
<linearGradient id="paint15_linear_2193_1193" x1="1965.71" y1="107.11" x2="900.523" y2="-401.015" gradientUnits="userSpaceOnUse">
<stop offset="0.01" stop-color="#0396A8"/>
<stop offset="1" stop-color="#002837"/>
</linearGradient>
<linearGradient id="paint16_linear_2193_1193" x1="1972.15" y1="106.525" x2="897.611" y2="-401.445" gradientUnits="userSpaceOnUse">
<stop offset="0.01" stop-color="#029BAC"/>
<stop offset="1" stop-color="#002939"/>
</linearGradient>
<linearGradient id="paint17_linear_2193_1193" x1="1975.64" y1="108.433" x2="892.906" y2="-399.067" gradientUnits="userSpaceOnUse">
<stop offset="0.01" stop-color="#02A0B0"/>
<stop offset="1" stop-color="#002B3B"/>
</linearGradient>
<linearGradient id="paint18_linear_2193_1193" x1="1981.23" y1="109.917" x2="887.771" y2="-396.541" gradientUnits="userSpaceOnUse">
<stop offset="0.01" stop-color="#02A5B4"/>
<stop offset="1" stop-color="#002C3D"/>
</linearGradient>
<linearGradient id="paint19_linear_2193_1193" x1="1984.07" y1="112.41" x2="882.819" y2="-393.051" gradientUnits="userSpaceOnUse">
<stop offset="0.01" stop-color="#02AAB8"/>
<stop offset="1" stop-color="#002E3E"/>
</linearGradient>
<linearGradient id="paint20_linear_2193_1193" x1="1988.7" y1="114.024" x2="876.509" y2="-389.658" gradientUnits="userSpaceOnUse">
<stop offset="0.01" stop-color="#02AFBC"/>
<stop offset="1" stop-color="#002F40"/>
</linearGradient>
<linearGradient id="paint21_linear_2193_1193" x1="1991.24" y1="116.258" x2="870.516" y2="-385.735" gradientUnits="userSpaceOnUse">
<stop offset="0.01" stop-color="#02B4C0"/>
<stop offset="1" stop-color="#003142"/>
</linearGradient>
<linearGradient id="paint22_linear_2193_1193" x1="1995.13" y1="117.952" x2="863.924" y2="-381.618" gradientUnits="userSpaceOnUse">
<stop offset="0.01" stop-color="#01B9C4"/>
<stop offset="1" stop-color="#003244"/>
</linearGradient>
<linearGradient id="paint23_linear_2193_1193" x1="1998.78" y1="119.499" x2="856.578" y2="-377.193" gradientUnits="userSpaceOnUse">
<stop offset="0.01" stop-color="#01BEC8"/>
<stop offset="1" stop-color="#003446"/>
</linearGradient>
<linearGradient id="paint24_linear_2193_1193" x1="2002.25" y1="121.08" x2="848.946" y2="-372.405" gradientUnits="userSpaceOnUse">
<stop offset="0.01" stop-color="#01C4CD"/>
<stop offset="1" stop-color="#003547"/>
</linearGradient>
<linearGradient id="paint25_linear_2193_1193" x1="2006" y1="122.343" x2="840.917" y2="-367.29" gradientUnits="userSpaceOnUse">
<stop offset="0.01" stop-color="#01C9D1"/>
<stop offset="1" stop-color="#003749"/>
</linearGradient>
<linearGradient id="paint26_linear_2193_1193" x1="2007.5" y1="124.805" x2="834.648" y2="-362.037" gradientUnits="userSpaceOnUse">
<stop offset="0.01" stop-color="#01CED5"/>
<stop offset="1" stop-color="#00384B"/>
</linearGradient>
<linearGradient id="paint27_linear_2193_1193" x1="2009.23" y1="127.217" x2="827.738" y2="-356.286" gradientUnits="userSpaceOnUse">
<stop offset="0.01" stop-color="#01D3D9"/>
<stop offset="1" stop-color="#003A4D"/>
</linearGradient>
<linearGradient id="paint28_linear_2193_1193" x1="2011.54" y1="129.039" x2="819.757" y2="-350.173" gradientUnits="userSpaceOnUse">
<stop offset="0.01" stop-color="#00D8DD"/>
<stop offset="1" stop-color="#003B4F"/>
</linearGradient>
<linearGradient id="paint29_linear_2193_1193" x1="2014.16" y1="130.377" x2="810.683" y2="-343.476" gradientUnits="userSpaceOnUse">
<stop offset="0.01" stop-color="#00DDE1"/>
<stop offset="1" stop-color="#003D50"/>
</linearGradient>
<linearGradient id="paint30_linear_2193_1193" x1="2015.64" y1="132.544" x2="802.726" y2="-336.643" gradientUnits="userSpaceOnUse">
<stop offset="0.01" stop-color="#00E2E5"/>
<stop offset="1" stop-color="#003E52"/>
</linearGradient>
<linearGradient id="paint31_linear_2193_1193" x1="2016.82" y1="135.006" x2="795.054" y2="-329.535" gradientUnits="userSpaceOnUse">
<stop offset="0.01" stop-color="#00E7E9"/>
<stop offset="1" stop-color="#004054"/>
</linearGradient>
<linearGradient id="paint32_linear_2193_1193" x1="1940.83" y1="93.091" x2="662.358" y2="-228.736" gradientUnits="userSpaceOnUse">
<stop offset="0.01" stop-color="#00E7E9"/>
<stop offset="1" stop-color="#052A38"/>
</linearGradient>
<linearGradient id="paint33_linear_2193_1193" x1="1943.71" y1="93.4141" x2="661.451" y2="-227.916" gradientUnits="userSpaceOnUse">
<stop offset="0.01" stop-color="#00E7E9"/>
<stop offset="1" stop-color="#052937"/>
</linearGradient>
<linearGradient id="paint34_linear_2193_1193" x1="1946.1" y1="95.6208" x2="659.984" y2="-225.105" gradientUnits="userSpaceOnUse">
<stop offset="0.01" stop-color="#00E7E9"/>
<stop offset="1" stop-color="#052835"/>
</linearGradient>
<linearGradient id="paint35_linear_2193_1193" x1="1948.49" y1="97.8074" x2="658.449" y2="-222.202" gradientUnits="userSpaceOnUse">
<stop offset="0.01" stop-color="#00E7E9"/>
<stop offset="1" stop-color="#042734"/>
</linearGradient>
<linearGradient id="paint36_linear_2193_1193" x1="1950.87" y1="99.7571" x2="656.983" y2="-219.456" gradientUnits="userSpaceOnUse">
<stop offset="0.01" stop-color="#00E7E9"/>
<stop offset="1" stop-color="#042633"/>
</linearGradient>
<linearGradient id="paint37_linear_2193_1193" x1="1953.34" y1="101.533" x2="655.381" y2="-216.727" gradientUnits="userSpaceOnUse">
<stop offset="0.01" stop-color="#00E7E9"/>
<stop offset="1" stop-color="#042531"/>
</linearGradient>
<linearGradient id="paint38_linear_2193_1193" x1="1955.81" y1="103.282" x2="653.561" y2="-213.926" gradientUnits="userSpaceOnUse">
<stop offset="0.01" stop-color="#00E7E9"/>
<stop offset="1" stop-color="#042430"/>
</linearGradient>
<linearGradient id="paint39_linear_2193_1193" x1="1958.3" y1="104.885" x2="651.812" y2="-211.098" gradientUnits="userSpaceOnUse">
<stop offset="0.01" stop-color="#00E7E9"/>
<stop offset="1" stop-color="#04232F"/>
</linearGradient>
<linearGradient id="paint40_linear_2193_1193" x1="1960.83" y1="106.58" x2="649.975" y2="-208.091" gradientUnits="userSpaceOnUse">
<stop offset="0.01" stop-color="#00E7E9"/>
<stop offset="1" stop-color="#03222D"/>
</linearGradient>
<linearGradient id="paint41_linear_2193_1193" x1="1963.27" y1="108.236" x2="648.006" y2="-204.91" gradientUnits="userSpaceOnUse">
<stop offset="0.01" stop-color="#00E7E9"/>
<stop offset="1" stop-color="#03212C"/>
</linearGradient>
<linearGradient id="paint42_linear_2193_1193" x1="1965.88" y1="109.124" x2="646.122" y2="-202.331" gradientUnits="userSpaceOnUse">
<stop offset="0.01" stop-color="#00E7E9"/>
<stop offset="1" stop-color="#03202B"/>
</linearGradient>
<linearGradient id="paint43_linear_2193_1193" x1="1968.33" y1="108.926" x2="644.61" y2="-200.928" gradientUnits="userSpaceOnUse">
<stop offset="0.01" stop-color="#00E7E9"/>
<stop offset="1" stop-color="#032029"/>
</linearGradient>
<linearGradient id="paint44_linear_2193_1193" x1="1971.64" y1="108.267" x2="642.605" y2="-199.268" gradientUnits="userSpaceOnUse">
<stop offset="0.01" stop-color="#00E7E9"/>
<stop offset="1" stop-color="#031F28"/>
</linearGradient>
<linearGradient id="paint45_linear_2193_1193" x1="1974.47" y1="107.658" x2="640.744" y2="-197.674" gradientUnits="userSpaceOnUse">
<stop offset="0.01" stop-color="#00E7E9"/>
<stop offset="1" stop-color="#031E27"/>
</linearGradient>
<linearGradient id="paint46_linear_2193_1193" x1="1977.26" y1="107.08" x2="638.705" y2="-195.82" gradientUnits="userSpaceOnUse">
<stop offset="0.01" stop-color="#00E7E9"/>
<stop offset="1" stop-color="#021D25"/>
</linearGradient>
<linearGradient id="paint47_linear_2193_1193" x1="1980.03" y1="106.306" x2="636.587" y2="-193.97" gradientUnits="userSpaceOnUse">
<stop offset="0.01" stop-color="#00E7E9"/>
<stop offset="1" stop-color="#021C24"/>
</linearGradient>
<linearGradient id="paint48_linear_2193_1193" x1="1979.55" y1="107.767" x2="636.469" y2="-192.709" gradientUnits="userSpaceOnUse">
<stop offset="0.01" stop-color="#00E7E9"/>
<stop offset="1" stop-color="#021B23"/>
</linearGradient>
<linearGradient id="paint49_linear_2193_1193" x1="1977.05" y1="110.244" x2="637.417" y2="-192.19" gradientUnits="userSpaceOnUse">
<stop offset="0.01" stop-color="#00E7E9"/>
<stop offset="1" stop-color="#021A21"/>
</linearGradient>
<linearGradient id="paint50_linear_2193_1193" x1="1974.32" y1="112.978" x2="638.553" y2="-191.441" gradientUnits="userSpaceOnUse">
<stop offset="0.01" stop-color="#00E7E9"/>
<stop offset="1" stop-color="#021920"/>
</linearGradient>
<linearGradient id="paint51_linear_2193_1193" x1="1971.78" y1="115.394" x2="639.52" y2="-190.736" gradientUnits="userSpaceOnUse">
<stop offset="0.01" stop-color="#00E7E9"/>
<stop offset="1" stop-color="#01181F"/>
</linearGradient>
<linearGradient id="paint52_linear_2193_1193" x1="1968.97" y1="117.996" x2="640.727" y2="-189.99" gradientUnits="userSpaceOnUse">
<stop offset="0.01" stop-color="#00E7E9"/>
<stop offset="1" stop-color="#01171D"/>
</linearGradient>
<linearGradient id="paint53_linear_2193_1193" x1="1980.25" y1="123.233" x2="656.102" y2="-186.528" gradientUnits="userSpaceOnUse">
<stop offset="0.01" stop-color="#00E7E9"/>
<stop offset="1" stop-color="#01161C"/>
</linearGradient>
</defs>
</svg>
