<svg width="421" height="220" viewBox="0 0 421 220" fill="none" xmlns="http://www.w3.org/2000/svg">
<g style="mix-blend-mode:color-dodge">
<path d="M0 219.132V218.665L55.8497 188.707C63.684 184.409 71.9301 181.656 80.3377 180.531L118.358 176.093C136.603 173.623 154.403 166.928 170.986 156.296L289.86 81.8396C304.252 72.788 318.429 71.3865 332.134 70.1601C340.809 69.6511 349.435 68.1073 357.911 65.5467C376.556 59.0646 429.184 1.30956 429.742 0.433594V0.783975C429.227 1.36795 376.513 59.5318 357.782 66.0139C349.308 68.596 340.682 70.14 332.005 70.6273C318.301 71.9705 304.166 73.372 289.817 82.3068L171.158 156.705C154.489 167.367 136.604 174.082 118.273 176.56L80.2518 180.998C71.8774 182.131 63.6625 184.864 55.8497 189.116L0 219.132Z" fill="url(#paint0_linear_2193_563)"/>
<g opacity="0.98">
<path d="M0 219.131V218.664L55.8497 189.114C63.7843 185.188 72.0097 182.446 80.3807 180.939L85.1064 180.355C91.2069 179.596 102.549 178.194 102.935 178.077L118.316 176.092C136.551 173.372 154.332 166.585 170.943 156.003L201.918 136.674L205.269 134.571C242.903 111.212 247.543 108.643 248.231 108.409L289.86 83.8823L291.192 83.0647L291.879 82.7143C303.197 76.9289 315.114 73.5985 327.194 72.8451L330.545 72.4948C339.03 71.8425 347.471 70.3789 355.806 68.1149L357.61 67.4726C370.756 62.8008 397.951 36.5219 409.164 25.4264L429.613 4.69531V5.04569L408.863 25.8352C397.779 36.9307 370.584 63.2096 357.309 67.9398L355.462 68.5237C347.132 70.8362 338.689 72.3195 330.201 72.9619L326.85 73.3123C314.89 74.1095 303.094 77.419 291.879 83.1231L291.192 83.5319L289.86 84.291L248.188 108.876C247.242 109.285 232.807 118.045 205.226 135.038L201.832 137.141L170.9 156.47C154.28 167.074 136.482 173.862 118.23 176.559L103.107 178.545L85.2783 180.822L80.5525 181.406C72.1265 182.889 63.8438 185.611 55.8497 189.523L0 219.131Z" fill="url(#paint1_linear_2193_563)"/>
</g>
<g opacity="0.97">
<path d="M0 219.126V218.659L55.8497 189.46C63.8025 185.549 72.0409 182.808 80.4236 181.284L85.0205 180.7C91.078 179.883 102.205 178.423 102.892 178.248L118.187 176.029C136.374 173.088 154.098 166.208 170.685 155.648L201.575 136.318L204.367 134.625C239.982 112.901 246.942 109.047 247.973 108.813L289.559 85.863L290.805 85.1622L291.622 84.7534C302.956 79.1591 314.847 75.9301 326.893 75.1762H328.182C337.314 74.3288 346.397 72.6904 355.376 70.2708L357.224 69.6285C368.737 65.4823 391.593 45.8023 408.777 28.7503C419.818 17.9467 429.527 9.18711 429.613 9.07031V9.47909C429.613 9.47909 419.861 18.2971 408.82 29.159C391.636 46.1527 368.694 65.8326 357.266 70.0373L355.419 70.6796C346.425 73.0954 337.328 74.7338 328.182 75.585H326.85C314.847 76.3875 303.001 79.6356 291.707 85.2206L290.891 85.6294L289.645 86.2718L247.973 109.28C247.2 109.28 232.55 118.04 204.539 135.15L201.918 136.844L170.986 156.115C154.327 166.751 136.511 173.653 118.23 176.554L103.107 178.773C102.463 178.773 96.0186 179.824 85.1494 181.226L80.5955 181.81C72.1552 183.291 63.8581 186.013 55.8497 189.927L0 219.126Z" fill="url(#paint2_linear_2193_563)"/>
</g>
<g opacity="0.95">
<path d="M0 219.133V218.665L55.8497 189.934C63.8309 186.084 72.0787 183.345 80.4666 181.758L85.2782 181.116C91.2499 180.298 102.463 178.78 102.892 178.488L118.101 176.094C136.234 172.896 153.898 165.923 170.471 155.421L201.36 136.15L203.465 134.924C240.583 112.324 246.985 109.345 247.887 109.345L289.43 87.972C289.807 87.7423 290.195 87.5472 290.59 87.388L291.45 86.9792C302.749 81.6067 314.552 78.4411 326.506 77.5772C336.046 76.604 345.531 74.8096 354.904 72.2047L356.751 71.5623C368.393 67.2993 391.12 48.6121 408.304 31.9688C419.088 21.6909 429.141 13.5152 429.227 13.3984V13.8072C429.227 13.8072 419.088 22.0413 408.304 32.3776C391.12 49.0209 368.136 67.7081 356.45 72.0295L354.603 72.6718C345.212 75.2447 335.714 77.0389 326.162 78.0444C314.18 78.8603 302.346 82.0068 291.02 87.388L290.161 87.7968C289.763 87.9462 289.375 88.1416 289.001 88.3808L247.328 109.813C246.512 109.813 238.135 114.251 203.207 135.332L201.059 136.617L170.213 155.83C153.748 166.301 136.204 173.292 118.187 176.561L103.107 178.955C102.377 179.247 93.9994 180.415 85.4501 181.583L80.5095 182.401C72.1133 183.909 63.8512 186.57 55.8497 190.343L0 219.133Z" fill="url(#paint3_linear_2193_563)"/>
</g>
<g opacity="0.94">
<path d="M0 219.13V218.663L55.8497 190.34C63.8834 186.65 72.1538 183.991 80.5525 182.398L85.0634 181.756C91.078 180.938 102.248 179.303 102.892 178.953L118.058 176.325C136.151 172.879 153.769 165.814 170.342 155.36L201.231 135.68L202.563 134.921C230.745 118.103 245.954 109.577 247.715 109.577L289.216 89.78C289.598 89.5356 290.003 89.3589 290.419 89.2544L291.278 88.8457C302.554 83.7011 314.287 80.6371 326.162 79.7357H326.506C336.023 78.5844 345.478 76.6341 354.818 73.8959L356.665 73.2536C369.081 68.6402 392.28 49.8946 408.605 34.8864C415.398 28.5636 422.425 22.7163 429.656 17.3672V17.776C429.656 17.776 419.088 25.4844 408.648 35.2952C392.323 50.5369 369.081 69.0489 356.622 73.7207L354.775 74.3631C345.402 77.0703 335.92 79.0203 326.377 80.2029H326.12C314.271 81.0935 302.565 84.1579 291.321 89.3129L290.419 89.7216C290.022 89.8527 289.634 90.0285 289.259 90.2472L247.629 110.102C246.813 110.102 240.541 112.847 202.692 135.388L201.36 136.148L170.514 155.536C153.908 165.99 136.263 173.073 118.144 176.559L103.107 179.128C102.291 179.537 93.8276 180.763 85.1923 181.99L80.8962 182.632C72.3767 184.251 63.99 186.969 55.8497 190.749L0 219.13Z" fill="url(#paint4_linear_2193_563)"/>
</g>
<g opacity="0.92">
<path d="M0 219.132V218.665L55.8497 190.751C63.8957 186.889 72.1971 184.093 80.6384 182.4L84.9346 181.699C90.9062 180.823 102.119 179.13 102.764 178.662L117.886 175.859C132.407 174.166 155.563 163.654 169.998 154.603L201.016 135.682C211.284 129.842 244.192 110.337 247.5 110.337L289.001 92.059L290.161 91.5334C290.457 91.4681 290.746 91.3503 291.02 91.183C301.881 86.4026 313.137 83.4797 324.53 82.4818H326.162C335.642 81.2388 345.065 79.2893 354.388 76.6421L356.235 75.9413C369.124 71.1527 392.151 53.6335 408.39 38.8005C415.167 32.7319 422.228 27.2699 429.527 22.4492V22.7996C422.259 27.6869 415.215 33.1668 408.433 39.2093C392.409 53.9254 369.467 71.4447 356.579 76.1165L354.732 76.7588C345.39 79.3735 335.954 81.3227 326.463 82.5986H324.831C313.461 83.5403 302.228 86.4647 291.407 91.2998L290.505 91.6502L289.388 92.1174L247.758 110.454C245.438 110.454 223.141 123.01 201.532 135.799L170.685 154.953C155.907 164.297 132.665 174.867 118.144 176.56L103.107 179.305C102.205 179.772 93.355 181.115 85.1923 182.4L80.8962 183.042C72.3719 184.626 63.9827 187.345 55.8497 191.159L0 219.132Z" fill="url(#paint5_linear_2193_563)"/>
</g>
<g opacity="0.9">
<path d="M0 219.134V218.666L55.8497 191.161C63.9165 187.449 72.2129 184.732 80.6384 183.044L84.9346 182.343C90.9062 181.409 102.119 179.657 102.978 179.131L118.015 176.095C131.376 174.518 155.391 163.714 169.998 154.546L200.844 135.684C201.274 135.684 242.817 111.04 247.285 111.04L288.786 94.3383L289.946 93.8711H290.805C301.259 89.3457 312.079 86.5612 323.026 85.5787L325.905 85.1115C335.356 83.7056 344.749 81.6395 354.044 78.9214L355.849 78.279C369.467 73.0232 392.967 55.8544 408.219 42.3062C415.038 36.2855 422.191 30.9943 429.613 26.4805V26.8893C422.331 31.2677 415.307 36.4024 408.605 42.2478C393.354 55.7376 369.94 72.9648 356.149 78.2206L354.345 78.863C345.022 81.6057 335.601 83.6914 326.12 85.1115L323.284 85.5203C312.353 86.5317 301.551 89.3156 291.106 93.8127H290.204L289.087 94.2799L247.5 111.04H247.2C243.591 111.04 210.038 130.37 200.973 135.684L170.17 154.955C155.563 164.123 131.505 174.985 118.101 176.504L103.064 179.54C102.033 180.066 93.1831 181.526 84.9775 182.81L80.6814 183.453C72.2681 185.128 63.9851 187.845 55.9357 191.57L0 219.134Z" fill="url(#paint6_linear_2193_563)"/>
</g>
<g opacity="0.89">
<path d="M0 219.071V218.721L55.8497 191.566C63.9401 187.896 72.248 185.18 80.6814 183.449L84.9775 182.748C90.9062 181.814 101.947 180.004 103.064 179.303L118.058 176.091C131.548 174.514 157.281 162.192 169.912 154.25L200.715 135.213C201.145 135.213 241.958 111.27 247.071 111.27H247.414L288.872 96.1448C289.248 95.9599 289.637 95.823 290.032 95.736H290.891C300.942 91.5799 311.303 88.9554 321.78 87.9108L326.077 87.2684C333.724 86.042 347.128 83.0638 354.13 80.7279L355.978 80.0271C374.411 71.2627 392.041 59.643 408.519 45.3974C415.345 39.7678 422.535 34.9983 430 31.1484V31.5572C422.536 35.3866 415.346 40.1366 408.519 45.7478C391.999 59.9199 374.342 71.4797 355.892 80.2023L354.044 80.8447C347.042 83.1806 333.595 86.1588 325.948 87.3852L321.652 88.0275C311.201 89.0658 300.869 91.6906 290.848 95.8528H289.946C289.564 95.9317 289.189 96.0688 288.829 96.2616L247.2 111.445H246.856C242.345 111.445 206.171 132.118 200.672 135.388L169.869 154.425C156.981 162.367 131.419 174.689 117.929 176.266L103.107 179.712C101.818 180.412 91.2499 182.164 84.9346 183.157L80.8962 183.858C72.4759 185.582 64.1818 188.298 56.1075 191.975L0 219.071Z" fill="url(#paint7_linear_2193_563)"/>
</g>
<g opacity="0.87">
<path d="M0 219.073V218.723L55.8497 191.977C63.9749 188.333 72.3097 185.618 80.7673 183.86L84.462 183.217C90.4336 182.166 101.647 180.298 102.849 179.538L117.843 176.093C130.345 174.633 156.508 162.253 169.397 153.96L200.157 134.981C200.544 134.981 240.583 111.622 246.426 111.622H246.899L288.357 98.0155C288.733 97.8459 289.122 97.7285 289.516 97.6652H290.376C299.991 93.7683 309.885 91.282 319.89 90.2487L325.389 89.3727C332.993 88.088 346.87 84.7593 353.357 82.5402L355.118 81.8979C373.657 73.4552 391.439 62.2115 408.133 48.3777C414.953 43.0351 422.149 38.6334 429.613 35.2383V35.6471C422.147 39.0128 414.951 43.3954 408.133 48.7281C391.502 62.5147 373.793 73.7379 355.333 82.1898L353.615 82.8322C347.085 84.9929 333.208 88.38 325.561 89.6647L320.062 90.5407C310.09 91.5888 300.227 94.0549 290.633 97.8987L289.731 98.1907C289.351 98.2535 288.976 98.3709 288.614 98.5411L247.2 112.323H246.77C241.786 112.323 208.105 131.302 200.672 135.682L169.869 154.369C156.68 162.603 130.559 175.042 118.015 176.502L103.107 179.947C101.775 180.706 90.6484 182.633 84.6768 183.626L80.9821 184.269C72.5396 186.034 64.2194 188.749 56.1075 192.386L0 219.073Z" fill="url(#paint8_linear_2193_563)"/>
</g>
<g opacity="0.85">
<path d="M0 219.073V218.722L55.8497 192.385C64.003 188.806 72.3482 186.092 80.8103 184.268L84.1613 183.684C89.7462 182.691 101.346 180.647 102.849 179.713L117.757 176.092C129.443 174.749 156.422 161.726 169.311 153.667L200.028 134.747C204.324 132.294 239.982 112.205 246.254 112.205H246.856L288.271 100.175H289.431C289.73 100.218 290.033 100.218 290.333 100.175C299.548 96.5782 309.003 94.2308 318.558 93.1677L325.26 92.1165C332.134 90.9486 346.483 87.2695 353.142 84.992L354.99 84.3496C373.509 76.0491 391.324 65.0862 408.133 51.6471C414.944 46.5711 422.148 42.5365 429.613 39.6172V39.9676C422.151 42.8959 414.947 46.9301 408.133 51.9975C391.367 65.2676 373.61 76.0736 355.161 84.2328L353.314 84.9336C346.612 87.2111 332.263 90.7733 325.389 92.0581L318.687 93.1093C309.146 94.1721 299.705 96.5195 290.505 100.117H289.559C289.189 100.04 288.813 100.04 288.442 100.117L246.899 112.205C243.634 110.453 207.417 130.425 200.286 134.688L169.697 154.076C156.809 162.077 129.743 175.158 118.144 176.501L103.107 180.121C101.561 180.997 90.2188 182.983 84.3761 184.092L81.0251 184.676C72.5781 186.481 64.2472 189.175 56.1075 192.735L0 219.073Z" fill="url(#paint9_linear_2193_563)"/>
</g>
<g opacity="0.84">
<path d="M0 219.075V218.725L55.8497 192.796C64.0392 189.252 72.4111 186.539 80.8962 184.679L83.9894 184.095C89.5744 183.103 101.174 180.942 102.849 179.949L117.714 176.095C129.357 174.752 157.668 160.62 169.268 153.437L199.985 134.516C203.852 132.238 239.166 112.617 246.083 112.617C246.338 112.551 246.6 112.551 246.856 112.617L288.271 102.164C288.655 102.087 289.046 102.087 289.431 102.164H290.29C299.096 98.83 308.116 96.64 317.226 95.6231L325.217 94.28C331.79 93.1121 346.698 89.0826 353.013 86.9219L354.818 86.2211C373.3 78.1847 391.158 67.7007 408.133 54.9201C414.952 50.1301 422.162 46.4453 429.613 43.9414V44.3502C422.158 46.8118 414.947 50.478 408.133 55.2705C391.198 67.9608 373.383 78.3475 354.947 86.2796L353.142 86.9803C346.784 89.141 331.661 93.2289 325.303 94.3968L317.312 95.6815C308.218 96.7216 299.214 98.9112 290.419 102.222C290.119 102.263 289.816 102.263 289.516 102.222C289.137 102.263 288.763 102.361 288.399 102.514L246.856 113.026H246.125C239.724 113.026 206.043 131.421 200.2 134.866L169.525 153.787C157.969 161.028 129.614 175.16 117.972 176.504L103.107 180.299C96.8646 182.149 90.555 183.553 84.2042 184.504L81.111 185.088C72.6581 186.948 64.316 189.642 56.1505 193.147L0 219.075Z" fill="url(#paint10_linear_2193_563)"/>
</g>
<g opacity="0.82">
<path d="M0 219.074V218.723L56.0645 193.204C64.2793 189.711 72.6626 186.999 81.154 185.086L83.8176 184.619C90.2998 183.569 96.7381 182.069 103.107 180.123L117.929 176.093C128.884 174.808 157.797 160.267 169.225 153.201L199.942 134.339C205.699 130.952 238.607 113.141 245.868 113.141C246.195 113.068 246.529 113.068 246.856 113.141L288.228 104.264C288.612 104.188 289.003 104.188 289.388 104.264H290.29C298.736 101.27 307.363 99.3153 316.067 98.4245C319.074 97.899 322.21 97.4318 325.26 96.8478C331.619 95.6799 347.042 91.0081 352.97 89.1977L354.732 88.497C373.181 80.6529 391.058 70.507 408.133 58.1887C414.954 53.6139 422.171 50.2199 429.613 48.0859V48.4947C422.177 50.5206 414.96 53.817 408.133 58.3055C391.066 70.4634 373.202 80.434 354.775 88.0882L353.013 88.7306C347.042 90.8329 331.533 95.2711 325.26 96.439C322.21 97.023 319.074 97.4902 316.067 97.9574C307.366 98.8834 298.741 100.837 290.29 103.797C289.99 103.838 289.688 103.838 289.388 103.797C289.016 103.746 288.642 103.746 288.271 103.797L246.813 112.732C242.517 110.396 206.171 130.251 200.071 133.697L169.397 152.559C157.969 159.742 129.013 174.283 117.843 175.568L103.107 180.473C96.7288 182.454 90.2748 183.955 83.7746 184.97L81.154 185.495C72.6886 187.367 64.3327 190.06 56.1505 193.554L0 219.074Z" fill="url(#paint11_linear_2193_563)"/>
</g>
<g opacity="0.81">
<path d="M0 219.074V218.724L56.1075 193.613C64.3353 190.128 72.7336 187.435 81.2399 185.554L83.5168 185.087C90.1039 183.982 96.6432 182.403 103.107 180.357L117.843 176.094C128.411 174.867 158.957 159.158 169.053 152.735L199.684 133.931C205.312 130.602 237.49 113.433 245.438 113.433C245.837 113.356 246.242 113.356 246.641 113.433L288.099 106.484C288.484 106.413 288.874 106.413 289.259 106.484C289.543 106.554 289.834 106.554 290.118 106.484C298.133 103.619 306.309 101.665 314.563 100.644C317.957 100.06 321.48 99.5346 324.96 98.8338C330.802 97.7242 346.87 92.9941 352.584 90.8918L354.388 90.191C372.774 82.7244 390.666 73.1721 407.875 61.6346C414.833 57.4182 422.172 54.4728 429.699 52.875V53.2838C422.259 54.783 415.004 57.6513 408.133 61.8098C390.917 73.3725 373.009 82.9256 354.603 90.3662C354.001 90.3662 353.4 90.8917 352.756 91.0669C347.042 93.1108 330.974 97.9578 325.131 99.0674L314.735 100.819C306.495 101.835 298.332 103.788 290.333 106.659H289.431C289.06 106.584 288.684 106.584 288.314 106.659L246.856 114.017C242.56 111.623 208.191 129.551 200.071 134.281L169.182 153.202C159.129 159.509 128.497 175.276 117.929 176.561L103.107 180.707C96.6315 182.772 90.0771 184.351 83.4739 185.437L81.1969 185.904C72.7545 187.887 64.4165 190.618 56.2364 194.08L0 219.074Z" fill="url(#paint12_linear_2193_563)"/>
</g>
<g opacity="0.79">
<path d="M0 219.073V218.723L56.1934 194.079C64.4467 190.648 72.8565 187.956 81.3688 186.02H82.7865C89.6334 184.734 96.4187 182.901 103.107 180.531L117.757 176.093C127.724 174.925 158.871 158.573 168.838 152.734L199.469 133.988C204.969 130.718 236.373 114.133 244.966 114.133C245.463 114.013 245.972 114.013 246.469 114.133L287.841 108.293C288.238 108.191 288.646 108.191 289.044 108.293H289.903C297.511 105.738 305.253 103.981 313.059 103.038C316.883 102.454 320.792 101.87 324.659 101.11C330.373 99.9425 346.999 94.6867 352.197 92.818L353.701 92.234H354.001C372.379 84.9604 390.33 75.8248 407.703 64.904C414.71 60.984 422.084 58.4093 429.613 57.2539V57.6043C422.238 58.7669 415.012 61.2814 408.133 65.0792C390.745 76.0017 372.78 85.1373 354.388 92.4092H354.087L352.584 92.9931C347.385 94.8619 330.716 100.176 325.003 101.286C321.136 102.045 317.226 102.687 313.403 103.271C305.598 104.196 297.856 105.933 290.247 108.468H289.345C288.974 108.398 288.598 108.398 288.228 108.468L246.77 114.308C246.301 114.201 245.822 114.201 245.352 114.308C237.318 114.308 207.245 129.784 199.942 134.105L169.053 153.201C158.957 159.041 127.853 175.334 117.886 176.56L103.279 180.94C96.5417 183.191 89.7136 184.907 82.8295 186.079L81.4117 186.371C72.9188 188.342 64.5249 191.033 56.2794 194.43L0 219.073Z" fill="url(#paint13_linear_2193_563)"/>
</g>
<g opacity="0.77">
<path d="M0 219.073V218.722L56.1934 194.429C64.5429 191.043 73.0363 188.352 81.6265 186.37H82.228C89.2829 185.2 96.2626 183.307 103.107 180.705L117.714 176.092C126.736 175.041 158.484 158.573 168.666 152.266L199.298 133.579C206.687 129.199 235.772 114.424 244.579 114.424C245.163 114.312 245.756 114.312 246.34 114.424L287.841 110.512C288.226 110.44 288.616 110.44 289.001 110.512H289.86C297.098 108.201 304.449 106.601 311.856 105.723C316.152 105.081 320.449 104.438 324.745 103.562C330.072 102.453 347.214 96.7883 352.197 94.9779L353.873 94.3356C361.133 91.2405 369.553 86.8607 378.489 82.2473C388.628 77.0499 399.154 71.619 407.746 68.2319C414.104 61.7498 429.227 61.6914 429.742 61.6914V62.0418C429.399 62.0418 414.19 62.0418 407.875 68.5239C399.283 71.8526 388.8 77.2835 378.618 82.5393C369.682 87.1527 361.434 91.5325 354.001 94.6276L352.283 95.3283C347.342 97.0803 330.158 102.745 324.831 103.854C320.535 104.73 316.238 105.373 311.942 106.073C304.565 106.937 297.243 108.518 290.032 110.804H289.087C288.731 110.733 288.369 110.733 288.013 110.804L246.598 115.067C246.028 114.955 245.449 114.955 244.88 115.067C236.287 115.067 206.859 129.958 199.684 134.221L169.096 152.908C160.031 158.748 127.724 175.625 118.058 176.734L103.107 181.056C96.1608 183.632 89.0805 185.487 81.9273 186.604H81.3258C72.8221 188.597 64.415 191.288 56.1505 194.662L0 219.073Z" fill="url(#paint14_linear_2193_563)"/>
</g>
<g opacity="0.76">
<path d="M0 219.071V218.721L56.2794 194.836C64.6105 191.506 73.073 188.816 81.6265 186.778C88.9427 185.463 96.1894 183.512 103.322 180.938L117.886 176.091C126.736 175.098 160.074 157.404 168.666 151.973L199.298 133.344C207.16 128.672 240.369 112.029 246.555 115.241L287.841 112.321C288.239 112.227 288.646 112.227 289.044 112.321H289.903C296.738 110.215 303.671 108.752 310.653 107.941C315.207 107.24 319.89 106.539 324.573 105.547C329.256 104.554 347.385 98.3638 351.939 96.7287L353.4 96.0863H353.744C360.145 93.3416 367.362 89.7794 375.009 85.9835C386.437 80.1438 398.295 74.304 407.832 71.209C413.847 65.3692 429.785 65.7196 429.914 65.778V66.1284C429.914 66.1284 413.718 65.6028 407.746 71.4426C398.209 74.7128 386.265 80.5526 374.924 86.2171C367.276 90.0129 360.059 93.5752 353.443 96.3199H353.099L351.639 96.9622C347.085 98.5974 329.342 104.729 324.229 105.78C319.117 106.831 314.864 107.474 310.31 108.175C303.33 109.014 296.398 110.477 289.559 112.554H288.657C288.286 112.488 287.911 112.488 287.54 112.554L246.125 115.241C245.478 114.927 244.793 114.788 244.106 114.832C235.256 114.832 207.933 128.146 199.169 133.285L168.58 151.973C159.988 157.345 126.564 175.332 117.714 176.091L103.193 180.938C96.0459 183.512 88.785 185.462 81.4547 186.778C72.9442 188.82 64.5249 191.511 56.2364 194.836L0 219.071Z" fill="url(#paint15_linear_2193_563)"/>
</g>
<g opacity="0.74">
<path d="M0 219.076V218.726L56.2364 195.367C64.5903 192.047 73.065 189.319 81.6265 187.191C88.8691 185.854 96.0433 183.903 103.107 181.351L117.585 176.329C125.834 175.395 159.773 157.233 168.28 151.919L198.825 133.349C207.417 128.151 234.01 115.479 243.548 115.479C244.378 115.448 245.205 115.606 245.997 115.946L287.325 114.837C287.723 114.743 288.13 114.743 288.528 114.837H289.345C295.932 112.865 302.604 111.461 309.322 110.632C314.219 109.931 319.332 109.172 324.401 108.063C329.47 106.953 350.779 99.2445 351.681 98.9525L353.185 98.3102H353.443C358.856 95.9743 364.742 93.1712 370.928 90.2513C382.961 84.1197 395.239 78.914 407.703 74.6592C413.417 68.8195 429.184 70.2794 429.957 70.2794V70.6298C429.957 70.6298 413.503 69.2867 407.918 74.9512C395.454 79.1843 383.176 84.3704 371.143 90.4849C364.914 93.4632 359.071 96.3247 353.658 98.6022H353.4L351.853 99.2445C350.951 99.2445 329.771 107.245 324.573 108.355C319.375 109.464 314.391 110.223 309.493 110.924C302.923 111.689 296.394 113.015 289.946 114.895H289.001C288.646 114.805 288.282 114.805 287.927 114.895L246.555 116.005C245.785 115.63 244.966 115.471 244.149 115.537C234.698 115.537 208.362 128.151 199.598 133.057L169.01 151.627C160.418 157 126.521 174.986 118.273 176.096L103.838 181.118C96.7734 183.668 89.5993 185.619 82.3569 186.958C73.8213 189.021 65.3742 191.711 57.0527 195.016L0 219.076Z" fill="url(#paint16_linear_2193_563)"/>
</g>
<g opacity="0.73">
<path d="M0 219.072V218.722L56.2793 195.655C60.1459 193.611 78.3615 188.238 81.6265 187.596C88.8837 186.185 96.0608 184.097 103.107 181.348L117.542 176.092C125.232 175.216 160.504 156.061 168.108 151.39L198.653 132.878C207.245 127.797 233.022 115.358 243.032 115.358C243.996 115.301 244.959 115.499 245.868 115.942L287.154 116.351C287.51 116.299 287.871 116.299 288.228 116.351C288.539 116.443 288.861 116.443 289.173 116.351C299.479 115.334 309.735 113.521 319.89 110.92L323.757 110.044C327.795 109.168 343.648 103.329 349.533 101.168L350.865 100.642L352.283 100.058H352.67C356.966 98.248 361.262 96.2625 365.558 94.2186C379.057 87.5165 392.862 82.0155 406.887 77.7505C412.214 72.3779 428.367 74.4218 429.227 74.4802V74.8306C429.227 74.8306 412.3 72.7283 407.059 78.0425C393.171 82.4083 379.508 88.007 366.159 94.8025C361.52 96.9048 357.181 98.9488 353.271 100.642H352.884L351.467 101.226L350.135 101.693C344.163 103.913 328.268 109.752 324.358 110.628L320.492 111.504C310.336 114.105 300.081 115.918 289.774 116.935C289.434 117.028 289.083 117.028 288.743 116.935C288.415 116.884 288.083 116.884 287.755 116.935L246.34 116.468C245.439 116.075 244.494 115.897 243.548 115.942C233.581 115.942 207.89 128.089 199.298 133.111L168.752 151.682C161.277 156.353 125.791 175.508 118.144 176.384L103.752 181.581C96.5065 184.534 89.1116 186.759 81.6265 188.238C78.3185 188.939 60.1459 194.078 56.2793 196.297L0 219.072Z" fill="url(#paint17_linear_2193_563)"/>
</g>
<g opacity="0.71">
<path d="M0 219.075V218.725L56.3223 196.067C59.8022 194.081 78.3185 188.767 81.6265 188.241C88.8959 186.814 96.0763 184.647 103.107 181.759L117.499 176.328C124.588 175.511 160.461 155.948 167.893 151.334L198.438 132.822C209.05 126.574 238.779 113.259 245.696 116.938L286.982 118.924C287.338 118.853 287.7 118.853 288.056 118.924C288.37 118.977 288.687 118.977 289.001 118.924C299.593 118.122 310.13 116.308 320.535 113.493L323.542 112.85C326.893 112.033 340.726 107.011 347.342 104.324L350.65 103.098L351.939 102.572H352.412L360.145 99.1269C375.419 91.6173 391.106 85.7594 407.059 81.6077C412.042 76.6439 428.539 79.3302 429.485 79.447V79.7974C429.485 79.7974 412.3 76.9943 407.231 81.9581C391.282 86.1347 375.597 91.9922 360.317 99.4773L352.584 102.981H352.111L350.779 103.565L347.514 104.791C340.855 107.303 327.022 112.5 323.671 113.259L320.663 113.96C310.248 116.79 299.694 118.586 289.087 119.332C289.087 119.332 288.614 119.332 288.056 119.332C287.728 119.281 287.396 119.281 287.068 119.332L245.696 117.347C238.865 113.609 209.222 126.924 198.438 133.231L167.936 151.685C160.547 156.298 124.545 175.92 117.456 176.737L103.107 182.168C96.0716 185.032 88.8926 187.198 81.6265 188.65C78.1467 189.409 59.6733 194.84 56.2364 196.709L0 219.075Z" fill="url(#paint18_linear_2193_563)"/>
</g>
<g opacity="0.69">
<path d="M0 219.074V218.723L56.3223 196.474C59.4585 194.78 78.7052 189.116 81.7984 188.473C89.0728 186.973 96.2535 184.728 103.279 181.758L117.585 175.918C123.986 175.159 160.847 155.012 167.85 150.632L198.352 132.178C209.136 125.813 238.221 113.024 245.61 116.995L286.853 120.615C287.223 120.533 287.6 120.533 287.97 120.615C288.268 120.689 288.574 120.689 288.872 120.615H289.645C300.157 119.994 310.615 118.237 320.921 115.36L323.413 114.776C326.334 114.075 338.621 109.345 345.968 106.483L350.264 104.79L351.596 104.206H352.068L353.099 103.739C370.284 96.0301 391.764 86.2193 406.887 84.2338C411.484 79.6204 428.668 83.0074 429.399 83.1826V83.533C429.399 83.533 411.527 79.9708 407.059 84.5258C391.936 86.6865 370.542 96.2053 353.314 104.031L352.283 104.498H351.81L350.479 105.082L346.182 106.775C338.836 109.637 326.549 114.367 323.585 115.068L321.093 115.652C310.776 118.571 300.302 120.349 289.774 120.966H289.13C288.788 121.038 288.44 121.038 288.099 120.966C287.77 120.921 287.439 120.921 287.111 120.966L245.739 117.404C244.525 116.828 243.242 116.571 241.958 116.644C231.261 116.644 207.589 127.214 198.61 132.587L168.108 150.982C160.847 155.537 124.33 175.567 117.757 176.327L103.494 182.166C96.4774 185.183 89.2941 187.429 82.0132 188.882C78.92 189.524 59.7163 195.247 56.5801 196.941L0 219.074Z" fill="url(#paint19_linear_2193_563)"/>
</g>
<g opacity="0.68">
<path d="M0 219.074V218.724L56.3653 196.883C59.3296 195.307 79.1777 189.467 81.8843 188.883C89.1697 187.351 96.353 185.027 103.365 181.934L117.628 176.094C123.772 175.393 162.136 154.078 167.807 150.516L198.267 132.121C208.878 125.872 237.748 113.433 245.524 117.697L286.767 122.835C287.123 122.765 287.485 122.765 287.841 122.835H288.786H291.02C301.134 122.211 311.192 120.454 321.093 117.58L323.155 117.113C325.69 116.47 337.461 111.798 344.636 109.054L350.264 106.835L351.681 106.192L352.283 106.484C371.057 98.0166 392.237 88.965 407.316 87.797C411.613 83.534 429.141 87.797 429.914 87.797C429.914 87.797 411.57 83.5924 407.488 87.797C392.452 89.1402 371.272 98.0166 352.498 106.543H352.154L350.693 107.185L345.108 109.404C337.633 112.382 326.291 116.879 323.628 117.463L321.566 117.989C311.664 120.842 301.605 122.581 291.493 123.186H289.302C288.96 123.255 288.612 123.255 288.271 123.186C287.943 123.117 287.61 123.117 287.282 123.186L245.567 118.164C244.184 117.533 242.73 117.237 241.271 117.288C230.144 117.288 207.589 127.274 198.31 132.588L167.85 150.983C162.222 154.545 123.772 175.919 117.628 176.62L103.408 182.459C96.4068 185.605 89.2203 187.93 81.9273 189.409C79.2637 189.993 59.3296 195.891 56.4512 197.467L0 219.074Z" fill="url(#paint20_linear_2193_563)"/>
</g>
<g opacity="0.66">
<path d="M0 219.075V218.724L56.4082 197.292C59.0718 195.891 79.6933 189.759 82.185 189.292C89.4788 187.735 96.6641 185.352 103.666 182.167L117.843 176.328C123.299 175.685 162.48 153.903 167.893 150.458L198.352 132.121C210.167 125.172 237.576 114.018 245.61 118.397L286.81 125.113C287.165 125.024 287.529 125.024 287.884 125.113C288.197 125.178 288.516 125.178 288.829 125.113C289.989 125.113 291.106 125.113 292.309 125.113C302.151 124.492 311.937 122.754 321.566 119.916L323.241 119.507C325.475 118.923 336.602 114.426 343.991 111.39L350.092 108.937L351.295 108.411L351.896 108.119C376.556 96.8487 394.643 91.1258 407.102 90.6002C410.968 86.746 429.012 91.4762 429.785 91.7098C429.785 91.7098 410.968 86.746 407.23 90.5418C394.772 91.009 376.728 96.7319 352.025 108.061H351.467L350.264 108.587L343.991 112.324C336.645 115.302 325.475 119.857 323.241 120.383L321.566 120.85C311.922 123.675 302.121 125.394 292.266 125.989C291.106 125.989 289.946 125.989 288.829 125.989C288.829 125.989 288.357 125.989 287.755 125.989C287.441 125.954 287.124 125.954 286.81 125.989L245.524 119.273C237.404 114.894 210.081 126.047 198.267 132.997L167.549 150.516C162.136 153.903 122.912 175.802 117.499 176.444L103.322 182.284C96.3271 185.5 89.1398 187.884 81.8413 189.409C79.5644 189.876 58.9859 196.008 56.2794 197.468L0 219.075Z" fill="url(#paint21_linear_2193_563)"/>
</g>
<g opacity="0.65">
<path d="M0 219.076V218.726L56.4082 197.703C58.8141 196.476 79.6503 190.228 82.185 189.702C89.4955 188.146 96.6857 185.683 103.666 182.344L117.8 176.096C122.483 175.57 162.093 153.204 167.549 149.933L198.009 131.655C209.952 124.589 236.674 114.136 245.266 118.691L286.466 126.925C286.822 126.854 287.184 126.854 287.54 126.925H288.442C299.564 127.295 310.672 125.665 321.48 122.078L322.811 121.727C324.745 121.26 335.7 116.764 342.617 113.785L349.576 110.866L350.822 110.282H351.338C367.534 102.865 390.003 94.0471 406.199 94.0471H406.758C410.238 90.6016 428.754 96.0326 429.527 96.2662C429.527 96.2662 410.238 90.4265 406.887 94.0471H406.414C390.304 94.0471 367.749 102.865 351.638 110.282H351.123L349.834 110.866L342.874 113.785C335.356 116.939 325.002 121.26 323.069 121.727L321.737 122.078C312.341 124.903 302.782 126.622 293.168 127.217C291.579 127.217 290.118 127.217 288.872 127.217H287.927H286.982L245.739 118.983C243.846 118.108 241.851 117.712 239.853 117.815C228.339 117.815 208.277 126.107 198.395 131.947L167.549 150.225C162.179 153.613 122.526 175.862 117.628 176.446L103.537 182.402C96.5562 185.738 89.3661 188.201 82.0561 189.761C79.6503 190.286 58.857 196.476 56.2793 197.761L0 219.076Z" fill="url(#paint22_linear_2193_563)"/>
</g>
<g opacity="0.63">
<path d="M0 219.015L56.5371 198.167C58.6852 196.999 80.3807 190.517 82.3139 190.108C89.5215 188.443 96.5981 185.862 103.451 182.4L117.542 175.918C121.838 175.392 162.866 152.267 167.334 149.522L197.622 131.419C211.671 123.126 236.545 114.425 245.18 119.155L286.337 128.966H287.411H288.357C297.507 130.543 309.236 127.448 321.694 124.236L322.683 123.944C324.358 123.535 334.583 119.155 342.058 115.943L349.362 112.79C349.803 112.648 350.235 112.453 350.65 112.206H351.123C363.711 106.483 386.652 97.373 403.837 97.373H406.758C409.894 94.3363 428.797 100.41 429.613 100.643C429.613 100.643 409.851 94.3363 406.887 97.3146H403.965C386.781 97.3146 363.797 106.658 351.338 112.44H350.865L349.533 113.024L342.273 116.119C334.798 119.33 324.53 123.769 322.854 124.177H321.866C309.408 127.389 297.636 130.484 288.485 128.908H287.497L286.552 128.616L245.309 118.805C236.717 114.133 211.928 122.776 198.052 131.068L167.549 149.931C163.253 152.734 122.139 175.918 117.714 176.385L103.666 182.808C96.7042 186.283 89.5099 188.826 82.185 190.4C80.3377 190.809 58.6852 197.291 56.4082 198.401L0 219.015Z" fill="url(#paint23_linear_2193_563)"/>
</g>
<g opacity="0.61">
<path d="M0 219.016L56.4942 198.811C58.3415 197.818 80.2518 191.161 82.271 190.752C89.5056 189.141 96.6017 186.538 103.451 182.985L117.456 176.328C121.409 175.919 163.64 151.801 167.12 149.64L197.622 131.187C211.112 123.245 235.815 114.543 245.223 119.507L286.38 131.187H287.411H288.357C297.378 133.172 309.236 130.019 321.78 126.632H322.64C324.057 126.223 334.067 121.785 341.371 118.573C345.366 116.821 348.502 115.419 349.233 115.186L350.393 114.66H350.994C373.076 104.265 393.397 99.2432 406.844 100.82C407.632 100.305 408.507 100.083 409.379 100.178C416.273 101.067 423.099 102.748 429.785 105.2C423.058 102.917 416.204 101.393 409.293 100.645C408.461 100.515 407.62 100.739 406.887 101.287C405.254 101.287 403.536 101.287 401.731 101.287C384.426 102.373 367.352 107.122 351.123 115.361H350.522L349.362 115.945C348.631 115.945 345.495 117.58 341.5 119.332C334.196 122.544 324.315 126.982 322.768 127.332H321.909C309.365 130.719 297.507 133.873 288.442 131.887C288.442 131.887 288.056 131.887 287.411 131.595H286.423L245.18 119.916C235.815 114.835 211.198 123.537 197.923 131.595L167.549 149.757C164.069 151.918 121.752 176.094 117.843 176.503L103.881 183.16C97.0085 186.68 89.9006 189.281 82.6576 190.927C80.7673 191.336 58.6852 197.993 56.8808 198.928L0 219.016Z" fill="url(#paint24_linear_2193_563)"/>
</g>
<g opacity="0.6">
<path d="M0 219.013L56.5371 199.216C58.2126 198.281 81.0251 191.449 82.3139 191.157C89.5437 189.488 96.627 186.807 103.451 183.156L117.413 176.324C120.592 175.974 163.081 151.739 166.905 149.344L197.278 131.183C210.94 122.949 234.999 114.715 244.88 120.146L286.08 133.051L287.111 133.402L288.056 133.752C296.992 136.088 308.935 132.818 321.566 129.372H322.253C323.456 129.022 333.337 124.584 340.555 121.314L348.76 117.635L349.963 117.109H350.522C366.013 109.241 382.328 104.786 398.853 103.911C401.409 103.887 403.963 104.082 406.5 104.495C407.067 104.155 407.687 104.015 408.305 104.086C407.73 104.046 407.157 104.185 406.629 104.495C392.967 102.101 372.561 106.714 350.779 117.051H350.178L349.018 117.635L340.812 121.255C333.595 124.525 323.628 129.022 322.468 129.314H321.78C308.892 132.759 297.207 136.03 288.185 133.635L287.197 133.285L286.208 132.935L244.88 120.379C234.956 115.007 210.94 123.241 197.622 131.241L167.248 149.344C163.726 151.563 121.151 175.915 117.714 176.382L103.795 183.215C96.9545 186.859 89.8573 189.54 82.6146 191.215C81.3258 191.507 58.5133 198.34 56.8378 199.216L0 219.013Z" fill="url(#paint25_linear_2193_563)"/>
</g>
<g opacity="0.58">
<path d="M0 219.016L56.5801 199.628C57.826 198.927 81.0251 191.861 82.3569 191.627C89.5641 189.877 96.6187 187.118 103.408 183.393L117.37 176.327C120.12 176.035 164.155 150.632 166.69 149.056L197.021 130.952C212.315 121.959 234.87 115.535 244.708 120.85L285.865 135.332L286.939 135.741L287.841 135.683C296.734 138.427 308.72 135.04 321.437 131.536H322.038C323.026 131.536 332.864 126.689 340.082 123.361L348.674 119.506L349.877 118.922H350.436C371.916 108.645 392.881 104.44 406.586 107.243C406.968 107.121 407.365 107.121 407.746 107.243C415.153 108.674 422.465 110.9 429.613 113.9C422.31 110.98 408.133 105.841 406.586 107.301C392.924 104.148 371.916 108.411 350.479 118.63H349.963L348.717 119.214C348.159 119.214 344.722 121.025 340.125 123.01C332.521 126.573 322.94 130.952 322.081 131.186H321.48C308.591 134.748 296.734 138.077 287.798 135.391L287.025 135.683H285.994L244.88 120.908C235.084 115.535 212.573 121.959 197.321 130.952L166.991 149.056C164.37 150.691 120.292 175.977 117.499 176.561L103.623 183.568C96.8303 187.339 89.7579 190.099 82.5287 191.802C81.154 192.094 57.9548 199.161 56.7519 199.803L0 219.016Z" fill="url(#paint26_linear_2193_563)"/>
</g>
<g opacity="0.56">
<path d="M0 219.017L56.709 199.921C57.6971 199.337 81.3688 192.154 82.4858 191.92C89.6943 190.145 96.7387 187.306 103.494 183.453L117.37 176.211C119.518 176.211 163.812 150.341 166.604 148.648L196.892 130.603C212.186 121.551 234.225 115.595 244.622 121.201L285.779 137.319C286.134 137.396 286.48 137.533 286.81 137.727L287.798 138.078C296.39 141.114 308.677 137.669 321.437 134.048H321.909C322.683 134.048 332.435 129.201 339.523 125.873L348.116 121.727C348.502 121.613 348.877 121.437 349.233 121.201L349.877 120.909C371.358 110.631 392.323 106.835 406.242 110.748C406.483 110.671 406.733 110.671 406.973 110.748C414.635 112.515 422.2 114.993 429.613 118.164C422.272 114.823 414.763 112.208 407.145 110.339C406.934 110.253 406.71 110.253 406.5 110.339C392.624 106.368 371.573 110.339 350.221 120.442L349.533 120.792L348.416 121.318L339.824 125.406C332.306 128.968 322.94 133.406 322.167 133.64H321.694C308.806 137.26 296.82 140.706 287.97 137.611C287.615 137.534 287.269 137.396 286.939 137.202L285.951 136.793L244.88 121.376C234.526 115.536 212.53 121.727 197.278 130.72L166.948 148.765C164.198 150.516 120.034 176.036 117.714 176.387L103.881 183.628C97.1093 187.463 90.0505 190.283 82.8295 192.037C81.6265 192.329 57.9978 199.512 57.0527 200.037L0 219.017Z" fill="url(#paint27_linear_2193_563)"/>
</g>
<g opacity="0.55">
<path d="M0 219.014L56.709 200.21C57.6541 199.684 82.4858 192.21 82.4858 192.21C89.6908 190.408 96.7235 187.509 103.451 183.567L117.241 176.092C118.917 176.092 165.917 148.528 166.346 148.236L196.634 130.25C204.872 125.405 213.536 122.029 222.411 120.205C229.7 118.183 237.246 118.665 244.364 121.607L285.478 139.126C285.833 139.203 286.179 139.341 286.509 139.535L287.497 140.002C296.09 143.448 308.376 140.002 321.222 136.206H321.609C322.167 136.206 331.404 131.593 338.793 127.972L347.987 123.651L349.104 123.067L349.748 122.775C371.229 112.439 392.194 109.11 406.285 113.84H406.672C414.437 116.156 422.097 119.081 429.613 122.6V122.892C422.131 119.257 414.482 116.292 406.715 114.015H406.414C401.686 112.492 396.838 111.766 391.979 111.855C377.606 112.332 363.391 116.062 349.92 122.892L349.319 123.184L347.987 124.001L338.922 128.323C331.533 131.943 322.296 136.44 321.737 136.615H321.351C308.462 140.294 296.304 143.856 287.54 140.353L286.509 139.944L285.521 139.477L244.364 121.957C237.287 119.042 229.788 118.561 222.54 120.556C213.664 122.375 205 125.751 196.763 130.6L166.69 148.587C166.26 148.879 119.433 176.15 117.542 176.501L103.795 183.917C97.0597 187.886 90.0104 190.787 82.7865 192.56C82.7865 192.56 57.783 200.035 57.0097 200.56L0 219.014Z" fill="url(#paint28_linear_2193_563)"/>
</g>
<g opacity="0.53">
<path d="M0 219.017L56.666 200.856C57.3104 200.505 82.4428 192.914 82.6576 192.855C89.8694 191.054 96.8945 188.073 103.58 183.979L117.327 176.329C118.444 176.329 165.831 148.473 166.26 148.181L196.634 129.844C214.205 119.45 233.881 116.179 244.45 121.902L285.564 141.524L286.638 142.05L287.583 142.458C296.175 146.313 308.419 142.458 321.351 138.896H321.609C321.995 138.896 331.06 134.283 338.363 130.662C343.476 128.151 347.514 126.107 347.772 126.049L348.932 125.465H349.533C370.799 115.011 392.022 112.15 406.285 117.815C408.476 117.815 427.336 126.633 429.57 127.684C420.978 123.654 408.09 117.815 406.371 117.815C392.108 111.975 370.928 115.011 349.705 125.465H349.104L347.901 126.049L338.535 130.662C330.845 134.516 322.124 138.838 321.737 138.954H321.48C308.591 142.809 296.304 146.429 287.626 142.575L286.595 142.108L285.564 141.524L244.407 122.311C233.881 116.471 214.334 119.858 196.72 130.253L166.647 148.181C166.217 148.181 119.39 176.037 117.628 176.387L103.923 183.979C97.2381 188.073 90.2131 191.054 83.0013 192.855C81.9702 192.855 57.4393 200.622 57.2245 200.856L0 219.017Z" fill="url(#paint29_linear_2193_563)"/>
</g>
<g opacity="0.52">
<path d="M0 219.014L56.709 201.495C57.0527 201.495 82.4858 193.553 82.7435 193.495C89.9436 191.693 96.9454 188.651 103.58 184.443L117.284 176.559C118.101 176.559 165.659 148.412 166.089 148.12L196.161 130.25C204.442 125.286 213.214 122.001 222.196 120.498C229.531 118.962 237.031 119.844 244.063 123.067L285.177 143.798L286.208 144.324L287.154 144.849C295.746 149.054 307.99 145.375 320.964 141.462L338.149 132.82L347.214 128.265L348.288 127.739L348.932 127.389C370.413 116.819 391.55 114.424 405.942 120.965C407.23 120.965 422.654 128.615 429.399 131.885C423.126 128.849 406.887 120.965 405.985 120.965C391.678 114.483 370.413 116.877 349.147 127.389L348.502 127.739L347.385 128.265L338.321 132.82L321.136 141.462C308.248 145.375 295.789 149.054 287.24 144.849L286.251 144.324L285.22 143.798L244.235 122.834C237.247 119.609 229.789 118.727 222.497 120.264C213.605 121.816 204.923 125.1 196.72 130.017L166.647 147.886C166.217 147.886 119.175 175.8 117.8 176.326L104.138 184.209C97.4871 188.411 90.4717 191.452 83.2591 193.261L57.2245 201.261L0 219.014Z" fill="url(#paint30_linear_2193_563)"/>
</g>
<g opacity="0.5">
<path d="M0 219.014L82.9154 193.436C90.0473 191.244 97.0097 188.135 103.709 184.151L196.247 129.841C213.904 119.388 232.292 116.877 244.192 123.359L287.154 146.718C295.746 151.332 308.291 150.105 321.093 143.506L346.87 130.017C368.909 118.337 390.948 116.352 405.813 124.177L429.613 135.681L406.113 124.002C391.292 116.41 369.296 118.688 347.299 129.841L321.523 143.331C308.634 149.989 295.746 151.157 287.454 146.543L244.493 123.184C232.679 116.76 214.42 119.213 196.72 129.608L103.795 184.385C97.0785 188.36 90.1024 191.469 82.9583 193.67L0 219.014Z" fill="url(#paint31_linear_2193_563)"/>
</g>
<path d="M0 218.956L54.9905 186.662L122.955 136.79C139.038 124.652 157.024 117.924 175.411 117.169H176.399L208.148 117.695C240.283 117.959 272.355 113.772 303.866 105.197C321.777 100.33 339.397 93.6538 356.579 85.2256C362.851 82.1305 369.21 78.7434 375.439 75.2396C394.197 64.5241 412.31 51.8327 429.613 37.2812C412.319 51.8551 394.205 64.5475 375.439 75.2396C369.21 78.8018 362.851 82.1889 356.579 85.2256C339.367 93.7134 321.701 100.39 303.737 105.197C273.922 113.436 243.597 117.777 213.174 118.162H208.148L176.399 117.578H175.411C157.033 118.335 139.057 125.084 122.998 137.258L55.0335 186.837L0 218.956Z" fill="url(#paint32_linear_2193_563)"/>
<path d="M0 218.958L17.6141 208.154C17.9578 207.687 54.0883 186.489 54.389 186.314L61.1769 181.408C68.6093 176.094 74.3231 171.948 74.7527 171.773L122.225 138.136C130.574 132.373 139.287 127.643 148.26 124.003C157.497 120.063 167.071 117.767 176.743 117.171H177.344L209.909 116.12C211.456 116.12 213.26 116.12 215.021 116.12H218.072H220.692H222.11L231.089 115.653H234.784H238.221L246.813 115.302C258.842 114.835 272.59 114.309 284.232 112.266L286.466 111.915C289.388 111.39 292.395 110.922 295.445 110.222C299.741 109.287 304.037 108.119 308.333 106.893C325.668 102.14 342.714 95.6204 359.329 87.3883C365.085 84.5852 371.229 81.5485 377.544 77.6943C395.583 67.0324 412.991 54.4983 429.613 40.2031C412.935 54.3902 395.468 66.7885 377.372 77.2855C371.057 80.9061 364.957 84.118 359.157 86.9795C342.541 95.2051 325.495 101.725 308.162 106.484C303.866 107.711 299.569 108.879 295.273 109.813C292.223 110.514 289.216 110.981 286.294 111.506L284.103 111.857C272.332 113.901 258.67 114.426 246.641 114.893L238.049 115.244H234.569H230.874L221.938 115.711H220.478H217.857H214.807H210.167H209.694L177.13 116.704H176.528C166.914 117.481 157.414 119.934 148.26 124.003C139.378 127.699 130.753 132.448 122.483 138.194L74.7527 171.889C74.495 171.889 66.8478 177.729 61.2629 181.583L54.432 186.489C54.1313 186.489 18.1726 207.745 17.6571 208.329L0 218.958Z" fill="url(#paint33_linear_2193_563)"/>
<path d="M0 218.96L17.1845 208.039C18.0008 206.988 53.315 186.199 53.6157 186.024C53.9165 185.848 56.9238 183.746 60.4896 181.235C67.793 176.038 73.378 172.008 73.8935 171.891L121.151 139.598C129.865 133.921 138.867 129.1 148.088 125.173C157.649 120.969 167.541 118.304 177.559 117.231H177.946L211.327 114.662C212.702 114.662 214.42 114.662 216.096 114.253L219.489 113.903H222.11H223.657C226.879 113.903 229.972 113.436 232.893 113.26H240.24C244.751 113.26 250.035 113.26 255.62 113.26C266.365 113.791 277.123 113.479 287.841 112.326L290.805 111.917C293.598 111.567 296.476 111.158 299.398 110.516C303.694 109.581 308.248 108.355 312.63 106.953C329.331 102.263 345.757 95.9199 361.777 87.9743C367.019 85.4048 373.076 82.1345 379.349 78.5723C396.735 68.4901 413.538 56.6408 429.613 43.125C413.448 56.6606 396.544 68.4915 379.048 78.5139C372.776 82.0761 366.718 85.3464 361.477 87.9158C345.454 95.8536 329.028 102.197 312.329 106.895C308.033 108.297 303.479 109.523 299.097 110.516C296.175 111.1 293.297 111.508 290.505 111.859L287.841 112.326C277.362 113.363 266.849 113.597 256.35 113.027C250.765 113.027 245.481 112.735 240.97 113.027H233.452L224.215 113.669H222.669H220.048L216.697 114.02C214.979 114.02 213.26 114.428 211.885 114.428L178.504 117.056H178.118C168.114 118.134 158.237 120.799 148.689 124.998C139.48 128.916 130.492 133.737 121.795 139.422L74.5379 171.716C74.1942 171.716 66.633 177.147 61.134 181.06C57.4393 183.688 54.5179 185.732 54.2602 185.848C54.0024 185.965 44.9805 191.279 35.9586 196.71C24.7457 203.368 18.1726 207.455 17.829 207.864L0 218.96Z" fill="url(#paint34_linear_2193_563)"/>
<path d="M0 218.954L17.1845 207.8C18.3445 206.398 51.081 186.777 53.315 185.667C53.6587 185.667 56.5371 183.507 59.8881 181.171C65.6879 177.141 72.7765 172.061 73.5498 171.944L120.807 140.935C129.864 135.315 139.16 130.44 148.646 126.336C158.462 121.709 168.641 118.652 178.977 117.226H179.235L213.604 113.079C215.246 112.966 216.882 112.712 218.501 112.32L221.981 111.795H224.645H226.277C229.714 111.386 232.807 111.094 235.772 110.977C237.404 110.977 238.951 110.977 240.455 110.977H243.333C248.231 110.977 254.589 111.619 261.334 112.262C271.329 113.538 281.375 113.909 291.407 113.371H294.672C297.464 113.079 300.3 112.846 303.264 112.203C307.818 111.211 312.372 109.926 316.883 108.349C332.943 103.734 348.737 97.5477 364.14 89.8372C370.069 86.9757 376.642 83.2966 381.067 80.7855C397.866 70.87 414.093 59.2552 429.613 46.0391C414.028 59.0553 397.742 70.4556 380.895 80.1432C376.599 82.6543 369.897 86.3333 363.968 89.1948C348.569 96.9228 332.774 103.11 316.711 107.707C312.415 109.283 307.603 110.627 303.092 111.561C300.128 112.203 297.249 112.495 294.5 112.729C293.383 112.729 292.309 112.729 291.235 113.079C281.203 113.592 271.156 113.201 261.162 111.911C254.46 111.269 248.274 110.685 243.204 110.627H240.583C239.08 110.627 237.49 110.627 235.901 110.627C232.936 110.627 229.843 111.035 226.406 111.444H224.774L222.153 111.795C221.165 111.795 219.962 111.795 218.63 112.32C216.992 112.635 215.343 112.83 213.69 112.904L179.321 117.109H179.02C168.771 118.564 158.68 121.62 148.947 126.219C139.463 130.333 130.167 135.208 121.108 140.818L73.8505 171.827C73.292 171.827 65.7308 177.2 60.1888 181.054C56.709 183.448 53.9594 185.375 53.6157 185.551C51.5106 186.602 18.6023 206.34 17.5282 207.625L0 218.954Z" fill="url(#paint35_linear_2193_563)"/>
<path d="M0 219.018L16.712 207.689C18.3015 205.645 50.5655 186.374 52.4988 185.439L59.0289 181.06C64.7427 177.089 71.9173 172.242 72.6906 172.066L119.948 142.401C129.142 137.203 138.894 131.772 148.689 127.568C155.176 124.765 172.318 117.348 179.879 117.348H180.438L199.942 114.136L215.408 111.625C217.11 111.481 218.803 111.189 220.478 110.749C221.895 110.749 223.184 110.165 224.086 110.107L226.707 109.64H228.468C231.862 109.172 235.127 108.822 238.264 108.705C239.982 108.705 241.658 108.705 243.247 108.705H246.04C250.937 108.705 258.026 109.99 265.544 111.158C274.179 112.753 282.869 113.747 291.579 114.136H294.887H298.324C301.199 114.015 304.067 113.684 306.916 113.143H308.591C312.79 112.484 316.923 111.211 320.921 109.348C336.372 104.775 351.573 98.7658 366.417 91.3612C370.713 89.2005 376.169 86.2806 382.657 82.5432C398.902 72.9312 414.597 61.6878 429.613 48.9062C414.578 61.3694 398.899 72.3378 382.7 81.7256C376.212 85.4047 370.713 88.3829 366.417 90.4852C351.566 97.9238 336.349 103.934 320.878 108.472C316.901 110.363 312.779 111.636 308.591 112.267L306.873 112.618C304.025 113.167 301.156 113.479 298.281 113.552H294.844C293.813 113.552 292.696 113.552 291.536 113.552C282.826 113.163 274.136 112.169 265.501 110.574C257.983 109.406 250.894 108.296 245.997 108.18H243.204C241.615 108.18 239.939 108.18 238.221 108.18C235.127 108.18 231.819 108.647 228.425 109.172H226.707C225.825 109.37 224.936 109.506 224.043 109.581C223.141 109.581 221.852 109.99 220.478 110.282C218.788 110.706 217.081 110.979 215.365 111.1L180.395 116.939H180.008C172.49 116.939 155.348 124.297 148.861 127.1C139.109 131.363 129.314 136.736 120.163 141.933L73.0343 172.008C72.261 172.008 64.8287 177.264 59.3726 181.001C55.9786 183.337 53.315 185.147 52.8424 185.381C50.9092 186.315 18.6882 205.587 17.0986 207.572L0 219.018Z" fill="url(#paint36_linear_2193_563)"/>
<path d="M0 219.012L16.4972 207.333C18.4304 204.938 48.933 186.485 51.9403 184.966C52.4988 184.966 55.2053 182.864 58.3415 180.762C64.0124 176.966 71.2299 172.236 72.0891 172.061L119.347 143.679L124.244 141.052C132.364 136.73 140.698 132.292 149.033 128.613L150.837 127.854C159.172 124.116 174.638 117.284 180.91 117.284L200.887 113.196L216.697 109.984C218.476 109.79 220.242 109.42 221.981 108.875C223.399 108.524 224.774 108.174 225.633 108.057C226.527 107.943 227.416 107.768 228.297 107.531L230.101 107.181C233.449 106.555 236.819 106.166 240.197 106.013H241.013C242.517 106.013 243.977 106.013 245.309 106.013H248.016C252.827 106.013 260.518 107.94 268.637 109.692C277.806 112.028 287.076 113.55 296.39 114.247H297.894H301.374C304.405 114.277 307.433 114.023 310.439 113.488H311.341C315.938 112.77 320.462 111.359 324.831 109.283C339.671 104.805 354.269 98.9512 368.522 91.7642C373.506 89.3115 379.821 85.9244 384.16 83.2965C399.855 74.3222 415.046 63.8021 429.613 51.8203C415.16 63.7906 400.084 74.3106 384.504 83.2965C380.208 85.8076 373.85 89.1363 368.866 91.8226C354.606 98.9828 340.01 104.836 325.174 109.342C320.793 111.424 316.254 112.834 311.642 113.546H310.782C307.763 114.08 304.72 114.333 301.674 114.306H298.195C288.371 113.849 278.589 112.345 268.938 109.809C262.116 108.098 255.233 106.87 248.317 106.13H245.567C244.149 106.13 242.689 106.13 241.271 106.13H240.583C237.447 106.13 234.053 106.656 230.531 107.24L228.683 107.648C227.824 107.648 226.922 108.057 226.02 108.174C224.791 108.344 223.572 108.617 222.368 108.991C220.628 109.522 218.862 109.873 217.084 110.043L181.297 117.401C174.939 117.401 159.472 124.233 151.224 127.912L149.42 128.73C141.128 132.35 132.751 136.847 124.674 141.168L119.776 143.738L72.5187 172.119C71.5736 172.119 64.2272 177.2 58.857 180.82C55.592 183.039 52.9713 184.791 52.4128 185.083C49.4915 186.543 18.903 205.055 17.0127 207.391L0 219.012Z" fill="url(#paint37_linear_2193_563)"/>
<path d="M0 219.014L16.2394 207.335C18.6452 204.298 48.5033 186.253 51.3388 184.852C51.9832 184.501 54.5609 182.808 57.5682 180.822C62.0704 177.664 66.6875 174.819 71.4017 172.296L118.659 145.258L129.142 139.886C135.715 136.499 142.503 132.995 149.248 130.016L152.771 128.381C161.062 124.586 176.442 117.519 182.027 117.519L218.63 108.643C220.459 108.402 222.27 107.953 224.043 107.3C225.547 106.833 226.965 106.424 227.781 106.307C228.597 106.19 229.628 105.957 230.531 105.723L232.378 105.256C235.791 104.528 239.235 104.099 242.689 103.971C244.54 103.955 246.391 104.092 248.231 104.38H250.894C258.115 105.503 265.286 107.16 272.375 109.344C282.001 112.48 291.801 114.53 301.674 115.476H305.197C308.324 115.643 311.457 115.468 314.563 114.95C319.607 114.189 324.568 112.621 329.342 110.278C343.554 105.893 357.533 100.215 371.186 93.2845C375.955 90.8902 382.614 87.1528 386.179 85.1089C401.161 76.3759 415.674 66.2289 429.613 54.7422C415.844 66.2449 401.487 76.393 386.652 85.1089C383.086 87.1528 376.47 90.9486 371.659 93.2845C358.007 100.235 344.027 105.931 329.814 110.337C325.044 112.686 320.081 114.235 315.035 114.95C311.916 115.485 308.77 115.68 305.627 115.534H301.331C291.636 114.476 282.014 112.426 272.547 109.402C265.459 107.209 258.288 105.552 251.066 104.438H248.402C246.791 104.179 245.17 104.042 243.548 104.03H242.903C239.45 104.163 236.006 104.592 232.593 105.314L230.745 105.782C229.843 105.782 228.941 106.249 227.996 106.366C227.051 106.482 225.762 106.891 224.258 107.358C222.483 107.988 220.672 108.417 218.845 108.643L182.156 117.344C176.614 117.344 161.234 124.352 152.942 128.206L149.42 129.783C142.675 132.82 135.887 136.323 129.314 139.71L118.831 145.025L71.5736 172.121C66.8614 174.605 62.2571 177.452 57.783 180.647C54.6468 182.691 52.1551 184.326 51.5106 184.677C39.5518 191.335 27.851 198.819 16.4542 207.101L0 219.014Z" fill="url(#paint38_linear_2193_563)"/>
<path d="M0 219.012L15.9816 206.924C27.2316 198.456 38.8367 190.89 50.7373 184.266C51.4677 183.915 53.9594 182.28 56.8808 180.412C61.376 177.278 66.0105 174.528 70.7573 172.178L118.015 146.366C122.826 144.147 127.853 141.636 132.708 139.183C137.562 136.73 143.878 133.343 149.505 130.949L154.274 128.671C163.253 124 178.032 117.109 183.015 117.109L220.478 106.48C222.356 106.184 224.211 105.656 226.02 104.904C227.609 104.378 229.113 103.853 229.843 103.736C230.785 103.592 231.718 103.358 232.636 103.035L234.569 102.509C238.079 101.718 241.624 101.25 245.18 101.108H245.696C247.433 101.141 249.169 101.297 250.894 101.575L253.558 101.984C261.101 103.477 268.575 105.563 275.941 108.232C285.575 111.912 295.419 114.49 305.369 115.941H305.627H308.978C312.217 116.175 315.465 116.038 318.687 115.532C323.871 114.745 328.964 113.098 333.853 110.627C338.965 108.291 345.108 105.896 351.639 103.385C359.415 100.349 367.448 97.2536 373.85 94.1002C378.146 92.1147 383.688 88.8444 387.855 86.4501H388.199C402.465 78.134 416.302 68.5154 429.613 57.6602C416.289 68.5915 402.422 78.2504 388.113 86.5669H387.812C383.516 88.9612 377.888 92.4066 373.807 94.2754C367.362 97.4288 359.329 100.524 351.553 103.561C345.022 106.072 338.664 108.466 333.767 110.802C328.879 113.28 323.786 114.927 318.601 115.707C315.365 116.213 312.102 116.35 308.849 116.116H305.498H305.24C295.276 114.667 285.418 112.088 275.769 108.408C268.428 105.82 260.983 103.812 253.472 102.393L250.808 102.042C249.086 101.716 247.349 101.54 245.61 101.517H245.094C241.538 101.661 237.993 102.129 234.483 102.918L232.593 103.444C231.675 103.767 230.742 104.001 229.8 104.145C229.07 104.145 227.566 104.787 225.977 105.312C224.167 106.06 222.313 106.587 220.435 106.889L183.058 117.342C178.118 117.342 163.21 124.408 154.317 128.671L149.505 130.949C143.92 133.46 138.207 136.38 132.708 139.125C127.209 141.869 122.869 144.147 118.058 146.366L70.8003 172.178C66.0527 174.525 61.4181 177.275 56.9238 180.412C53.9165 182.397 51.5536 183.915 50.7803 184.266C38.92 190.906 27.345 198.452 16.1105 206.866L0 219.012Z" fill="url(#paint39_linear_2193_563)"/>
<path d="M0 219.014L15.7239 206.634C18.7741 202.838 45.4961 186.253 50.0929 183.917C50.9521 183.508 53.315 181.99 56.0646 180.238C60.6111 177.133 65.3042 174.441 70.1129 172.179L117.37 147.711C123.299 145.141 129.443 141.871 135.414 139.068C140.097 136.732 144.995 134.279 149.806 132.06L155.391 129.316C164.499 124.819 179.707 117.636 184.132 117.636L205.613 110.862L222.497 105.606C224.434 105.21 226.344 104.605 228.211 103.796C229.843 103.212 231.39 102.628 232.077 102.511C232.765 102.394 233.967 101.986 234.913 101.694L236.889 101.11C240.476 100.187 244.109 99.6402 247.758 99.4745H248.274C250.1 99.5307 251.923 99.7453 253.73 100.117L256.393 100.584C264.109 102.292 271.741 104.633 279.249 107.592C288.973 111.845 298.948 114.951 309.064 116.877H312.63C315.972 117.339 319.34 117.339 322.683 116.877C328.008 116.081 333.235 114.354 338.235 111.738C342.917 109.577 348.76 107.241 354.99 104.789C362.594 101.752 370.413 98.657 376.47 95.6787C379.993 93.9852 385.062 91.0069 388.929 88.9046L390.175 88.1454C403.758 80.1398 416.933 70.912 429.613 60.5234C416.91 70.9965 403.706 80.3024 390.089 88.379L388.843 89.0798C385.062 91.2405 379.907 94.2188 376.384 95.9707C370.37 98.8906 362.551 101.81 354.904 105.022C348.717 107.475 342.831 109.869 338.149 111.972C333.137 114.613 327.895 116.36 322.554 117.169C319.21 117.603 315.844 117.603 312.501 117.169H308.935C298.739 115.209 288.68 112.103 278.862 107.884C271.311 104.698 263.62 102.162 255.835 100.292L253.472 99.8833C251.682 99.4828 249.873 99.2681 248.059 99.2409H247.586C243.939 99.3859 240.305 99.9131 236.717 100.818L234.741 101.402C233.81 101.758 232.863 102.031 231.905 102.219C231.218 102.219 229.671 102.92 228.039 103.504C226.178 104.341 224.266 104.947 222.325 105.314L184.132 117.344C179.836 117.344 164.499 124.819 155.391 129.374L149.806 132.06C144.995 134.279 140.14 136.732 135.414 139.068C129.485 142.105 123.299 144.908 117.413 147.711L70.1559 172.179C65.3708 174.475 60.6935 177.166 56.1505 180.238C53.4009 181.99 50.9951 183.508 50.1788 183.917C45.582 186.253 18.903 202.78 15.8098 206.634L0 219.014Z" fill="url(#paint40_linear_2193_563)"/>
<path d="M0 219.016L15.4661 206.402C18.903 202.081 44.3361 186.138 49.4915 183.569C50.3936 183.102 52.6706 181.7 55.2483 180.123C59.8435 177.037 64.5958 174.402 69.4685 172.24L116.468 148.881C123.299 146.136 130.431 142.574 137.347 139.128C141.429 137.085 145.639 134.982 149.763 133.289L156.207 129.843C165.444 125.055 180.953 117.113 184.949 117.113L223.957 103.506C225.927 103.058 227.867 102.394 229.757 101.52C231.056 100.943 232.375 100.456 233.71 100.061C234.683 99.8585 235.645 99.5659 236.588 99.1846C237.275 99.1846 237.92 98.659 238.607 98.4838C242.287 97.4695 246.024 96.8834 249.777 96.7319H250.207C252.122 96.7967 254.032 97.0504 255.921 97.491L258.584 97.9582C265.428 100.015 272.16 102.708 278.733 106.017C291.149 111.857 305.111 117.697 311.169 117.697H312.415C317.058 118.941 321.824 119.099 326.506 118.164C331.971 117.179 337.316 115.215 342.402 112.324C346.698 110.397 352.154 108.119 357.997 105.725C365.472 102.688 373.162 99.5349 378.79 96.7903C381.754 95.3303 386.222 92.7608 389.831 90.6585L391.807 89.549C404.81 81.9632 417.438 73.2438 429.613 63.4453C417.419 73.303 404.778 82.0998 391.764 89.7826L389.788 90.9505C386.179 92.9944 381.711 95.5639 378.704 96.7903C373.076 99.5349 365.386 102.63 357.954 105.783C352.111 108.178 346.569 110.397 342.359 112.382C337.29 115.269 331.958 117.214 326.506 118.164C321.873 119.262 317.134 119.262 312.501 118.164C312.087 118.228 311.669 118.228 311.255 118.164C305.154 118.164 291.192 111.915 278.733 106.484C272.189 103.191 265.486 100.518 258.67 98.4838L255.964 97.9582C254.089 97.5176 252.194 97.2638 250.293 97.199H249.863C246.121 97.2958 242.395 97.8825 238.736 98.951L236.76 99.5933C235.801 99.9686 234.825 100.261 233.839 100.469C232.517 100.859 231.212 101.346 229.929 101.929C228.009 102.818 226.041 103.501 224.043 103.973L184.992 117.58C181.039 117.58 165.573 125.463 156.293 130.252L149.935 133.464C145.639 135.391 141.343 137.493 137.476 139.304C130.559 142.749 123.428 146.311 116.597 149.056L69.5974 172.415C64.7366 174.57 59.9982 177.204 55.4201 180.299C52.8424 181.875 50.5655 183.277 49.6633 183.744C44.5079 186.314 19.1178 202.198 15.6809 206.577L0 219.016Z" fill="url(#paint41_linear_2193_563)"/>
<path d="M0 219.018L15.2513 205.762C19.1178 200.915 43.6917 185.381 48.933 182.753C49.9211 182.286 52.0262 181.001 54.475 179.541C59.0898 176.567 63.8566 174.049 68.7381 172.008L115.996 150.168C123.6 147.248 131.591 143.277 139.324 139.422C142.889 137.67 146.584 135.802 150.236 134.108C151.482 133.524 153.973 132.181 157.153 130.488C166.647 125.465 182.543 117.056 186.109 117.056L225.934 101.873C227.998 101.359 230.026 100.597 231.991 99.5953C233.839 98.8362 235.385 98.1354 235.987 98.0186C236.98 97.8045 237.957 97.4723 238.908 97.0259C239.595 97.0259 240.283 96.5003 241.013 96.3251C244.769 95.1947 248.595 94.5495 252.441 94.398H252.827C254.833 94.4429 256.832 94.7361 258.799 95.2739L261.463 95.7995C268.416 98.2125 275.247 101.236 281.912 104.851C294.801 111.333 309.708 118.575 315.336 118.575H316.281C320.965 120 325.806 120.198 330.545 119.158C336.157 118.231 341.649 116.267 346.87 113.319C350.65 111.567 355.72 109.406 361.133 107.129C368.522 104.034 376.126 100.822 381.411 98.1938C384.031 96.9091 388.156 94.5148 391.464 92.3541L393.784 91.0693C406.086 83.8355 418.052 75.5861 429.613 66.3672C417.974 75.7162 405.922 84.0828 393.526 91.4197L391.206 92.7628C387.898 94.69 383.774 97.0843 381.11 98.6026C375.826 101.172 368.222 104.442 360.875 107.479C355.462 109.756 350.35 111.917 346.612 113.669C341.374 116.606 335.868 118.571 330.244 119.509C325.475 120.518 320.61 120.32 315.895 118.925H314.95C309.279 118.925 294.543 111.684 281.44 105.26C274.803 101.592 267.984 98.5673 261.033 96.2083C260.174 96.2083 259.272 95.8579 258.369 95.6243C256.469 95.1469 254.544 94.8735 252.613 94.8068H252.226C248.395 94.9584 244.583 95.6037 240.841 96.7339L238.779 97.493C237.791 97.8434 236.803 98.2522 235.772 98.4858C234.741 98.7194 233.581 99.3034 231.862 100.063C229.889 101.033 227.864 101.795 225.805 102.34L185.937 117.523C182.414 117.523 166.561 125.933 157.067 130.955L150.107 134.517L139.238 139.89C131.505 143.744 123.514 147.715 115.91 150.635L68.7381 172.3C63.8283 174.333 59.0446 176.891 54.432 179.95L48.89 183.22C43.6058 185.848 19.1178 201.324 15.2513 206.171L0 219.018Z" fill="url(#paint42_linear_2193_563)"/>
<path d="M0 219.015L14.9935 205.759C19.2896 200.269 42.7465 185.437 48.3315 182.4C49.3626 181.874 51.3388 180.706 53.6157 179.363C58.3163 176.349 63.1864 173.849 68.1796 171.888L115.093 151.332C123.428 148.354 132.278 143.974 140.87 139.653L150.365 135.215C151.568 134.631 154.36 133.171 157.84 131.244C168.194 125.404 183.617 117.053 187.054 117.053L227.695 100.293C229.772 99.6625 231.811 98.8231 233.796 97.7819C235.686 96.906 237.318 96.1468 237.834 96.03C238.774 95.727 239.694 95.3168 240.583 94.8037L242.732 93.9861C246.564 92.7505 250.48 92.0461 254.417 91.8838C257.541 91.7415 260.661 92.2938 263.654 93.5189C267.177 93.5189 277.874 99.3587 289.13 105.198C301.46 111.914 314.133 118.863 318.644 118.863H319.332C324.125 120.461 329.103 120.759 333.981 119.739C339.728 118.885 345.356 116.919 350.693 113.9C353.915 112.381 358.426 110.454 363.238 108.352C370.327 105.257 378.361 101.753 383.387 99.3003C385.621 98.1907 389.316 96.03 392.323 94.2781L395.115 92.643C406.906 85.6688 418.382 77.7518 429.485 68.9336C418.387 77.7799 406.91 85.7167 395.115 92.7014L392.323 94.3365C389.316 96.0884 385.578 98.2491 383.387 99.3003C378.361 101.753 370.499 105.14 363.195 108.352L350.693 113.9C345.335 116.892 339.696 118.858 333.939 119.739C329.032 120.758 324.026 120.46 319.203 118.863H318.601C314.004 118.863 301.417 111.914 289.001 105.198C277.702 99.0083 267.048 93.5189 263.611 93.5189H263.353C260.376 92.2887 257.269 91.7362 254.159 91.8838C250.236 92.0464 246.335 92.7508 242.517 93.9861L240.412 94.8037C239.413 95.2429 238.394 95.594 237.361 95.8548C236.846 95.8548 235.17 96.7892 233.366 97.6067C231.533 98.8071 229.638 99.8221 227.695 100.643L187.054 117.403C183.875 117.403 167.635 126.28 157.926 131.536C154.403 133.463 151.654 134.981 150.451 135.565L140.87 140.295C132.278 144.5 123.686 148.88 115.308 151.975L68.2226 172.297C63.2443 174.286 58.389 176.805 53.7017 179.83C51.4247 181.174 49.4055 182.341 48.4174 182.809C42.8325 185.612 19.4615 200.328 15.1224 206.168L0 219.015Z" fill="url(#paint43_linear_2193_563)"/>
<path d="M0 219.014L14.6928 205.641C19.2037 199.802 41.114 185.728 47.6871 182.282L52.6276 179.596C57.4146 176.541 62.3883 174.06 67.4923 172.18L114.32 152.967C123.693 149.575 132.916 145.461 141.944 140.645L150.537 136.499L158.527 132.061C169.096 126.221 185.12 117.169 187.956 117.169L229.371 98.8324C231.492 98.1158 233.573 97.1987 235.6 96.0877C237.004 95.3527 238.439 94.7287 239.896 94.219C240.93 93.9188 241.949 93.5287 242.946 93.051C243.665 92.7055 244.396 92.413 245.137 92.1751C249.06 90.8234 253.079 90.0597 257.124 89.8976H257.725C260.715 89.8281 263.691 90.44 266.532 91.7079C269.711 91.7079 280.838 98.19 292.567 105.022C305.455 112.497 318.644 120.206 322.64 120.206H323.155C328.029 122.093 333.149 122.492 338.149 121.374C344.069 120.503 349.861 118.436 355.333 115.242L364.957 110.862C372.561 107.475 381.196 103.563 386.179 101.11C388.113 100.176 391.55 98.1316 394.342 96.4965L397.306 94.8029C408.378 88.0977 419.164 80.5525 429.613 72.2031C419.168 80.5252 408.397 88.0696 397.349 94.8029L394.385 96.4965C391.593 98.1316 388.156 100.176 386.222 101.11C381.239 103.563 372.604 107.417 364.742 110.862L355.118 115.242C349.637 118.343 343.844 120.312 337.934 121.082C332.904 122.172 327.761 121.773 322.854 119.914H322.382C318.086 119.914 305.197 112.205 292.309 104.731C280.58 97.898 269.496 91.4159 266.532 91.4159H266.36C263.337 90.0951 260.169 89.4829 256.995 89.6056C252.968 89.7798 248.965 90.5235 245.051 91.8247L242.903 92.759C241.915 93.1678 240.884 93.635 239.81 93.927C238.422 94.4303 237.058 95.0545 235.729 95.7957C233.677 96.9234 231.566 97.8408 229.414 98.5404L187.956 116.877C185.163 116.877 168.537 126.221 158.613 131.769C154.747 133.929 151.739 135.623 150.622 136.148L142.03 140.353C133.002 145.321 123.78 149.61 114.406 153.2L67.5782 172.413C62.4948 174.297 57.5368 176.759 52.7565 179.771L47.816 182.399C41.2429 185.728 19.4185 199.918 14.8646 205.758L0 219.014Z" fill="url(#paint44_linear_2193_563)"/>
<path d="M0 219.016L14.478 205.176C19.5904 198.752 40.5125 185.146 47.1286 181.817L51.4247 179.423C56.3414 176.387 61.4448 173.944 66.676 172.123L113.461 154.195C123.53 150.83 133.431 146.597 143.104 141.523L150.622 137.785C151.611 137.26 154.919 135.449 158.914 133.055C168.687 126.97 178.731 121.723 188.987 117.346L231.261 97.4326C233.439 96.6042 235.577 95.59 237.662 94.396C239.681 93.4032 241.4 92.5272 241.958 92.4104C243.009 92.0985 244.042 91.6888 245.051 91.1841C245.783 90.8006 246.529 90.4693 247.285 90.1913C251.295 88.7235 255.421 87.9196 259.572 87.797H260.088C263.188 87.6908 266.276 88.3639 269.196 89.7826C272.031 89.7826 283.588 96.9071 295.789 104.44C308.935 112.324 322.683 120.85 326.506 120.85H326.936C331.901 122.905 337.145 123.404 342.273 122.31C348.292 121.375 354.172 119.209 359.715 115.886C365.042 113.434 381.754 105.667 388.714 102.28C390.39 101.462 393.569 99.5349 396.146 98.0166L399.197 96.2647C409.606 89.9405 419.76 82.8643 429.613 75.0664V75.3584C419.671 83.1182 409.447 90.1933 398.982 96.5567L395.932 98.3086C393.354 99.8269 390.175 101.754 388.499 102.572C381.54 105.959 364.785 113.726 359.457 116.178C353.887 119.513 347.977 121.679 341.929 122.602C336.787 123.705 331.528 123.206 326.549 121.142H326.506C322.769 121.142 308.978 112.674 295.617 104.382C283.416 96.907 271.902 89.7826 269.11 89.7826C266.2 88.3886 263.13 87.7161 260.045 87.797H259.529C255.407 87.9427 251.312 88.7463 247.328 90.1913C246.57 90.4605 245.824 90.792 245.094 91.1841C244.069 91.6812 243.021 92.0908 241.958 92.4104C241.529 92.4104 239.724 93.4032 237.662 94.396C235.553 95.6058 233.385 96.6204 231.175 97.4326L189.03 117.346C178.777 121.736 168.734 126.982 158.957 133.055C154.876 135.391 151.654 137.26 150.622 137.785L143.19 141.523C133.578 146.687 123.734 151.017 113.719 154.487L66.8908 172.415C61.6361 174.231 56.5051 176.653 51.5536 179.656L47.2575 182.401C40.6414 185.73 19.7622 199.278 14.6498 205.76L0 219.016Z" fill="url(#paint45_linear_2193_563)"/>
<path d="M0 219.014L14.1772 204.94C19.6763 198.05 38.9659 185.261 46.5271 181.581L50.4796 179.479C55.5487 176.423 60.8116 173.999 66.2034 172.238L112.945 155.536C123.562 152.017 133.984 147.49 144.135 141.988L150.794 138.601C151.696 138.134 155.09 136.148 159.387 133.579C169.173 127.302 179.213 121.784 189.459 117.052L232.421 95.562C234.266 94.8028 236.074 93.886 237.834 92.8173C239.584 91.7807 241.377 90.8837 243.204 90.1311C244.88 89.2551 246.727 88.4959 248.617 87.7368C252.709 86.2074 256.92 85.3448 261.162 85.1673H262.064C265.249 85.0575 268.419 85.8119 271.387 87.3864C273.878 87.3864 285.865 95.1532 298.538 103.387C312.372 112.322 326.678 121.607 329.857 121.607H330.158C335.214 123.934 340.614 124.536 345.882 123.359C352.041 122.395 358.054 120.15 363.711 116.702C370.026 113.782 388.8 104.614 390.948 103.562C392.323 102.862 395.244 101.051 397.779 99.6498L400.743 97.8395C406.973 94.2773 423.814 82.8314 429.527 77.9844V78.2764C423.771 83.1233 406.93 94.5693 400.7 98.1315L397.736 99.9418C395.33 101.343 392.28 103.154 390.862 103.854C388.757 104.906 369.983 114.074 363.668 116.994C358.078 120.535 352.124 122.898 346.011 124.002C340.727 125.118 335.324 124.518 330.244 122.25H330.029C326.764 122.25 312.415 112.964 298.538 103.971C285.908 95.7372 273.964 87.9704 271.516 87.9704C268.513 86.3215 265.302 85.4882 262.064 85.5177H261.549C257.333 85.6671 253.148 86.5302 249.09 88.0871C247.157 88.7879 245.352 89.5471 243.634 90.423C241.836 91.1816 240.072 92.0785 238.349 93.1093C236.57 94.2099 234.731 95.1273 232.85 95.854L189.889 117.344C179.658 122.132 169.62 127.648 159.816 133.871C155.52 136.44 151.954 138.426 151.224 138.893L144.565 142.28C134.402 147.79 123.965 152.318 113.332 155.828L66.2464 172.471C60.875 174.238 55.6279 176.641 50.5655 179.654L46.613 181.757C38.923 185.552 19.5904 198.575 14.3491 205.116L0 219.014Z" fill="url(#paint46_linear_2193_563)"/>
<path d="M0 219.016L13.8765 204.942C19.7622 197.526 38.1497 185.146 45.8827 181.583L49.0618 179.948C54.3803 176.886 59.8861 174.462 65.516 172.707L112.172 157.349C123.384 153.845 134.373 149.139 145.037 143.275C147.014 142.282 148.99 141.231 150.966 140.296L159.945 134.924C171.416 128.033 188.729 117.405 190.662 117.405L234.569 94.0457C236.452 93.1815 238.302 92.1875 240.111 91.0674C241.872 89.9696 243.68 89.0141 245.524 88.2059C247.285 87.2716 249.176 86.454 251.109 85.6948C255.298 84.0156 259.631 83.0928 263.997 82.9502H264.47C267.751 82.8385 271.013 83.6538 274.05 85.3445C276.241 85.3445 288.657 93.7537 301.803 102.864C316.066 112.324 330.802 122.427 333.638 122.427C338.768 124.93 344.279 125.633 349.662 124.471C355.972 123.425 362.129 121.082 367.921 117.521C370.971 116.12 378.232 112.441 384.633 109.229L393.225 104.908C394.385 104.324 397.178 102.63 399.454 101.229L402.376 99.4766C407.789 96.3816 424.544 84.9357 429.356 80.9062V81.1982C424.544 85.2277 407.875 96.6736 402.333 99.7686L399.411 101.521C397.177 102.922 394.342 104.616 393.182 105.2L384.59 109.521C378.189 112.733 370.928 116.412 367.878 117.813C362.085 121.427 355.908 123.772 349.576 124.763C344.166 125.953 338.621 125.249 333.466 122.719C330.63 122.719 315.809 112.674 301.46 102.922C292.596 96.1666 283.377 90.3109 273.878 85.4029C270.864 83.7544 267.633 82.9596 264.384 83.067H263.911C259.547 83.1879 255.214 84.0911 251.023 85.7532C249.09 86.5124 247.242 87.3884 245.481 88.3227C243.656 89.1494 241.863 90.1045 240.111 91.1842C238.279 92.3256 236.4 93.3201 234.483 94.1625L190.748 117.346C188.901 117.346 170.857 128.208 160.074 134.866C155.305 137.785 151.868 139.829 151.095 140.238L145.166 143.216C134.49 149.108 123.486 153.833 112.258 157.349L65.602 172.473C59.9914 174.255 54.5016 176.678 49.1907 179.715L46.0116 181.35C38.2785 185.263 19.9341 197.584 14.0913 204.709L0 219.016Z" fill="url(#paint47_linear_2193_563)"/>
<path d="M0 219.014L13.6187 204.707C23.2812 194.797 33.9265 186.795 45.2383 180.939L47.3434 179.888C52.9993 176.704 58.8503 174.203 64.8287 172.413L111.699 158.164C123.444 154.651 134.943 149.767 146.069 143.564L151.31 140.878C151.997 140.528 155.606 138.192 160.589 135.038C172.361 127.797 190.104 116.877 191.779 116.76L236.287 92.4082C236.588 92.4082 239.509 90.6563 241.915 89.2548C243.719 88.1015 245.569 87.0877 247.457 86.2181C249.309 85.1633 251.202 84.247 253.128 83.4734C257.421 81.6987 261.874 80.7358 266.36 80.612H266.747C270.126 80.4728 273.485 81.3502 276.585 83.1814C286.361 88.5428 295.862 94.7857 305.025 101.869C319.16 111.855 335.098 123.184 337.461 123.184C342.663 125.952 348.318 126.759 353.83 125.52C360.267 124.443 366.535 121.958 372.389 118.162C374.709 117.11 380.981 113.899 386.179 111.095C390.476 108.935 394.17 106.891 395.975 106.015C396.92 105.548 399.497 103.971 401.603 102.686L404.481 100.934C409.078 98.3064 425.661 86.9773 429.656 83.415V83.707C425.661 87.0941 409.035 98.3648 404.481 101.226L401.56 102.978C399.497 104.263 396.877 105.898 395.932 106.365C394.127 107.241 390.261 109.227 386.136 111.446C380.766 114.249 374.666 117.286 372.389 118.512C366.476 122.226 360.169 124.65 353.701 125.695C348.146 126.903 342.456 126.097 337.204 123.359C334.841 123.359 319.503 112.497 304.639 101.985C295.552 95.0093 286.17 88.7693 276.542 83.2982C273.45 81.5005 270.11 80.6243 266.747 80.7288H266.36C261.989 80.8906 257.654 81.8531 253.472 83.5902C251.563 84.3537 249.685 85.2503 247.844 86.2765C247.543 86.2765 244.794 87.9116 242.345 89.3716C239.08 91.2403 237.061 92.4083 236.674 92.525L191.693 117.344C190.19 117.344 171.631 129.023 160.547 135.564C155.563 138.601 151.954 140.82 151.267 141.404L146.069 143.856C134.941 150.068 123.443 154.972 111.699 158.514L65.0435 172.53C59.0799 174.298 53.2431 176.78 47.6012 179.946L45.539 180.997C34.2416 186.831 23.6101 194.813 13.9624 204.707L0 219.014Z" fill="url(#paint48_linear_2193_563)"/>
<path d="M0 219.018L13.4039 204.418C22.884 194.359 33.4285 186.307 44.6798 180.534H45.0235C51.2972 176.972 57.797 174.196 64.442 172.241L111.012 159.511C123.349 155.99 135.417 150.907 147.057 144.327L151.611 141.991L161.32 136.152C176.528 126.633 191.393 117.348 192.853 117.172L238.35 91.0104C238.607 91.0104 241.615 89.1417 244.063 87.6817C247.629 85.521 249.391 84.4699 249.734 84.4115C255.793 80.904 262.272 78.9252 268.852 78.5717H269.282C272.741 78.4579 276.176 79.3956 279.335 81.3164C280.881 81.3164 294.07 91.1272 308.076 101.347C318.681 109.691 329.609 117.255 340.812 124.005C346.099 126.954 351.882 127.863 357.524 126.633C364.112 125.568 370.527 123.043 376.513 119.158C378.275 118.34 383.516 115.479 388.542 112.734C392.839 110.457 396.748 108.238 398.252 107.537L403.321 104.442L406.114 102.748C409.808 100.646 426.262 89.4337 429.485 86.7474V87.0394C426.262 89.7256 409.765 100.938 406.114 103.04L403.321 104.792C401.259 106.019 399.025 107.478 398.209 107.829C396.705 108.588 392.753 110.749 388.542 113.085C383.473 115.829 378.232 118.924 376.47 119.508C370.461 123.368 364.036 125.891 357.438 126.983C351.75 128.253 345.915 127.322 340.598 124.297C338.664 124.297 322.811 112.617 307.474 101.405C294.07 91.5944 280.237 81.4332 278.862 81.4332C275.734 79.5125 272.327 78.5744 268.895 78.6885H268.465C263.96 78.8367 259.492 79.8391 255.19 81.6668C253.257 82.4844 251.281 83.4771 249.434 84.5283C249.133 84.5283 246.297 86.2218 243.806 87.7401C240.197 89.9593 238.392 91.0104 238.049 91.1272L192.51 117.289C191.35 117.289 172.404 128.969 161.062 136.268L151.353 142.108L146.799 144.444C135.147 151.033 123.064 156.117 110.711 159.627L64.442 172.592C57.9066 174.425 51.5076 177.064 45.3242 180.475H44.9376C33.7148 186.229 23.1986 194.262 13.7476 204.301L0 219.018Z" fill="url(#paint49_linear_2193_563)"/>
<path d="M0 219.017L13.1462 204.184C22.4461 193.986 32.8896 185.882 44.0783 180.182C50.37 176.718 56.9053 174.135 63.5828 172.474L110.067 161.086C122.927 157.612 135.493 152.368 147.572 145.436L151.568 143.333C151.997 143.333 156.207 140.472 161.578 137.027C177.774 126.749 192.424 117.463 193.584 117.23L239.896 89.491C240.154 89.491 243.118 87.5639 245.739 85.9288C249.391 83.6513 251.152 82.6001 251.453 82.4833C253.375 81.3345 255.339 80.3209 257.338 79.4467C261.75 77.4614 266.354 76.3789 271 76.2348H271.387C274.932 76.0775 278.453 77.0788 281.655 79.1547C282.857 79.1547 293.555 87.3887 310.911 100.528C325.991 112.208 343.046 124.997 344.421 124.997C349.815 128.239 355.791 129.255 361.606 127.917C368.337 126.849 374.888 124.243 380.981 120.208C382.27 119.624 387.082 116.879 391.764 114.368C396.447 111.857 399.712 109.813 400.872 109.229L405.426 106.426L408.133 104.733C410.839 103.214 427.25 92.0605 429.613 90.0166V90.367C427.208 92.3525 410.796 103.506 408.133 105.083L405.555 106.485L400.958 109.288C399.798 109.872 395.932 112.091 391.85 114.427C387.769 116.763 382.356 119.858 381.067 120.266C374.941 124.303 368.364 126.928 361.606 128.033C355.786 129.316 349.818 128.281 344.421 125.055C343.046 125.055 330.158 115.303 310.782 100.587C296.949 90.075 282.686 79.2715 281.655 79.2715C278.488 77.1786 274.991 76.1758 271.473 76.3516H271.086C266.47 76.5248 261.898 77.6067 257.51 79.5635C255.523 80.428 253.572 81.4418 251.668 82.6001C251.668 82.6001 248.574 84.4688 245.997 86.0456C242.216 88.3815 240.455 89.491 240.111 89.6078L193.627 117.347C192.725 117.347 173.306 129.727 161.664 137.143L151.696 143.45L147.658 145.553C135.565 152.485 122.984 157.729 110.11 161.203L63.5828 172.883C56.9353 174.556 50.4294 177.138 44.1643 180.591C33.0084 186.284 22.5947 194.368 13.318 204.534L0 219.017Z" fill="url(#paint50_linear_2193_563)"/>
<path d="M0 219.013L12.8884 203.946C21.9867 193.573 32.335 185.413 43.4769 179.828C49.7433 176.475 56.252 174.029 62.8954 172.529L109.38 162.426C122.657 158.959 135.62 153.555 148.045 146.308L151.568 144.498L161.749 137.899C178.29 127.212 193.197 117.577 194.314 117.226L241.572 88.0274C241.572 88.0274 244.88 86.0419 247.586 84.29C251.882 81.5453 253.085 80.7862 253.343 80.6694C255.276 79.5014 257.295 78.3919 259.358 77.4575C263.835 75.4115 268.512 74.2895 273.234 74.1288H273.578C277.235 73.9494 280.868 75.0132 284.146 77.2239C285.22 77.5743 296.175 86.1003 313.875 99.9405C329.385 112.146 346.999 125.927 347.901 125.927C353.268 129.289 359.245 130.426 365.085 129.198C371.97 128.054 378.664 125.35 384.891 121.197C385.75 120.847 390.218 118.102 394.557 115.357C398.896 112.613 402.161 110.744 403.149 110.335L407.445 107.707L409.851 106.189C411.57 105.196 427.895 94.1592 429.57 92.7576V93.108C427.938 94.4512 411.527 105.547 409.808 106.539L407.445 108.058L403.149 110.686C402.333 111.094 398.853 113.314 394.557 115.708C390.261 118.102 385.707 121.022 384.848 121.548C378.616 125.735 371.903 128.441 364.999 129.548C359.186 130.603 353.272 129.324 347.987 125.869C346.698 125.869 333.552 115.357 313.618 99.8821C299.612 88.9618 284.963 77.2823 284.189 77.2823C280.939 75.0789 277.336 74.0149 273.707 74.1872H273.363C268.648 74.2454 263.968 75.2894 259.486 77.2823C257.467 78.1762 255.487 79.2292 253.558 80.4358L247.887 83.998C243.591 86.8595 242.087 87.6771 241.786 87.7938L194.529 116.993C193.756 116.993 173.907 130.015 162.05 137.665L151.825 144.264L148.303 146.075C135.794 153.342 122.744 158.746 109.38 162.192L62.9383 172.645C56.3179 174.2 49.8274 176.645 43.5628 179.945C32.3988 185.515 22.0227 193.654 12.8884 204.005L0 219.013Z" fill="url(#paint51_linear_2193_563)"/>
<path d="M0.213867 219.013L12.8445 203.713C26.9232 187.235 44.1099 176.434 62.4648 172.529L108.863 163.769C122.7 160.361 136.206 154.816 149.118 147.243L152.211 145.607L162.393 138.95C183.573 124.993 194.743 117.693 195.688 117.226L243.633 86.2756L249.604 82.4214C254.502 79.2095 255.404 78.684 255.619 78.5672C257.599 77.2686 259.637 76.1375 261.72 75.1801C266.273 72.9681 271.062 71.7845 275.897 71.6763H276.24C279.987 71.4877 283.705 72.6352 287.024 75.0049C288.012 75.5305 297.249 82.8886 317.097 99.0063C332.949 111.854 350.95 126.336 351.466 126.57C357.062 130.212 363.363 131.357 369.467 129.84C376.475 128.688 383.289 125.923 389.615 121.664L398.208 116.233C401.945 113.898 405.468 111.62 405.898 111.445L409.592 109.051C410.752 108.233 411.698 107.649 411.826 107.591C412.943 106.948 429.011 95.9112 429.741 95.444V95.7944C428.796 96.5536 412.557 107.474 411.783 107.941L409.549 109.401L405.855 111.795C405.468 111.795 401.559 114.365 398.208 116.584L389.615 122.015C383.29 126.287 376.477 129.071 369.467 130.249C363.367 131.591 357.112 130.347 351.552 126.687C350.478 126.161 341.155 118.686 316.882 99.1231C302.404 87.4436 287.367 75.2969 286.809 75.1217C283.524 72.8019 279.854 71.6754 276.155 71.8514H275.811C271.008 72.017 266.254 73.1991 261.72 75.3553C259.637 76.3127 257.599 77.4438 255.619 78.7423L249.647 82.5966L243.633 86.5092L195.516 117.343C194.958 117.343 174.508 131.008 162.307 139.067L152.082 145.724L149.032 147.359C136.096 154.952 122.56 160.497 108.691 163.886L62.293 172.704C55.6875 174.034 49.2062 176.325 42.9604 179.536C31.9324 185.053 21.7403 193.267 12.8875 203.771L0.213867 219.013Z" fill="url(#paint52_linear_2193_563)"/>
<path d="M0.213867 219.075V218.725L12.5867 203.191C26.3555 186.442 43.5076 175.7 61.8204 172.357L107.918 164.882C123.311 162.126 138.262 155.93 152.168 146.545L257.337 76.4684C259.363 75.1232 261.443 73.9339 263.567 72.9061C268.218 70.6388 273.105 69.3968 278.045 69.2271H278.303C282.161 69.0336 285.987 70.2432 289.387 72.7309L355.203 127.216C360.776 131.09 367.113 132.44 373.29 131.07C380.441 129.865 387.387 127.001 393.826 122.602L429.612 98.3674V98.7178L393.954 122.836C387.491 127.262 380.515 130.146 373.333 131.362C367.082 132.753 360.667 131.382 355.032 127.449L289.215 72.9645C285.873 70.4974 282.102 69.3067 278.303 69.5191H278.045C273.134 69.6941 268.275 70.9362 263.653 73.1981C261.543 74.2055 259.478 75.3753 257.466 76.7019L152.297 146.779C138.369 156.191 123.385 162.388 107.961 165.116L61.6056 172.766C43.3508 176.102 26.2563 186.825 12.5438 203.541L0.213867 219.075Z" fill="url(#paint53_linear_2193_563)"/>
</g>
<defs>
<linearGradient id="paint0_linear_2193_563" x1="429.828" y1="33.1741" x2="0.0429856" y2="33.1741" gradientUnits="userSpaceOnUse">
<stop offset="0.01" stop-color="#054A6B"/>
<stop offset="1" stop-color="#00111C"/>
</linearGradient>
<linearGradient id="paint1_linear_2193_563" x1="429.828" y1="35.2167" x2="0.0429857" y2="35.2167" gradientUnits="userSpaceOnUse">
<stop offset="0.01" stop-color="#054F6F"/>
<stop offset="1" stop-color="#00131E"/>
</linearGradient>
<linearGradient id="paint2_linear_2193_563" x1="429.785" y1="37.2716" x2="0.0429814" y2="37.2716" gradientUnits="userSpaceOnUse">
<stop offset="0.01" stop-color="#055473"/>
<stop offset="1" stop-color="#001420"/>
</linearGradient>
<linearGradient id="paint3_linear_2193_563" x1="429.785" y1="39.3222" x2="0.0429814" y2="39.3222" gradientUnits="userSpaceOnUse">
<stop offset="0.01" stop-color="#055977"/>
<stop offset="1" stop-color="#001621"/>
</linearGradient>
<linearGradient id="paint4_linear_2193_563" x1="429.785" y1="41.3639" x2="0.0429814" y2="41.3639" gradientUnits="userSpaceOnUse">
<stop offset="0.01" stop-color="#045E7B"/>
<stop offset="1" stop-color="#001723"/>
</linearGradient>
<linearGradient id="paint5_linear_2193_563" x1="429.785" y1="43.4676" x2="0.0429814" y2="43.4676" gradientUnits="userSpaceOnUse">
<stop offset="0.01" stop-color="#04637F"/>
<stop offset="1" stop-color="#001925"/>
</linearGradient>
<linearGradient id="paint6_linear_2193_563" x1="429.785" y1="45.5717" x2="0.0429814" y2="45.5717" gradientUnits="userSpaceOnUse">
<stop offset="0.01" stop-color="#046883"/>
<stop offset="1" stop-color="#001A27"/>
</linearGradient>
<linearGradient id="paint7_linear_2193_563" x1="429.785" y1="47.6119" x2="0.0429814" y2="47.6119" gradientUnits="userSpaceOnUse">
<stop offset="0.01" stop-color="#046D87"/>
<stop offset="1" stop-color="#001C29"/>
</linearGradient>
<linearGradient id="paint8_linear_2193_563" x1="429.742" y1="49.7319" x2="0.0429771" y2="49.7319" gradientUnits="userSpaceOnUse">
<stop offset="0.01" stop-color="#04738C"/>
<stop offset="1" stop-color="#001D2A"/>
</linearGradient>
<linearGradient id="paint9_linear_2193_563" x1="429.742" y1="51.8334" x2="0.0429771" y2="51.8334" gradientUnits="userSpaceOnUse">
<stop offset="0.01" stop-color="#047890"/>
<stop offset="1" stop-color="#001F2C"/>
</linearGradient>
<linearGradient id="paint10_linear_2193_563" x1="429.742" y1="53.9385" x2="0.0429771" y2="53.9385" gradientUnits="userSpaceOnUse">
<stop offset="0.01" stop-color="#037D94"/>
<stop offset="1" stop-color="#00202E"/>
</linearGradient>
<linearGradient id="paint11_linear_2193_563" x1="429.742" y1="54.6375" x2="0.0429771" y2="54.6375" gradientUnits="userSpaceOnUse">
<stop offset="0.01" stop-color="#038298"/>
<stop offset="1" stop-color="#002230"/>
</linearGradient>
<linearGradient id="paint12_linear_2193_563" x1="429.742" y1="54.638" x2="0.0429771" y2="54.638" gradientUnits="userSpaceOnUse">
<stop offset="0.01" stop-color="#03879C"/>
<stop offset="1" stop-color="#002332"/>
</linearGradient>
<linearGradient id="paint13_linear_2193_563" x1="429.742" y1="55.3379" x2="0.0429771" y2="55.3379" gradientUnits="userSpaceOnUse">
<stop offset="0.01" stop-color="#038CA0"/>
<stop offset="1" stop-color="#002533"/>
</linearGradient>
<linearGradient id="paint14_linear_2193_563" x1="429.699" y1="56.3457" x2="0.0429728" y2="56.3457" gradientUnits="userSpaceOnUse">
<stop offset="0.01" stop-color="#0391A4"/>
<stop offset="1" stop-color="#002635"/>
</linearGradient>
<linearGradient id="paint15_linear_2193_563" x1="429.699" y1="57.3957" x2="0.0429728" y2="57.3957" gradientUnits="userSpaceOnUse">
<stop offset="0.01" stop-color="#0396A8"/>
<stop offset="1" stop-color="#002837"/>
</linearGradient>
<linearGradient id="paint16_linear_2193_563" x1="429.742" y1="58.3774" x2="0.0429771" y2="58.3774" gradientUnits="userSpaceOnUse">
<stop offset="0.01" stop-color="#029BAC"/>
<stop offset="1" stop-color="#002939"/>
</linearGradient>
<linearGradient id="paint17_linear_2193_563" x1="429.742" y1="60.4175" x2="0.0429771" y2="60.4175" gradientUnits="userSpaceOnUse">
<stop offset="0.01" stop-color="#02A0B0"/>
<stop offset="1" stop-color="#002B3B"/>
</linearGradient>
<linearGradient id="paint18_linear_2193_563" x1="429.742" y1="62.5228" x2="0.0859455" y2="62.5228" gradientUnits="userSpaceOnUse">
<stop offset="0.01" stop-color="#02A5B4"/>
<stop offset="1" stop-color="#002C3D"/>
</linearGradient>
<linearGradient id="paint19_linear_2193_563" x1="429.742" y1="64.6817" x2="0.0859455" y2="64.6817" gradientUnits="userSpaceOnUse">
<stop offset="0.01" stop-color="#02AAB8"/>
<stop offset="1" stop-color="#002E3E"/>
</linearGradient>
<linearGradient id="paint20_linear_2193_563" x1="429.742" y1="66.785" x2="0.0859455" y2="66.785" gradientUnits="userSpaceOnUse">
<stop offset="0.01" stop-color="#02AFBC"/>
<stop offset="1" stop-color="#002F40"/>
</linearGradient>
<linearGradient id="paint21_linear_2193_563" x1="429.742" y1="68.8874" x2="0.0859455" y2="68.8874" gradientUnits="userSpaceOnUse">
<stop offset="0.01" stop-color="#02B4C0"/>
<stop offset="1" stop-color="#003142"/>
</linearGradient>
<linearGradient id="paint22_linear_2193_563" x1="429.742" y1="70.9912" x2="0.0859455" y2="70.9912" gradientUnits="userSpaceOnUse">
<stop offset="0.01" stop-color="#01B9C4"/>
<stop offset="1" stop-color="#003244"/>
</linearGradient>
<linearGradient id="paint23_linear_2193_563" x1="429.742" y1="73.0324" x2="0.0859455" y2="73.0324" gradientUnits="userSpaceOnUse">
<stop offset="0.01" stop-color="#01BEC8"/>
<stop offset="1" stop-color="#003446"/>
</linearGradient>
<linearGradient id="paint24_linear_2193_563" x1="429.742" y1="75.1361" x2="0.0859455" y2="75.1361" gradientUnits="userSpaceOnUse">
<stop offset="0.01" stop-color="#01C4CD"/>
<stop offset="1" stop-color="#003547"/>
</linearGradient>
<linearGradient id="paint25_linear_2193_563" x1="429.742" y1="77.1762" x2="0.0859455" y2="77.1762" gradientUnits="userSpaceOnUse">
<stop offset="0.01" stop-color="#01C9D1"/>
<stop offset="1" stop-color="#003749"/>
</linearGradient>
<linearGradient id="paint26_linear_2193_563" x1="429.742" y1="79.2233" x2="0.0859455" y2="79.2233" gradientUnits="userSpaceOnUse">
<stop offset="0.01" stop-color="#01CED5"/>
<stop offset="1" stop-color="#00384B"/>
</linearGradient>
<linearGradient id="paint27_linear_2193_563" x1="429.742" y1="81.3266" x2="0.0859455" y2="81.3266" gradientUnits="userSpaceOnUse">
<stop offset="0.01" stop-color="#01D3D9"/>
<stop offset="1" stop-color="#003A4D"/>
</linearGradient>
<linearGradient id="paint28_linear_2193_563" x1="429.742" y1="83.3677" x2="0.0859455" y2="83.3677" gradientUnits="userSpaceOnUse">
<stop offset="0.01" stop-color="#00D8DD"/>
<stop offset="1" stop-color="#003B4F"/>
</linearGradient>
<linearGradient id="paint29_linear_2193_563" x1="429.742" y1="85.3567" x2="0.0859455" y2="85.3567" gradientUnits="userSpaceOnUse">
<stop offset="0.01" stop-color="#00DDE1"/>
<stop offset="1" stop-color="#003D50"/>
</linearGradient>
<linearGradient id="paint30_linear_2193_563" x1="429.742" y1="87.3975" x2="0.0859455" y2="87.3975" gradientUnits="userSpaceOnUse">
<stop offset="0.01" stop-color="#00E2E5"/>
<stop offset="1" stop-color="#003E52"/>
</linearGradient>
<linearGradient id="paint31_linear_2193_563" x1="429.742" y1="89.4415" x2="0.0859455" y2="89.4415" gradientUnits="userSpaceOnUse">
<stop offset="0.01" stop-color="#00E7E9"/>
<stop offset="1" stop-color="#004054"/>
</linearGradient>
<linearGradient id="paint32_linear_2193_563" x1="429.742" y1="41.3217" x2="0.0859455" y2="41.3217" gradientUnits="userSpaceOnUse">
<stop offset="0.01" stop-color="#00E7E9"/>
<stop offset="1" stop-color="#052A38"/>
</linearGradient>
<linearGradient id="paint33_linear_2193_563" x1="429.742" y1="42.0829" x2="0.0859455" y2="42.0829" gradientUnits="userSpaceOnUse">
<stop offset="0.01" stop-color="#00E7E9"/>
<stop offset="1" stop-color="#052937"/>
</linearGradient>
<linearGradient id="paint34_linear_2193_563" x1="429.742" y1="43.7784" x2="0.0859455" y2="43.7784" gradientUnits="userSpaceOnUse">
<stop offset="0.01" stop-color="#00E7E9"/>
<stop offset="1" stop-color="#052835"/>
</linearGradient>
<linearGradient id="paint35_linear_2193_563" x1="429.742" y1="45.4662" x2="0.0859455" y2="45.4662" gradientUnits="userSpaceOnUse">
<stop offset="0.01" stop-color="#00E7E9"/>
<stop offset="1" stop-color="#042734"/>
</linearGradient>
<linearGradient id="paint36_linear_2193_563" x1="429.742" y1="47.0486" x2="0.0859455" y2="47.0486" gradientUnits="userSpaceOnUse">
<stop offset="0.01" stop-color="#00E7E9"/>
<stop offset="1" stop-color="#042633"/>
</linearGradient>
<linearGradient id="paint37_linear_2193_563" x1="429.742" y1="48.5611" x2="0.0859455" y2="48.5611" gradientUnits="userSpaceOnUse">
<stop offset="0.01" stop-color="#00E7E9"/>
<stop offset="1" stop-color="#042531"/>
</linearGradient>
<linearGradient id="paint38_linear_2193_563" x1="429.742" y1="50.0815" x2="0.0429771" y2="50.0815" gradientUnits="userSpaceOnUse">
<stop offset="0.01" stop-color="#00E7E9"/>
<stop offset="1" stop-color="#042430"/>
</linearGradient>
<linearGradient id="paint39_linear_2193_563" x1="429.742" y1="51.5395" x2="0.0429771" y2="51.5395" gradientUnits="userSpaceOnUse">
<stop offset="0.01" stop-color="#00E7E9"/>
<stop offset="1" stop-color="#04232F"/>
</linearGradient>
<linearGradient id="paint40_linear_2193_563" x1="429.785" y1="53.0439" x2="0.0429814" y2="53.0439" gradientUnits="userSpaceOnUse">
<stop offset="0.01" stop-color="#00E7E9"/>
<stop offset="1" stop-color="#03222D"/>
</linearGradient>
<linearGradient id="paint41_linear_2193_563" x1="429.785" y1="54.5642" x2="0.0429814" y2="54.5642" gradientUnits="userSpaceOnUse">
<stop offset="0.01" stop-color="#00E7E9"/>
<stop offset="1" stop-color="#03212C"/>
</linearGradient>
<linearGradient id="paint42_linear_2193_563" x1="429.785" y1="55.7342" x2="0.0429814" y2="55.7342" gradientUnits="userSpaceOnUse">
<stop offset="0.01" stop-color="#00E7E9"/>
<stop offset="1" stop-color="#03202B"/>
</linearGradient>
<linearGradient id="paint43_linear_2193_563" x1="429.785" y1="56.3151" x2="0.0429814" y2="56.3151" gradientUnits="userSpaceOnUse">
<stop offset="0.01" stop-color="#00E7E9"/>
<stop offset="1" stop-color="#032029"/>
</linearGradient>
<linearGradient id="paint44_linear_2193_563" x1="429.785" y1="56.8983" x2="0.0429814" y2="56.8983" gradientUnits="userSpaceOnUse">
<stop offset="0.01" stop-color="#00E7E9"/>
<stop offset="1" stop-color="#031F28"/>
</linearGradient>
<linearGradient id="paint45_linear_2193_563" x1="429.785" y1="57.4257" x2="0.0429814" y2="57.4257" gradientUnits="userSpaceOnUse">
<stop offset="0.01" stop-color="#00E7E9"/>
<stop offset="1" stop-color="#031E27"/>
</linearGradient>
<linearGradient id="paint46_linear_2193_563" x1="429.785" y1="58.0078" x2="0.0429814" y2="58.0078" gradientUnits="userSpaceOnUse">
<stop offset="0.01" stop-color="#00E7E9"/>
<stop offset="1" stop-color="#021D25"/>
</linearGradient>
<linearGradient id="paint47_linear_2193_563" x1="429.785" y1="58.5353" x2="0.0429814" y2="58.5353" gradientUnits="userSpaceOnUse">
<stop offset="0.01" stop-color="#00E7E9"/>
<stop offset="1" stop-color="#021C24"/>
</linearGradient>
<linearGradient id="paint48_linear_2193_563" x1="429.785" y1="59.117" x2="0.0429814" y2="59.117" gradientUnits="userSpaceOnUse">
<stop offset="0.01" stop-color="#00E7E9"/>
<stop offset="1" stop-color="#021B23"/>
</linearGradient>
<linearGradient id="paint49_linear_2193_563" x1="429.785" y1="59.6463" x2="0" y2="59.6463" gradientUnits="userSpaceOnUse">
<stop offset="0.01" stop-color="#00E7E9"/>
<stop offset="1" stop-color="#021A21"/>
</linearGradient>
<linearGradient id="paint50_linear_2193_563" x1="429.785" y1="60.2292" x2="0" y2="60.2292" gradientUnits="userSpaceOnUse">
<stop offset="0.01" stop-color="#00E7E9"/>
<stop offset="1" stop-color="#021920"/>
</linearGradient>
<linearGradient id="paint51_linear_2193_563" x1="429.785" y1="60.7512" x2="0" y2="60.7512" gradientUnits="userSpaceOnUse">
<stop offset="0.01" stop-color="#00E7E9"/>
<stop offset="1" stop-color="#01181F"/>
</linearGradient>
<linearGradient id="paint52_linear_2193_563" x1="429.784" y1="61.2769" x2="-0.000932968" y2="61.2769" gradientUnits="userSpaceOnUse">
<stop offset="0.01" stop-color="#00E7E9"/>
<stop offset="1" stop-color="#01171D"/>
</linearGradient>
<linearGradient id="paint53_linear_2193_563" x1="429.784" y1="61.8643" x2="-0.00093297" y2="61.8643" gradientUnits="userSpaceOnUse">
<stop offset="0.01" stop-color="#00E7E9"/>
<stop offset="1" stop-color="#01161C"/>
</linearGradient>
</defs>
</svg>
